<?xml version="1.0" encoding="utf-8" standalone="no"?>
<!DOCTYPE svg PUBLIC "-//W3C//DTD SVG 1.1//EN"
  "http://www.w3.org/Graphics/SVG/1.1/DTD/svg11.dtd">
<svg xmlns:xlink="http://www.w3.org/1999/xlink" width="505.760937pt" height="208.595938pt" viewBox="0 0 505.760937 208.595938" xmlns="http://www.w3.org/2000/svg" version="1.1">
 <metadata>
  <rdf:RDF xmlns:dc="http://purl.org/dc/elements/1.1/" xmlns:cc="http://creativecommons.org/ns#" xmlns:rdf="http://www.w3.org/1999/02/22-rdf-syntax-ns#">
   <cc:Work>
    <dc:type rdf:resource="http://purl.org/dc/dcmitype/StillImage"/>
    <dc:date>2023-05-05T16:25:25.131565</dc:date>
    <dc:format>image/svg+xml</dc:format>
    <dc:creator>
     <cc:Agent>
      <dc:title>Matplotlib v3.6.2, https://matplotlib.org/</dc:title>
     </cc:Agent>
    </dc:creator>
   </cc:Work>
  </rdf:RDF>
 </metadata>
 <defs>
  <style type="text/css">*{stroke-linejoin: round; stroke-linecap: butt}</style>
 </defs>
 <g id="figure_1">
  <g id="patch_1">
   <path d="M 0 208.595938 
L 505.760937 208.595938 
L 505.760937 0 
L 0 0 
z
" style="fill: #ffffff"/>
  </g>
  <g id="axes_1">
   <g id="patch_2">
    <path d="M 52.160938 173.52 
L 498.560938 173.52 
L 498.560938 7.2 
L 52.160938 7.2 
z
" style="fill: #ffffff"/>
   </g>
   <g id="PolyCollection_1">
    <defs>
     <path id="meb1461e8f7" d="M 126.826136 -48.230087 
L 126.295739 -48.230087 
L 126.189404 -49.420877 
L 126.053329 -50.611667 
L 125.884433 -51.802457 
L 125.681195 -52.993247 
L 125.44421 -54.184037 
L 125.17657 -55.374827 
L 124.883964 -56.565617 
L 124.574393 -57.756407 
L 124.257474 -58.947197 
L 123.943379 -60.137987 
L 123.641514 -61.328777 
L 123.359149 -62.519567 
L 123.100229 -63.710357 
L 122.864597 -64.901147 
L 122.647809 -66.091937 
L 122.441635 -67.282727 
L 122.235222 -68.473517 
L 122.016765 -69.664307 
L 121.775441 -70.855097 
L 121.503316 -72.045887 
L 121.1969 -73.236676 
L 120.85811 -74.427466 
L 120.494472 -75.618256 
L 120.11853 -76.809046 
L 119.746548 -77.999836 
L 119.39672 -79.190626 
L 119.087155 -80.381416 
L 118.833944 -81.572206 
L 118.649579 -82.762996 
L 118.541908 -83.953786 
L 118.513738 -85.144576 
L 118.563039 -86.335366 
L 118.683667 -87.526156 
L 118.866412 -88.716946 
L 119.100202 -89.907736 
L 119.373262 -91.098526 
L 119.674127 -92.289316 
L 119.992395 -93.480106 
L 120.319219 -94.670896 
L 120.647534 -95.861686 
L 120.972057 -97.052476 
L 121.289116 -98.243266 
L 121.596357 -99.434056 
L 121.892387 -100.624846 
L 122.1764 -101.815636 
L 122.447852 -103.006425 
L 122.706205 -104.197215 
L 122.950783 -105.388005 
L 123.180742 -106.578795 
L 123.395145 -107.769585 
L 123.593112 -108.960375 
L 123.774 -110.151165 
L 123.937573 -111.341955 
L 124.08412 -112.532745 
L 124.214493 -113.723535 
L 124.330071 -114.914325 
L 124.432639 -116.105115 
L 124.524229 -117.295905 
L 124.606927 -118.486695 
L 124.682692 -119.677485 
L 124.753207 -120.868275 
L 124.819782 -122.059065 
L 124.883316 -123.249855 
L 124.944317 -124.440645 
L 125.002977 -125.631435 
L 125.059271 -126.822225 
L 125.113067 -128.013015 
L 125.16422 -129.203805 
L 125.212635 -130.394595 
L 125.258283 -131.585385 
L 125.301199 -132.776174 
L 125.341452 -133.966964 
L 125.379122 -135.157754 
L 125.41431 -136.348544 
L 125.44718 -137.539334 
L 125.478029 -138.730124 
L 125.507376 -139.920914 
L 125.536024 -141.111704 
L 125.565085 -142.302494 
L 125.595922 -143.493284 
L 125.630026 -144.684074 
L 125.668826 -145.874864 
L 125.713472 -147.065654 
L 125.764632 -148.256444 
L 125.822343 -149.447234 
L 125.885951 -150.638024 
L 125.954149 -151.828814 
L 126.025111 -153.019604 
L 126.096698 -154.210394 
L 126.166694 -155.401184 
L 126.233038 -156.591974 
L 126.294016 -157.782764 
L 126.348389 -158.973554 
L 126.395447 -160.164344 
L 126.434996 -161.355134 
L 126.467287 -162.545923 
L 126.492908 -163.736713 
L 126.512674 -164.927503 
L 126.527502 -166.118293 
L 126.594373 -166.118293 
L 126.594373 -166.118293 
L 126.609201 -164.927503 
L 126.628967 -163.736713 
L 126.654588 -162.545923 
L 126.686879 -161.355134 
L 126.726428 -160.164344 
L 126.773486 -158.973554 
L 126.827859 -157.782764 
L 126.888837 -156.591974 
L 126.955181 -155.401184 
L 127.025177 -154.210394 
L 127.096764 -153.019604 
L 127.167726 -151.828814 
L 127.235924 -150.638024 
L 127.299532 -149.447234 
L 127.357243 -148.256444 
L 127.408403 -147.065654 
L 127.453049 -145.874864 
L 127.491849 -144.684074 
L 127.525953 -143.493284 
L 127.55679 -142.302494 
L 127.585851 -141.111704 
L 127.614499 -139.920914 
L 127.643846 -138.730124 
L 127.674695 -137.539334 
L 127.707565 -136.348544 
L 127.742753 -135.157754 
L 127.780423 -133.966964 
L 127.820676 -132.776174 
L 127.863592 -131.585385 
L 127.90924 -130.394595 
L 127.957655 -129.203805 
L 128.008808 -128.013015 
L 128.062604 -126.822225 
L 128.118898 -125.631435 
L 128.177558 -124.440645 
L 128.238559 -123.249855 
L 128.302093 -122.059065 
L 128.368668 -120.868275 
L 128.439183 -119.677485 
L 128.514948 -118.486695 
L 128.597646 -117.295905 
L 128.689236 -116.105115 
L 128.791804 -114.914325 
L 128.907382 -113.723535 
L 129.037755 -112.532745 
L 129.184302 -111.341955 
L 129.347875 -110.151165 
L 129.528763 -108.960375 
L 129.72673 -107.769585 
L 129.941133 -106.578795 
L 130.171092 -105.388005 
L 130.41567 -104.197215 
L 130.674023 -103.006425 
L 130.945475 -101.815636 
L 131.229488 -100.624846 
L 131.525518 -99.434056 
L 131.832759 -98.243266 
L 132.149818 -97.052476 
L 132.474341 -95.861686 
L 132.802656 -94.670896 
L 133.12948 -93.480106 
L 133.447748 -92.289316 
L 133.748613 -91.098526 
L 134.021673 -89.907736 
L 134.255463 -88.716946 
L 134.438208 -87.526156 
L 134.558836 -86.335366 
L 134.608137 -85.144576 
L 134.579967 -83.953786 
L 134.472296 -82.762996 
L 134.287931 -81.572206 
L 134.03472 -80.381416 
L 133.725155 -79.190626 
L 133.375327 -77.999836 
L 133.003345 -76.809046 
L 132.627403 -75.618256 
L 132.263765 -74.427466 
L 131.924975 -73.236676 
L 131.618559 -72.045887 
L 131.346434 -70.855097 
L 131.10511 -69.664307 
L 130.886653 -68.473517 
L 130.68024 -67.282727 
L 130.474066 -66.091937 
L 130.257278 -64.901147 
L 130.021646 -63.710357 
L 129.762726 -62.519567 
L 129.480361 -61.328777 
L 129.178496 -60.137987 
L 128.864401 -58.947197 
L 128.547482 -57.756407 
L 128.237911 -56.565617 
L 127.945305 -55.374827 
L 127.677665 -54.184037 
L 127.44068 -52.993247 
L 127.237442 -51.802457 
L 127.068546 -50.611667 
L 126.932471 -49.420877 
L 126.826136 -48.230087 
z
" style="stroke: #424242; stroke-width: 0.8"/>
    </defs>
    <g clip-path="url(#p7d50b8d2c7)">
     <use xlink:href="#meb1461e8f7" x="0" y="208.595938" style="fill: #3d78a5; stroke: #424242; stroke-width: 0.8"/>
    </g>
   </g>
   <g id="PolyCollection_2">
    <defs>
     <path id="m694711029c" d="M 275.764247 -42.635937 
L 274.957628 -42.635937 
L 274.802809 -44.16321 
L 274.604874 -45.690483 
L 274.35817 -47.217756 
L 274.05849 -48.745028 
L 273.703832 -50.272301 
L 273.295093 -51.799574 
L 272.836617 -53.326847 
L 272.336454 -54.854119 
L 271.806286 -56.381392 
L 271.260948 -57.908665 
L 270.717582 -59.435938 
L 270.194482 -60.96321 
L 269.709762 -62.490483 
L 269.279995 -64.017756 
L 268.919003 -65.545028 
L 268.636911 -67.072301 
L 268.439591 -68.599574 
L 268.328518 -70.126847 
L 268.301022 -71.654119 
L 268.350872 -73.181392 
L 268.469076 -74.708665 
L 268.644795 -76.235937 
L 268.866271 -77.76321 
L 269.121661 -79.290483 
L 269.399748 -80.817756 
L 269.69048 -82.345028 
L 269.985335 -83.872301 
L 270.277507 -85.399574 
L 270.561949 -86.926847 
L 270.835267 -88.454119 
L 271.095517 -89.981392 
L 271.341923 -91.508665 
L 271.574557 -93.035937 
L 271.794023 -94.56321 
L 272.001169 -96.090483 
L 272.196858 -97.617756 
L 272.381816 -99.145028 
L 272.55654 -100.672301 
L 272.72128 -102.199574 
L 272.876057 -103.726847 
L 273.020708 -105.254119 
L 273.154939 -106.781392 
L 273.278389 -108.308665 
L 273.390681 -109.835938 
L 273.491492 -111.36321 
L 273.58062 -112.890483 
L 273.658063 -114.417756 
L 273.724107 -115.945028 
L 273.779392 -117.472301 
L 273.824969 -118.999574 
L 273.862303 -120.526847 
L 273.893235 -122.054119 
L 273.919877 -123.581392 
L 273.944464 -125.108665 
L 273.969172 -126.635937 
L 273.995924 -128.16321 
L 274.026222 -129.690483 
L 274.06102 -131.217756 
L 274.100658 -132.745028 
L 274.144878 -134.272301 
L 274.192889 -135.799574 
L 274.2435 -137.326847 
L 274.295271 -138.854119 
L 274.346677 -140.381392 
L 274.396252 -141.908665 
L 274.442701 -143.435937 
L 274.484973 -144.96321 
L 274.522302 -146.490483 
L 274.554209 -148.017756 
L 274.580493 -149.545028 
L 274.601211 -151.072301 
L 274.616667 -152.599574 
L 274.6274 -154.126847 
L 274.634188 -155.654119 
L 274.638038 -157.181392 
L 274.640176 -158.708665 
L 274.64201 -160.235937 
L 274.645067 -161.76321 
L 274.650901 -163.290483 
L 274.660975 -164.817756 
L 274.676535 -166.345028 
L 274.698483 -167.872301 
L 274.727277 -169.399574 
L 274.76287 -170.926847 
L 274.804697 -172.454119 
L 274.851723 -173.981392 
L 274.902535 -175.508665 
L 274.955477 -177.035937 
L 275.008803 -178.56321 
L 275.060828 -180.090483 
L 275.110064 -181.617756 
L 275.15532 -183.145028 
L 275.195761 -184.672301 
L 275.23092 -186.199574 
L 275.260681 -187.726847 
L 275.28522 -189.254119 
L 275.304939 -190.781392 
L 275.320388 -192.308665 
L 275.332191 -193.835937 
L 275.389684 -193.835937 
L 275.389684 -193.835937 
L 275.401487 -192.308665 
L 275.416936 -190.781392 
L 275.436655 -189.254119 
L 275.461194 -187.726847 
L 275.490955 -186.199574 
L 275.526114 -184.672301 
L 275.566555 -183.145028 
L 275.611811 -181.617756 
L 275.661047 -180.090483 
L 275.713072 -178.56321 
L 275.766398 -177.035937 
L 275.81934 -175.508665 
L 275.870152 -173.981392 
L 275.917178 -172.454119 
L 275.959005 -170.926847 
L 275.994598 -169.399574 
L 276.023392 -167.872301 
L 276.04534 -166.345028 
L 276.0609 -164.817756 
L 276.070974 -163.290483 
L 276.076808 -161.76321 
L 276.079865 -160.235937 
L 276.081699 -158.708665 
L 276.083837 -157.181392 
L 276.087687 -155.654119 
L 276.094475 -154.126847 
L 276.105208 -152.599574 
L 276.120664 -151.072301 
L 276.141382 -149.545028 
L 276.167666 -148.017756 
L 276.199573 -146.490483 
L 276.236902 -144.96321 
L 276.279174 -143.435937 
L 276.325623 -141.908665 
L 276.375198 -140.381392 
L 276.426604 -138.854119 
L 276.478375 -137.326847 
L 276.528986 -135.799574 
L 276.576997 -134.272301 
L 276.621217 -132.745028 
L 276.660855 -131.217756 
L 276.695653 -129.690483 
L 276.725951 -128.16321 
L 276.752703 -126.635937 
L 276.777411 -125.108665 
L 276.801998 -123.581392 
L 276.82864 -122.054119 
L 276.859572 -120.526847 
L 276.896906 -118.999574 
L 276.942483 -117.472301 
L 276.997768 -115.945028 
L 277.063812 -114.417756 
L 277.141255 -112.890483 
L 277.230383 -111.36321 
L 277.331194 -109.835938 
L 277.443486 -108.308665 
L 277.566936 -106.781392 
L 277.701167 -105.254119 
L 277.845818 -103.726847 
L 278.000595 -102.199574 
L 278.165335 -100.672301 
L 278.340059 -99.145028 
L 278.525017 -97.617756 
L 278.720706 -96.090483 
L 278.927852 -94.56321 
L 279.147318 -93.035937 
L 279.379952 -91.508665 
L 279.626358 -89.981392 
L 279.886608 -88.454119 
L 280.159926 -86.926847 
L 280.444368 -85.399574 
L 280.73654 -83.872301 
L 281.031395 -82.345028 
L 281.322127 -80.817756 
L 281.600214 -79.290483 
L 281.855604 -77.76321 
L 282.07708 -76.235937 
L 282.252799 -74.708665 
L 282.371003 -73.181392 
L 282.420853 -71.654119 
L 282.393357 -70.126847 
L 282.282284 -68.599574 
L 282.084964 -67.072301 
L 281.802872 -65.545028 
L 281.44188 -64.017756 
L 281.012113 -62.490483 
L 280.527393 -60.96321 
L 280.004293 -59.435938 
L 279.460927 -57.908665 
L 278.915589 -56.381392 
L 278.385421 -54.854119 
L 277.885258 -53.326847 
L 277.426782 -51.799574 
L 277.018043 -50.272301 
L 276.663385 -48.745028 
L 276.363705 -47.217756 
L 276.117001 -45.690483 
L 275.919066 -44.16321 
L 275.764247 -42.635937 
z
" style="stroke: #424242; stroke-width: 0.8"/>
    </defs>
    <g clip-path="url(#p7d50b8d2c7)">
     <use xlink:href="#m694711029c" x="0" y="208.595938" style="fill: #be631d; stroke: #424242; stroke-width: 0.8"/>
    </g>
   </g>
   <g id="PolyCollection_3">
    <defs>
     <path id="mbe2a220334" d="M 424.823802 -59.403088 
L 423.498073 -59.403088 
L 422.874433 -59.909219 
L 421.8405 -60.415349 
L 420.24081 -60.92148 
L 417.903365 -61.427611 
L 414.640629 -61.933741 
L 410.25801 -62.439872 
L 404.594913 -62.946002 
L 397.620565 -63.452133 
L 389.575665 -63.958263 
L 381.10101 -64.464394 
L 373.258488 -64.970524 
L 367.365159 -65.476655 
L 364.640938 -65.982785 
L 365.783595 -66.488916 
L 370.663012 -66.995046 
L 378.303823 -67.501177 
L 387.192984 -68.007307 
L 395.778563 -68.513438 
L 402.928539 -69.019568 
L 408.15812 -69.525699 
L 411.576511 -70.03183 
L 413.647358 -70.53796 
L 414.915597 -71.044091 
L 415.816695 -71.550221 
L 416.604507 -72.056352 
L 417.370974 -72.562482 
L 418.109532 -73.068613 
L 418.78276 -73.574743 
L 419.371036 -74.080874 
L 419.891486 -74.587004 
L 420.387169 -75.093135 
L 420.898156 -75.599265 
L 421.434511 -76.105396 
L 421.968677 -76.611526 
L 422.451133 -77.117657 
L 422.837719 -77.623787 
L 423.111155 -78.129918 
L 423.285768 -78.636048 
L 423.396495 -79.142179 
L 423.481473 -79.64831 
L 423.56798 -80.15444 
L 423.666636 -80.660571 
L 423.773427 -81.166701 
L 423.87609 -81.672832 
L 423.960948 -82.178962 
L 424.017598 -82.685093 
L 424.040826 -83.191223 
L 424.030788 -83.697354 
L 423.992862 -84.203484 
L 423.937624 -84.709615 
L 423.880033 -85.215745 
L 423.836575 -85.721876 
L 423.820491 -86.228006 
L 423.837113 -86.734137 
L 423.882058 -87.240267 
L 423.943541 -87.746398 
L 424.007553 -88.252529 
L 424.06299 -88.758659 
L 424.104328 -89.26479 
L 424.131326 -89.77092 
L 424.146919 -90.277051 
L 424.154931 -90.783181 
L 424.158608 -91.289312 
L 424.160119 -91.795442 
L 424.160673 -92.301573 
L 424.160843 -92.807703 
L 424.16084 -93.313834 
L 424.160649 -93.819964 
L 424.16 -94.326095 
L 424.158141 -94.832225 
L 424.153379 -95.338356 
L 424.142439 -95.844486 
L 424.119938 -96.350617 
L 424.078654 -96.856748 
L 424.011397 -97.362878 
L 423.914834 -97.869009 
L 423.79417 -98.375139 
L 423.665967 -98.88127 
L 423.556024 -99.3874 
L 423.491425 -99.893531 
L 423.489724 -100.399661 
L 423.550997 -100.905792 
L 423.65744 -101.411922 
L 423.780618 -101.918053 
L 423.891931 -102.424183 
L 423.970794 -102.930314 
L 424.007799 -103.436444 
L 424.003843 -103.942575 
L 423.96784 -104.448705 
L 423.914526 -104.954836 
L 423.861894 -105.460966 
L 423.827257 -105.967097 
L 423.822332 -106.473228 
L 423.849505 -106.979358 
L 423.90158 -107.485489 
L 423.965427 -107.991619 
L 424.027544 -108.49775 
L 424.078564 -109.00388 
L 424.1149 -109.510011 
L 424.206975 -109.510011 
L 424.206975 -109.510011 
L 424.243311 -109.00388 
L 424.294331 -108.49775 
L 424.356448 -107.991619 
L 424.420295 -107.485489 
L 424.47237 -106.979358 
L 424.499543 -106.473228 
L 424.494618 -105.967097 
L 424.459981 -105.460966 
L 424.407349 -104.954836 
L 424.354035 -104.448705 
L 424.318032 -103.942575 
L 424.314076 -103.436444 
L 424.351081 -102.930314 
L 424.429944 -102.424183 
L 424.541257 -101.918053 
L 424.664435 -101.411922 
L 424.770878 -100.905792 
L 424.832151 -100.399661 
L 424.83045 -99.893531 
L 424.765851 -99.3874 
L 424.655908 -98.88127 
L 424.527705 -98.375139 
L 424.407041 -97.869009 
L 424.310478 -97.362878 
L 424.243221 -96.856748 
L 424.201937 -96.350617 
L 424.179436 -95.844486 
L 424.168496 -95.338356 
L 424.163734 -94.832225 
L 424.161875 -94.326095 
L 424.161226 -93.819964 
L 424.161035 -93.313834 
L 424.161032 -92.807703 
L 424.161202 -92.301573 
L 424.161756 -91.795442 
L 424.163267 -91.289312 
L 424.166944 -90.783181 
L 424.174956 -90.277051 
L 424.190549 -89.77092 
L 424.217547 -89.26479 
L 424.258885 -88.758659 
L 424.314322 -88.252529 
L 424.378334 -87.746398 
L 424.439817 -87.240267 
L 424.484762 -86.734137 
L 424.501384 -86.228006 
L 424.4853 -85.721876 
L 424.441842 -85.215745 
L 424.384251 -84.709615 
L 424.329013 -84.203484 
L 424.291087 -83.697354 
L 424.281049 -83.191223 
L 424.304277 -82.685093 
L 424.360927 -82.178962 
L 424.445785 -81.672832 
L 424.548448 -81.166701 
L 424.655239 -80.660571 
L 424.753895 -80.15444 
L 424.840402 -79.64831 
L 424.92538 -79.142179 
L 425.036107 -78.636048 
L 425.21072 -78.129918 
L 425.484156 -77.623787 
L 425.870742 -77.117657 
L 426.353198 -76.611526 
L 426.887364 -76.105396 
L 427.423719 -75.599265 
L 427.934706 -75.093135 
L 428.430389 -74.587004 
L 428.950839 -74.080874 
L 429.539115 -73.574743 
L 430.212343 -73.068613 
L 430.950901 -72.562482 
L 431.717368 -72.056352 
L 432.50518 -71.550221 
L 433.406278 -71.044091 
L 434.674517 -70.53796 
L 436.745364 -70.03183 
L 440.163755 -69.525699 
L 445.393336 -69.019568 
L 452.543312 -68.513438 
L 461.128891 -68.007307 
L 470.018052 -67.501177 
L 477.658863 -66.995046 
L 482.53828 -66.488916 
L 483.680937 -65.982785 
L 480.956716 -65.476655 
L 475.063387 -64.970524 
L 467.220865 -64.464394 
L 458.74621 -63.958263 
L 450.70131 -63.452133 
L 443.726962 -62.946002 
L 438.063865 -62.439872 
L 433.681246 -61.933741 
L 430.41851 -61.427611 
L 428.081065 -60.92148 
L 426.481375 -60.415349 
L 425.447442 -59.909219 
L 424.823802 -59.403088 
z
" style="stroke: #424242; stroke-width: 0.8"/>
    </defs>
    <g clip-path="url(#p7d50b8d2c7)">
     <use xlink:href="#mbe2a220334" x="0" y="208.595938" style="fill: #7c78ab; stroke: #424242; stroke-width: 0.8"/>
    </g>
   </g>
   <g id="matplotlib.axis_1">
    <g id="xtick_1">
     <g id="line2d_1">
      <defs>
       <path id="mb2a6538a1e" d="M 0 0 
L 0 3.5 
" style="stroke: #000000; stroke-width: 0.8"/>
      </defs>
      <g>
       <use xlink:href="#mb2a6538a1e" x="126.560938" y="173.52" style="stroke: #000000; stroke-width: 0.8"/>
      </g>
     </g>
     <g id="text_1">
      <!-- Treated substrate -->
      <g transform="translate(82.692188 188.118438) scale(0.1 -0.1)">
       <defs>
        <path id="DejaVuSans-54" d="M -19 4666 
L 3928 4666 
L 3928 4134 
L 2272 4134 
L 2272 0 
L 1638 0 
L 1638 4134 
L -19 4134 
L -19 4666 
z
" transform="scale(0.015625)"/>
        <path id="DejaVuSans-72" d="M 2631 2963 
Q 2534 3019 2420 3045 
Q 2306 3072 2169 3072 
Q 1681 3072 1420 2755 
Q 1159 2438 1159 1844 
L 1159 0 
L 581 0 
L 581 3500 
L 1159 3500 
L 1159 2956 
Q 1341 3275 1631 3429 
Q 1922 3584 2338 3584 
Q 2397 3584 2469 3576 
Q 2541 3569 2628 3553 
L 2631 2963 
z
" transform="scale(0.015625)"/>
        <path id="DejaVuSans-65" d="M 3597 1894 
L 3597 1613 
L 953 1613 
Q 991 1019 1311 708 
Q 1631 397 2203 397 
Q 2534 397 2845 478 
Q 3156 559 3463 722 
L 3463 178 
Q 3153 47 2828 -22 
Q 2503 -91 2169 -91 
Q 1331 -91 842 396 
Q 353 884 353 1716 
Q 353 2575 817 3079 
Q 1281 3584 2069 3584 
Q 2775 3584 3186 3129 
Q 3597 2675 3597 1894 
z
M 3022 2063 
Q 3016 2534 2758 2815 
Q 2500 3097 2075 3097 
Q 1594 3097 1305 2825 
Q 1016 2553 972 2059 
L 3022 2063 
z
" transform="scale(0.015625)"/>
        <path id="DejaVuSans-61" d="M 2194 1759 
Q 1497 1759 1228 1600 
Q 959 1441 959 1056 
Q 959 750 1161 570 
Q 1363 391 1709 391 
Q 2188 391 2477 730 
Q 2766 1069 2766 1631 
L 2766 1759 
L 2194 1759 
z
M 3341 1997 
L 3341 0 
L 2766 0 
L 2766 531 
Q 2569 213 2275 61 
Q 1981 -91 1556 -91 
Q 1019 -91 701 211 
Q 384 513 384 1019 
Q 384 1609 779 1909 
Q 1175 2209 1959 2209 
L 2766 2209 
L 2766 2266 
Q 2766 2663 2505 2880 
Q 2244 3097 1772 3097 
Q 1472 3097 1187 3025 
Q 903 2953 641 2809 
L 641 3341 
Q 956 3463 1253 3523 
Q 1550 3584 1831 3584 
Q 2591 3584 2966 3190 
Q 3341 2797 3341 1997 
z
" transform="scale(0.015625)"/>
        <path id="DejaVuSans-74" d="M 1172 4494 
L 1172 3500 
L 2356 3500 
L 2356 3053 
L 1172 3053 
L 1172 1153 
Q 1172 725 1289 603 
Q 1406 481 1766 481 
L 2356 481 
L 2356 0 
L 1766 0 
Q 1100 0 847 248 
Q 594 497 594 1153 
L 594 3053 
L 172 3053 
L 172 3500 
L 594 3500 
L 594 4494 
L 1172 4494 
z
" transform="scale(0.015625)"/>
        <path id="DejaVuSans-64" d="M 2906 2969 
L 2906 4863 
L 3481 4863 
L 3481 0 
L 2906 0 
L 2906 525 
Q 2725 213 2448 61 
Q 2172 -91 1784 -91 
Q 1150 -91 751 415 
Q 353 922 353 1747 
Q 353 2572 751 3078 
Q 1150 3584 1784 3584 
Q 2172 3584 2448 3432 
Q 2725 3281 2906 2969 
z
M 947 1747 
Q 947 1113 1208 752 
Q 1469 391 1925 391 
Q 2381 391 2643 752 
Q 2906 1113 2906 1747 
Q 2906 2381 2643 2742 
Q 2381 3103 1925 3103 
Q 1469 3103 1208 2742 
Q 947 2381 947 1747 
z
" transform="scale(0.015625)"/>
        <path id="DejaVuSans-20" transform="scale(0.015625)"/>
        <path id="DejaVuSans-73" d="M 2834 3397 
L 2834 2853 
Q 2591 2978 2328 3040 
Q 2066 3103 1784 3103 
Q 1356 3103 1142 2972 
Q 928 2841 928 2578 
Q 928 2378 1081 2264 
Q 1234 2150 1697 2047 
L 1894 2003 
Q 2506 1872 2764 1633 
Q 3022 1394 3022 966 
Q 3022 478 2636 193 
Q 2250 -91 1575 -91 
Q 1294 -91 989 -36 
Q 684 19 347 128 
L 347 722 
Q 666 556 975 473 
Q 1284 391 1588 391 
Q 1994 391 2212 530 
Q 2431 669 2431 922 
Q 2431 1156 2273 1281 
Q 2116 1406 1581 1522 
L 1381 1569 
Q 847 1681 609 1914 
Q 372 2147 372 2553 
Q 372 3047 722 3315 
Q 1072 3584 1716 3584 
Q 2034 3584 2315 3537 
Q 2597 3491 2834 3397 
z
" transform="scale(0.015625)"/>
        <path id="DejaVuSans-75" d="M 544 1381 
L 544 3500 
L 1119 3500 
L 1119 1403 
Q 1119 906 1312 657 
Q 1506 409 1894 409 
Q 2359 409 2629 706 
Q 2900 1003 2900 1516 
L 2900 3500 
L 3475 3500 
L 3475 0 
L 2900 0 
L 2900 538 
Q 2691 219 2414 64 
Q 2138 -91 1772 -91 
Q 1169 -91 856 284 
Q 544 659 544 1381 
z
M 1991 3584 
L 1991 3584 
z
" transform="scale(0.015625)"/>
        <path id="DejaVuSans-62" d="M 3116 1747 
Q 3116 2381 2855 2742 
Q 2594 3103 2138 3103 
Q 1681 3103 1420 2742 
Q 1159 2381 1159 1747 
Q 1159 1113 1420 752 
Q 1681 391 2138 391 
Q 2594 391 2855 752 
Q 3116 1113 3116 1747 
z
M 1159 2969 
Q 1341 3281 1617 3432 
Q 1894 3584 2278 3584 
Q 2916 3584 3314 3078 
Q 3713 2572 3713 1747 
Q 3713 922 3314 415 
Q 2916 -91 2278 -91 
Q 1894 -91 1617 61 
Q 1341 213 1159 525 
L 1159 0 
L 581 0 
L 581 4863 
L 1159 4863 
L 1159 2969 
z
" transform="scale(0.015625)"/>
       </defs>
       <use xlink:href="#DejaVuSans-54"/>
       <use xlink:href="#DejaVuSans-72" x="46.333984"/>
       <use xlink:href="#DejaVuSans-65" x="85.197266"/>
       <use xlink:href="#DejaVuSans-61" x="146.720703"/>
       <use xlink:href="#DejaVuSans-74" x="208"/>
       <use xlink:href="#DejaVuSans-65" x="247.208984"/>
       <use xlink:href="#DejaVuSans-64" x="308.732422"/>
       <use xlink:href="#DejaVuSans-20" x="372.208984"/>
       <use xlink:href="#DejaVuSans-73" x="403.996094"/>
       <use xlink:href="#DejaVuSans-75" x="456.095703"/>
       <use xlink:href="#DejaVuSans-62" x="519.474609"/>
       <use xlink:href="#DejaVuSans-73" x="582.951172"/>
       <use xlink:href="#DejaVuSans-74" x="635.050781"/>
       <use xlink:href="#DejaVuSans-72" x="674.259766"/>
       <use xlink:href="#DejaVuSans-61" x="715.373047"/>
       <use xlink:href="#DejaVuSans-74" x="776.652344"/>
       <use xlink:href="#DejaVuSans-65" x="815.861328"/>
      </g>
      <!-- (step width=213±88nm) -->
      <g transform="translate(64.148438 199.31625) scale(0.1 -0.1)">
       <defs>
        <path id="DejaVuSans-28" d="M 1984 4856 
Q 1566 4138 1362 3434 
Q 1159 2731 1159 2009 
Q 1159 1288 1364 580 
Q 1569 -128 1984 -844 
L 1484 -844 
Q 1016 -109 783 600 
Q 550 1309 550 2009 
Q 550 2706 781 3412 
Q 1013 4119 1484 4856 
L 1984 4856 
z
" transform="scale(0.015625)"/>
        <path id="DejaVuSans-70" d="M 1159 525 
L 1159 -1331 
L 581 -1331 
L 581 3500 
L 1159 3500 
L 1159 2969 
Q 1341 3281 1617 3432 
Q 1894 3584 2278 3584 
Q 2916 3584 3314 3078 
Q 3713 2572 3713 1747 
Q 3713 922 3314 415 
Q 2916 -91 2278 -91 
Q 1894 -91 1617 61 
Q 1341 213 1159 525 
z
M 3116 1747 
Q 3116 2381 2855 2742 
Q 2594 3103 2138 3103 
Q 1681 3103 1420 2742 
Q 1159 2381 1159 1747 
Q 1159 1113 1420 752 
Q 1681 391 2138 391 
Q 2594 391 2855 752 
Q 3116 1113 3116 1747 
z
" transform="scale(0.015625)"/>
        <path id="DejaVuSans-77" d="M 269 3500 
L 844 3500 
L 1563 769 
L 2278 3500 
L 2956 3500 
L 3675 769 
L 4391 3500 
L 4966 3500 
L 4050 0 
L 3372 0 
L 2619 2869 
L 1863 0 
L 1184 0 
L 269 3500 
z
" transform="scale(0.015625)"/>
        <path id="DejaVuSans-69" d="M 603 3500 
L 1178 3500 
L 1178 0 
L 603 0 
L 603 3500 
z
M 603 4863 
L 1178 4863 
L 1178 4134 
L 603 4134 
L 603 4863 
z
" transform="scale(0.015625)"/>
        <path id="DejaVuSans-68" d="M 3513 2113 
L 3513 0 
L 2938 0 
L 2938 2094 
Q 2938 2591 2744 2837 
Q 2550 3084 2163 3084 
Q 1697 3084 1428 2787 
Q 1159 2491 1159 1978 
L 1159 0 
L 581 0 
L 581 4863 
L 1159 4863 
L 1159 2956 
Q 1366 3272 1645 3428 
Q 1925 3584 2291 3584 
Q 2894 3584 3203 3211 
Q 3513 2838 3513 2113 
z
" transform="scale(0.015625)"/>
        <path id="DejaVuSans-3d" d="M 678 2906 
L 4684 2906 
L 4684 2381 
L 678 2381 
L 678 2906 
z
M 678 1631 
L 4684 1631 
L 4684 1100 
L 678 1100 
L 678 1631 
z
" transform="scale(0.015625)"/>
        <path id="DejaVuSans-32" d="M 1228 531 
L 3431 531 
L 3431 0 
L 469 0 
L 469 531 
Q 828 903 1448 1529 
Q 2069 2156 2228 2338 
Q 2531 2678 2651 2914 
Q 2772 3150 2772 3378 
Q 2772 3750 2511 3984 
Q 2250 4219 1831 4219 
Q 1534 4219 1204 4116 
Q 875 4013 500 3803 
L 500 4441 
Q 881 4594 1212 4672 
Q 1544 4750 1819 4750 
Q 2544 4750 2975 4387 
Q 3406 4025 3406 3419 
Q 3406 3131 3298 2873 
Q 3191 2616 2906 2266 
Q 2828 2175 2409 1742 
Q 1991 1309 1228 531 
z
" transform="scale(0.015625)"/>
        <path id="DejaVuSans-31" d="M 794 531 
L 1825 531 
L 1825 4091 
L 703 3866 
L 703 4441 
L 1819 4666 
L 2450 4666 
L 2450 531 
L 3481 531 
L 3481 0 
L 794 0 
L 794 531 
z
" transform="scale(0.015625)"/>
        <path id="DejaVuSans-33" d="M 2597 2516 
Q 3050 2419 3304 2112 
Q 3559 1806 3559 1356 
Q 3559 666 3084 287 
Q 2609 -91 1734 -91 
Q 1441 -91 1130 -33 
Q 819 25 488 141 
L 488 750 
Q 750 597 1062 519 
Q 1375 441 1716 441 
Q 2309 441 2620 675 
Q 2931 909 2931 1356 
Q 2931 1769 2642 2001 
Q 2353 2234 1838 2234 
L 1294 2234 
L 1294 2753 
L 1863 2753 
Q 2328 2753 2575 2939 
Q 2822 3125 2822 3475 
Q 2822 3834 2567 4026 
Q 2313 4219 1838 4219 
Q 1578 4219 1281 4162 
Q 984 4106 628 3988 
L 628 4550 
Q 988 4650 1302 4700 
Q 1616 4750 1894 4750 
Q 2613 4750 3031 4423 
Q 3450 4097 3450 3541 
Q 3450 3153 3228 2886 
Q 3006 2619 2597 2516 
z
" transform="scale(0.015625)"/>
        <path id="DejaVuSans-b1" d="M 2944 4013 
L 2944 2803 
L 4684 2803 
L 4684 2272 
L 2944 2272 
L 2944 1063 
L 2419 1063 
L 2419 2272 
L 678 2272 
L 678 2803 
L 2419 2803 
L 2419 4013 
L 2944 4013 
z
M 678 531 
L 4684 531 
L 4684 0 
L 678 0 
L 678 531 
z
" transform="scale(0.015625)"/>
        <path id="DejaVuSans-38" d="M 2034 2216 
Q 1584 2216 1326 1975 
Q 1069 1734 1069 1313 
Q 1069 891 1326 650 
Q 1584 409 2034 409 
Q 2484 409 2743 651 
Q 3003 894 3003 1313 
Q 3003 1734 2745 1975 
Q 2488 2216 2034 2216 
z
M 1403 2484 
Q 997 2584 770 2862 
Q 544 3141 544 3541 
Q 544 4100 942 4425 
Q 1341 4750 2034 4750 
Q 2731 4750 3128 4425 
Q 3525 4100 3525 3541 
Q 3525 3141 3298 2862 
Q 3072 2584 2669 2484 
Q 3125 2378 3379 2068 
Q 3634 1759 3634 1313 
Q 3634 634 3220 271 
Q 2806 -91 2034 -91 
Q 1263 -91 848 271 
Q 434 634 434 1313 
Q 434 1759 690 2068 
Q 947 2378 1403 2484 
z
M 1172 3481 
Q 1172 3119 1398 2916 
Q 1625 2713 2034 2713 
Q 2441 2713 2670 2916 
Q 2900 3119 2900 3481 
Q 2900 3844 2670 4047 
Q 2441 4250 2034 4250 
Q 1625 4250 1398 4047 
Q 1172 3844 1172 3481 
z
" transform="scale(0.015625)"/>
        <path id="DejaVuSans-6e" d="M 3513 2113 
L 3513 0 
L 2938 0 
L 2938 2094 
Q 2938 2591 2744 2837 
Q 2550 3084 2163 3084 
Q 1697 3084 1428 2787 
Q 1159 2491 1159 1978 
L 1159 0 
L 581 0 
L 581 3500 
L 1159 3500 
L 1159 2956 
Q 1366 3272 1645 3428 
Q 1925 3584 2291 3584 
Q 2894 3584 3203 3211 
Q 3513 2838 3513 2113 
z
" transform="scale(0.015625)"/>
        <path id="DejaVuSans-6d" d="M 3328 2828 
Q 3544 3216 3844 3400 
Q 4144 3584 4550 3584 
Q 5097 3584 5394 3201 
Q 5691 2819 5691 2113 
L 5691 0 
L 5113 0 
L 5113 2094 
Q 5113 2597 4934 2840 
Q 4756 3084 4391 3084 
Q 3944 3084 3684 2787 
Q 3425 2491 3425 1978 
L 3425 0 
L 2847 0 
L 2847 2094 
Q 2847 2600 2669 2842 
Q 2491 3084 2119 3084 
Q 1678 3084 1418 2786 
Q 1159 2488 1159 1978 
L 1159 0 
L 581 0 
L 581 3500 
L 1159 3500 
L 1159 2956 
Q 1356 3278 1631 3431 
Q 1906 3584 2284 3584 
Q 2666 3584 2933 3390 
Q 3200 3197 3328 2828 
z
" transform="scale(0.015625)"/>
        <path id="DejaVuSans-29" d="M 513 4856 
L 1013 4856 
Q 1481 4119 1714 3412 
Q 1947 2706 1947 2009 
Q 1947 1309 1714 600 
Q 1481 -109 1013 -844 
L 513 -844 
Q 928 -128 1133 580 
Q 1338 1288 1338 2009 
Q 1338 2731 1133 3434 
Q 928 4138 513 4856 
z
" transform="scale(0.015625)"/>
       </defs>
       <use xlink:href="#DejaVuSans-28"/>
       <use xlink:href="#DejaVuSans-73" x="39.013672"/>
       <use xlink:href="#DejaVuSans-74" x="91.113281"/>
       <use xlink:href="#DejaVuSans-65" x="130.322266"/>
       <use xlink:href="#DejaVuSans-70" x="191.845703"/>
       <use xlink:href="#DejaVuSans-20" x="255.322266"/>
       <use xlink:href="#DejaVuSans-77" x="287.109375"/>
       <use xlink:href="#DejaVuSans-69" x="368.896484"/>
       <use xlink:href="#DejaVuSans-64" x="396.679688"/>
       <use xlink:href="#DejaVuSans-74" x="460.15625"/>
       <use xlink:href="#DejaVuSans-68" x="499.365234"/>
       <use xlink:href="#DejaVuSans-3d" x="562.744141"/>
       <use xlink:href="#DejaVuSans-32" x="646.533203"/>
       <use xlink:href="#DejaVuSans-31" x="710.15625"/>
       <use xlink:href="#DejaVuSans-33" x="773.779297"/>
       <use xlink:href="#DejaVuSans-b1" x="837.402344"/>
       <use xlink:href="#DejaVuSans-38" x="921.191406"/>
       <use xlink:href="#DejaVuSans-38" x="984.814453"/>
       <use xlink:href="#DejaVuSans-6e" x="1048.4375"/>
       <use xlink:href="#DejaVuSans-6d" x="1111.816406"/>
       <use xlink:href="#DejaVuSans-29" x="1209.228516"/>
      </g>
     </g>
    </g>
    <g id="xtick_2">
     <g id="line2d_2">
      <g>
       <use xlink:href="#mb2a6538a1e" x="275.360937" y="173.52" style="stroke: #000000; stroke-width: 0.8"/>
      </g>
     </g>
     <g id="text_2">
      <!-- Treated substrate -->
      <g transform="translate(231.492187 188.118438) scale(0.1 -0.1)">
       <use xlink:href="#DejaVuSans-54"/>
       <use xlink:href="#DejaVuSans-72" x="46.333984"/>
       <use xlink:href="#DejaVuSans-65" x="85.197266"/>
       <use xlink:href="#DejaVuSans-61" x="146.720703"/>
       <use xlink:href="#DejaVuSans-74" x="208"/>
       <use xlink:href="#DejaVuSans-65" x="247.208984"/>
       <use xlink:href="#DejaVuSans-64" x="308.732422"/>
       <use xlink:href="#DejaVuSans-20" x="372.208984"/>
       <use xlink:href="#DejaVuSans-73" x="403.996094"/>
       <use xlink:href="#DejaVuSans-75" x="456.095703"/>
       <use xlink:href="#DejaVuSans-62" x="519.474609"/>
       <use xlink:href="#DejaVuSans-73" x="582.951172"/>
       <use xlink:href="#DejaVuSans-74" x="635.050781"/>
       <use xlink:href="#DejaVuSans-72" x="674.259766"/>
       <use xlink:href="#DejaVuSans-61" x="715.373047"/>
       <use xlink:href="#DejaVuSans-74" x="776.652344"/>
       <use xlink:href="#DejaVuSans-65" x="815.861328"/>
      </g>
      <!-- (step width=81±44nm) -->
      <g transform="translate(216.129687 199.31625) scale(0.1 -0.1)">
       <defs>
        <path id="DejaVuSans-34" d="M 2419 4116 
L 825 1625 
L 2419 1625 
L 2419 4116 
z
M 2253 4666 
L 3047 4666 
L 3047 1625 
L 3713 1625 
L 3713 1100 
L 3047 1100 
L 3047 0 
L 2419 0 
L 2419 1100 
L 313 1100 
L 313 1709 
L 2253 4666 
z
" transform="scale(0.015625)"/>
       </defs>
       <use xlink:href="#DejaVuSans-28"/>
       <use xlink:href="#DejaVuSans-73" x="39.013672"/>
       <use xlink:href="#DejaVuSans-74" x="91.113281"/>
       <use xlink:href="#DejaVuSans-65" x="130.322266"/>
       <use xlink:href="#DejaVuSans-70" x="191.845703"/>
       <use xlink:href="#DejaVuSans-20" x="255.322266"/>
       <use xlink:href="#DejaVuSans-77" x="287.109375"/>
       <use xlink:href="#DejaVuSans-69" x="368.896484"/>
       <use xlink:href="#DejaVuSans-64" x="396.679688"/>
       <use xlink:href="#DejaVuSans-74" x="460.15625"/>
       <use xlink:href="#DejaVuSans-68" x="499.365234"/>
       <use xlink:href="#DejaVuSans-3d" x="562.744141"/>
       <use xlink:href="#DejaVuSans-38" x="646.533203"/>
       <use xlink:href="#DejaVuSans-31" x="710.15625"/>
       <use xlink:href="#DejaVuSans-b1" x="773.779297"/>
       <use xlink:href="#DejaVuSans-34" x="857.568359"/>
       <use xlink:href="#DejaVuSans-34" x="921.191406"/>
       <use xlink:href="#DejaVuSans-6e" x="984.814453"/>
       <use xlink:href="#DejaVuSans-6d" x="1048.193359"/>
       <use xlink:href="#DejaVuSans-29" x="1145.605469"/>
      </g>
     </g>
    </g>
    <g id="xtick_3">
     <g id="line2d_3">
      <g>
       <use xlink:href="#mb2a6538a1e" x="424.160937" y="173.52" style="stroke: #000000; stroke-width: 0.8"/>
      </g>
     </g>
     <g id="text_3">
      <!-- Untreated substrate -->
      <g transform="translate(373.820312 188.118438) scale(0.1 -0.1)">
       <defs>
        <path id="DejaVuSans-55" d="M 556 4666 
L 1191 4666 
L 1191 1831 
Q 1191 1081 1462 751 
Q 1734 422 2344 422 
Q 2950 422 3222 751 
Q 3494 1081 3494 1831 
L 3494 4666 
L 4128 4666 
L 4128 1753 
Q 4128 841 3676 375 
Q 3225 -91 2344 -91 
Q 1459 -91 1007 375 
Q 556 841 556 1753 
L 556 4666 
z
" transform="scale(0.015625)"/>
       </defs>
       <use xlink:href="#DejaVuSans-55"/>
       <use xlink:href="#DejaVuSans-6e" x="73.193359"/>
       <use xlink:href="#DejaVuSans-74" x="136.572266"/>
       <use xlink:href="#DejaVuSans-72" x="175.78125"/>
       <use xlink:href="#DejaVuSans-65" x="214.644531"/>
       <use xlink:href="#DejaVuSans-61" x="276.167969"/>
       <use xlink:href="#DejaVuSans-74" x="337.447266"/>
       <use xlink:href="#DejaVuSans-65" x="376.65625"/>
       <use xlink:href="#DejaVuSans-64" x="438.179688"/>
       <use xlink:href="#DejaVuSans-20" x="501.65625"/>
       <use xlink:href="#DejaVuSans-73" x="533.443359"/>
       <use xlink:href="#DejaVuSans-75" x="585.542969"/>
       <use xlink:href="#DejaVuSans-62" x="648.921875"/>
       <use xlink:href="#DejaVuSans-73" x="712.398438"/>
       <use xlink:href="#DejaVuSans-74" x="764.498047"/>
       <use xlink:href="#DejaVuSans-72" x="803.707031"/>
       <use xlink:href="#DejaVuSans-61" x="844.820312"/>
       <use xlink:href="#DejaVuSans-74" x="906.099609"/>
       <use xlink:href="#DejaVuSans-65" x="945.308594"/>
      </g>
      <!-- (step width=162±83μm) -->
      <g transform="translate(361.735937 199.31625) scale(0.1 -0.1)">
       <defs>
        <path id="DejaVuSans-36" d="M 2113 2584 
Q 1688 2584 1439 2293 
Q 1191 2003 1191 1497 
Q 1191 994 1439 701 
Q 1688 409 2113 409 
Q 2538 409 2786 701 
Q 3034 994 3034 1497 
Q 3034 2003 2786 2293 
Q 2538 2584 2113 2584 
z
M 3366 4563 
L 3366 3988 
Q 3128 4100 2886 4159 
Q 2644 4219 2406 4219 
Q 1781 4219 1451 3797 
Q 1122 3375 1075 2522 
Q 1259 2794 1537 2939 
Q 1816 3084 2150 3084 
Q 2853 3084 3261 2657 
Q 3669 2231 3669 1497 
Q 3669 778 3244 343 
Q 2819 -91 2113 -91 
Q 1303 -91 875 529 
Q 447 1150 447 2328 
Q 447 3434 972 4092 
Q 1497 4750 2381 4750 
Q 2619 4750 2861 4703 
Q 3103 4656 3366 4563 
z
" transform="scale(0.015625)"/>
        <path id="DejaVuSans-3bc" d="M 544 -1331 
L 544 3500 
L 1119 3500 
L 1119 1325 
Q 1119 872 1334 640 
Q 1550 409 1972 409 
Q 2434 409 2667 671 
Q 2900 934 2900 1459 
L 2900 3500 
L 3475 3500 
L 3475 806 
Q 3475 619 3529 530 
Q 3584 441 3700 441 
Q 3728 441 3778 458 
Q 3828 475 3916 513 
L 3916 50 
Q 3788 -22 3673 -56 
Q 3559 -91 3450 -91 
Q 3234 -91 3106 31 
Q 2978 153 2931 403 
Q 2775 156 2548 32 
Q 2322 -91 2016 -91 
Q 1697 -91 1473 31 
Q 1250 153 1119 397 
L 1119 -1331 
L 544 -1331 
z
" transform="scale(0.015625)"/>
       </defs>
       <use xlink:href="#DejaVuSans-28"/>
       <use xlink:href="#DejaVuSans-73" x="39.013672"/>
       <use xlink:href="#DejaVuSans-74" x="91.113281"/>
       <use xlink:href="#DejaVuSans-65" x="130.322266"/>
       <use xlink:href="#DejaVuSans-70" x="191.845703"/>
       <use xlink:href="#DejaVuSans-20" x="255.322266"/>
       <use xlink:href="#DejaVuSans-77" x="287.109375"/>
       <use xlink:href="#DejaVuSans-69" x="368.896484"/>
       <use xlink:href="#DejaVuSans-64" x="396.679688"/>
       <use xlink:href="#DejaVuSans-74" x="460.15625"/>
       <use xlink:href="#DejaVuSans-68" x="499.365234"/>
       <use xlink:href="#DejaVuSans-3d" x="562.744141"/>
       <use xlink:href="#DejaVuSans-31" x="646.533203"/>
       <use xlink:href="#DejaVuSans-36" x="710.15625"/>
       <use xlink:href="#DejaVuSans-32" x="773.779297"/>
       <use xlink:href="#DejaVuSans-b1" x="837.402344"/>
       <use xlink:href="#DejaVuSans-38" x="921.191406"/>
       <use xlink:href="#DejaVuSans-33" x="984.814453"/>
       <use xlink:href="#DejaVuSans-3bc" x="1048.4375"/>
       <use xlink:href="#DejaVuSans-6d" x="1112.060547"/>
       <use xlink:href="#DejaVuSans-29" x="1209.472656"/>
      </g>
     </g>
    </g>
   </g>
   <g id="matplotlib.axis_2">
    <g id="ytick_1">
     <g id="line2d_4">
      <defs>
       <path id="me5f4db1a2a" d="M 0 0 
L -3.5 0 
" style="stroke: #000000; stroke-width: 0.8"/>
      </defs>
      <g>
       <use xlink:href="#me5f4db1a2a" x="52.160938" y="167.491521" style="stroke: #000000; stroke-width: 0.8"/>
      </g>
     </g>
     <g id="text_4">
      <!-- −0.1 -->
      <g transform="translate(20.878125 171.29074) scale(0.1 -0.1)">
       <defs>
        <path id="DejaVuSans-2212" d="M 678 2272 
L 4684 2272 
L 4684 1741 
L 678 1741 
L 678 2272 
z
" transform="scale(0.015625)"/>
        <path id="DejaVuSans-30" d="M 2034 4250 
Q 1547 4250 1301 3770 
Q 1056 3291 1056 2328 
Q 1056 1369 1301 889 
Q 1547 409 2034 409 
Q 2525 409 2770 889 
Q 3016 1369 3016 2328 
Q 3016 3291 2770 3770 
Q 2525 4250 2034 4250 
z
M 2034 4750 
Q 2819 4750 3233 4129 
Q 3647 3509 3647 2328 
Q 3647 1150 3233 529 
Q 2819 -91 2034 -91 
Q 1250 -91 836 529 
Q 422 1150 422 2328 
Q 422 3509 836 4129 
Q 1250 4750 2034 4750 
z
" transform="scale(0.015625)"/>
        <path id="DejaVuSans-2e" d="M 684 794 
L 1344 794 
L 1344 0 
L 684 0 
L 684 794 
z
" transform="scale(0.015625)"/>
       </defs>
       <use xlink:href="#DejaVuSans-2212"/>
       <use xlink:href="#DejaVuSans-30" x="83.789062"/>
       <use xlink:href="#DejaVuSans-2e" x="147.412109"/>
       <use xlink:href="#DejaVuSans-31" x="179.199219"/>
      </g>
     </g>
    </g>
    <g id="ytick_2">
     <g id="line2d_5">
      <g>
       <use xlink:href="#me5f4db1a2a" x="52.160938" y="146.200735" style="stroke: #000000; stroke-width: 0.8"/>
      </g>
     </g>
     <g id="text_5">
      <!-- 0.0 -->
      <g transform="translate(29.257813 149.999954) scale(0.1 -0.1)">
       <use xlink:href="#DejaVuSans-30"/>
       <use xlink:href="#DejaVuSans-2e" x="63.623047"/>
       <use xlink:href="#DejaVuSans-30" x="95.410156"/>
      </g>
     </g>
    </g>
    <g id="ytick_3">
     <g id="line2d_6">
      <g>
       <use xlink:href="#me5f4db1a2a" x="52.160938" y="124.90995" style="stroke: #000000; stroke-width: 0.8"/>
      </g>
     </g>
     <g id="text_6">
      <!-- 0.1 -->
      <g transform="translate(29.257813 128.709168) scale(0.1 -0.1)">
       <use xlink:href="#DejaVuSans-30"/>
       <use xlink:href="#DejaVuSans-2e" x="63.623047"/>
       <use xlink:href="#DejaVuSans-31" x="95.410156"/>
      </g>
     </g>
    </g>
    <g id="ytick_4">
     <g id="line2d_7">
      <g>
       <use xlink:href="#me5f4db1a2a" x="52.160938" y="103.619164" style="stroke: #000000; stroke-width: 0.8"/>
      </g>
     </g>
     <g id="text_7">
      <!-- 0.2 -->
      <g transform="translate(29.257813 107.418382) scale(0.1 -0.1)">
       <use xlink:href="#DejaVuSans-30"/>
       <use xlink:href="#DejaVuSans-2e" x="63.623047"/>
       <use xlink:href="#DejaVuSans-32" x="95.410156"/>
      </g>
     </g>
    </g>
    <g id="ytick_5">
     <g id="line2d_8">
      <g>
       <use xlink:href="#me5f4db1a2a" x="52.160938" y="82.328378" style="stroke: #000000; stroke-width: 0.8"/>
      </g>
     </g>
     <g id="text_8">
      <!-- 0.3 -->
      <g transform="translate(29.257813 86.127597) scale(0.1 -0.1)">
       <use xlink:href="#DejaVuSans-30"/>
       <use xlink:href="#DejaVuSans-2e" x="63.623047"/>
       <use xlink:href="#DejaVuSans-33" x="95.410156"/>
      </g>
     </g>
    </g>
    <g id="ytick_6">
     <g id="line2d_9">
      <g>
       <use xlink:href="#me5f4db1a2a" x="52.160938" y="61.037592" style="stroke: #000000; stroke-width: 0.8"/>
      </g>
     </g>
     <g id="text_9">
      <!-- 0.4 -->
      <g transform="translate(29.257813 64.836811) scale(0.1 -0.1)">
       <use xlink:href="#DejaVuSans-30"/>
       <use xlink:href="#DejaVuSans-2e" x="63.623047"/>
       <use xlink:href="#DejaVuSans-34" x="95.410156"/>
      </g>
     </g>
    </g>
    <g id="ytick_7">
     <g id="line2d_10">
      <g>
       <use xlink:href="#me5f4db1a2a" x="52.160938" y="39.746806" style="stroke: #000000; stroke-width: 0.8"/>
      </g>
     </g>
     <g id="text_10">
      <!-- 0.5 -->
      <g transform="translate(29.257813 43.546025) scale(0.1 -0.1)">
       <defs>
        <path id="DejaVuSans-35" d="M 691 4666 
L 3169 4666 
L 3169 4134 
L 1269 4134 
L 1269 2991 
Q 1406 3038 1543 3061 
Q 1681 3084 1819 3084 
Q 2600 3084 3056 2656 
Q 3513 2228 3513 1497 
Q 3513 744 3044 326 
Q 2575 -91 1722 -91 
Q 1428 -91 1123 -41 
Q 819 9 494 109 
L 494 744 
Q 775 591 1075 516 
Q 1375 441 1709 441 
Q 2250 441 2565 725 
Q 2881 1009 2881 1497 
Q 2881 1984 2565 2268 
Q 2250 2553 1709 2553 
Q 1456 2553 1204 2497 
Q 953 2441 691 2322 
L 691 4666 
z
" transform="scale(0.015625)"/>
       </defs>
       <use xlink:href="#DejaVuSans-30"/>
       <use xlink:href="#DejaVuSans-2e" x="63.623047"/>
       <use xlink:href="#DejaVuSans-35" x="95.410156"/>
      </g>
     </g>
    </g>
    <g id="ytick_8">
     <g id="line2d_11">
      <g>
       <use xlink:href="#me5f4db1a2a" x="52.160938" y="18.45602" style="stroke: #000000; stroke-width: 0.8"/>
      </g>
     </g>
     <g id="text_11">
      <!-- 0.6 -->
      <g transform="translate(29.257813 22.255239) scale(0.1 -0.1)">
       <use xlink:href="#DejaVuSans-30"/>
       <use xlink:href="#DejaVuSans-2e" x="63.623047"/>
       <use xlink:href="#DejaVuSans-36" x="95.410156"/>
      </g>
     </g>
    </g>
    <g id="text_12">
     <!-- Characteristic Time (s) -->
     <g transform="translate(14.798438 147.055313) rotate(-90) scale(0.1 -0.1)">
      <defs>
       <path id="DejaVuSans-43" d="M 4122 4306 
L 4122 3641 
Q 3803 3938 3442 4084 
Q 3081 4231 2675 4231 
Q 1875 4231 1450 3742 
Q 1025 3253 1025 2328 
Q 1025 1406 1450 917 
Q 1875 428 2675 428 
Q 3081 428 3442 575 
Q 3803 722 4122 1019 
L 4122 359 
Q 3791 134 3420 21 
Q 3050 -91 2638 -91 
Q 1578 -91 968 557 
Q 359 1206 359 2328 
Q 359 3453 968 4101 
Q 1578 4750 2638 4750 
Q 3056 4750 3426 4639 
Q 3797 4528 4122 4306 
z
" transform="scale(0.015625)"/>
       <path id="DejaVuSans-63" d="M 3122 3366 
L 3122 2828 
Q 2878 2963 2633 3030 
Q 2388 3097 2138 3097 
Q 1578 3097 1268 2742 
Q 959 2388 959 1747 
Q 959 1106 1268 751 
Q 1578 397 2138 397 
Q 2388 397 2633 464 
Q 2878 531 3122 666 
L 3122 134 
Q 2881 22 2623 -34 
Q 2366 -91 2075 -91 
Q 1284 -91 818 406 
Q 353 903 353 1747 
Q 353 2603 823 3093 
Q 1294 3584 2113 3584 
Q 2378 3584 2631 3529 
Q 2884 3475 3122 3366 
z
" transform="scale(0.015625)"/>
      </defs>
      <use xlink:href="#DejaVuSans-43"/>
      <use xlink:href="#DejaVuSans-68" x="69.824219"/>
      <use xlink:href="#DejaVuSans-61" x="133.203125"/>
      <use xlink:href="#DejaVuSans-72" x="194.482422"/>
      <use xlink:href="#DejaVuSans-61" x="235.595703"/>
      <use xlink:href="#DejaVuSans-63" x="296.875"/>
      <use xlink:href="#DejaVuSans-74" x="351.855469"/>
      <use xlink:href="#DejaVuSans-65" x="391.064453"/>
      <use xlink:href="#DejaVuSans-72" x="452.587891"/>
      <use xlink:href="#DejaVuSans-69" x="493.701172"/>
      <use xlink:href="#DejaVuSans-73" x="521.484375"/>
      <use xlink:href="#DejaVuSans-74" x="573.583984"/>
      <use xlink:href="#DejaVuSans-69" x="612.792969"/>
      <use xlink:href="#DejaVuSans-63" x="640.576172"/>
      <use xlink:href="#DejaVuSans-20" x="695.556641"/>
      <use xlink:href="#DejaVuSans-54" x="727.34375"/>
      <use xlink:href="#DejaVuSans-69" x="785.302734"/>
      <use xlink:href="#DejaVuSans-6d" x="813.085938"/>
      <use xlink:href="#DejaVuSans-65" x="910.498047"/>
      <use xlink:href="#DejaVuSans-20" x="972.021484"/>
      <use xlink:href="#DejaVuSans-28" x="1003.808594"/>
      <use xlink:href="#DejaVuSans-73" x="1042.822266"/>
      <use xlink:href="#DejaVuSans-29" x="1094.921875"/>
     </g>
    </g>
   </g>
   <g id="line2d_12">
    <path d="M 126.560938 145.803214 
L 126.560938 73.954546 
" clip-path="url(#p7d50b8d2c7)" style="fill: none; stroke: #424242; stroke-width: 0.8; stroke-linecap: square"/>
   </g>
   <g id="line2d_13">
    <path d="M 126.560938 128.821064 
L 126.560938 106.756357 
" clip-path="url(#p7d50b8d2c7)" style="fill: none; stroke: #424242; stroke-width: 2.4; stroke-linecap: square"/>
   </g>
   <g id="line2d_14">
    <path d="M 275.360937 145.987828 
L 275.360937 61.397873 
" clip-path="url(#p7d50b8d2c7)" style="fill: none; stroke: #424242; stroke-width: 0.8; stroke-linecap: square"/>
   </g>
   <g id="line2d_15">
    <path d="M 275.360937 140.715519 
L 275.360937 108.605118 
" clip-path="url(#p7d50b8d2c7)" style="fill: none; stroke: #424242; stroke-width: 2.4; stroke-linecap: square"/>
   </g>
   <g id="line2d_16">
    <path d="M 424.160937 145.228717 
L 424.160937 139.085097 
" clip-path="url(#p7d50b8d2c7)" style="fill: none; stroke: #424242; stroke-width: 0.8; stroke-linecap: square"/>
   </g>
   <g id="line2d_17">
    <path d="M 424.160937 143.189602 
L 424.160937 141.541488 
" clip-path="url(#p7d50b8d2c7)" style="fill: none; stroke: #424242; stroke-width: 2.4; stroke-linecap: square"/>
   </g>
   <g id="patch_3">
    <path d="M 52.160938 173.52 
L 52.160938 7.2 
" style="fill: none; stroke: #000000; stroke-width: 0.8; stroke-linejoin: miter; stroke-linecap: square"/>
   </g>
   <g id="patch_4">
    <path d="M 498.560938 173.52 
L 498.560938 7.2 
" style="fill: none; stroke: #000000; stroke-width: 0.8; stroke-linejoin: miter; stroke-linecap: square"/>
   </g>
   <g id="patch_5">
    <path d="M 52.160938 173.52 
L 498.560937 173.52 
" style="fill: none; stroke: #000000; stroke-width: 0.8; stroke-linejoin: miter; stroke-linecap: square"/>
   </g>
   <g id="patch_6">
    <path d="M 52.160938 7.2 
L 498.560937 7.2 
" style="fill: none; stroke: #000000; stroke-width: 0.8; stroke-linejoin: miter; stroke-linecap: square"/>
   </g>
   <g id="PathCollection_1">
    <defs>
     <path id="mfc1de41465" d="M 0 0.8 
C 0.212162 0.8 0.415664 0.715707 0.565685 0.565685 
C 0.715707 0.415664 0.8 0.212162 0.8 0 
C 0.8 -0.212162 0.715707 -0.415664 0.565685 -0.565685 
C 0.415664 -0.715707 0.212162 -0.8 0 -0.8 
C -0.212162 -0.8 -0.415664 -0.715707 -0.565685 -0.565685 
C -0.715707 -0.415664 -0.8 -0.212162 -0.8 0 
C -0.8 0.212162 -0.715707 0.415664 -0.565685 0.565685 
C -0.415664 0.715707 -0.212162 0.8 0 0.8 
z
" style="stroke: #424242"/>
    </defs>
    <g clip-path="url(#p7d50b8d2c7)">
     <use xlink:href="#mfc1de41465" x="126.560938" y="120.910313" style="fill: #ffffff; stroke: #424242"/>
    </g>
   </g>
   <g id="PathCollection_2">
    <g clip-path="url(#p7d50b8d2c7)">
     <use xlink:href="#mfc1de41465" x="275.360937" y="129.336927" style="fill: #ffffff; stroke: #424242"/>
    </g>
   </g>
   <g id="PathCollection_3">
    <g clip-path="url(#p7d50b8d2c7)">
     <use xlink:href="#mfc1de41465" x="424.160937" y="142.361729" style="fill: #ffffff; stroke: #424242"/>
    </g>
   </g>
   <g id="text_13">
    <!-- 0.1188 -->
    <g transform="translate(129.536938 128.49744) scale(0.14 -0.14)">
     <defs>
      <path id="DejaVuSans-Bold-30" d="M 2944 2338 
Q 2944 3213 2780 3570 
Q 2616 3928 2228 3928 
Q 1841 3928 1675 3570 
Q 1509 3213 1509 2338 
Q 1509 1453 1675 1090 
Q 1841 728 2228 728 
Q 2613 728 2778 1090 
Q 2944 1453 2944 2338 
z
M 4147 2328 
Q 4147 1169 3647 539 
Q 3147 -91 2228 -91 
Q 1306 -91 806 539 
Q 306 1169 306 2328 
Q 306 3491 806 4120 
Q 1306 4750 2228 4750 
Q 3147 4750 3647 4120 
Q 4147 3491 4147 2328 
z
" transform="scale(0.015625)"/>
      <path id="DejaVuSans-Bold-2e" d="M 653 1209 
L 1778 1209 
L 1778 0 
L 653 0 
L 653 1209 
z
" transform="scale(0.015625)"/>
      <path id="DejaVuSans-Bold-31" d="M 750 831 
L 1813 831 
L 1813 3847 
L 722 3622 
L 722 4441 
L 1806 4666 
L 2950 4666 
L 2950 831 
L 4013 831 
L 4013 0 
L 750 0 
L 750 831 
z
" transform="scale(0.015625)"/>
      <path id="DejaVuSans-Bold-38" d="M 2228 2088 
Q 1891 2088 1709 1903 
Q 1528 1719 1528 1375 
Q 1528 1031 1709 848 
Q 1891 666 2228 666 
Q 2563 666 2741 848 
Q 2919 1031 2919 1375 
Q 2919 1722 2741 1905 
Q 2563 2088 2228 2088 
z
M 1350 2484 
Q 925 2613 709 2878 
Q 494 3144 494 3541 
Q 494 4131 934 4440 
Q 1375 4750 2228 4750 
Q 3075 4750 3515 4442 
Q 3956 4134 3956 3541 
Q 3956 3144 3739 2878 
Q 3522 2613 3097 2484 
Q 3572 2353 3814 2058 
Q 4056 1763 4056 1313 
Q 4056 619 3595 264 
Q 3134 -91 2228 -91 
Q 1319 -91 855 264 
Q 391 619 391 1313 
Q 391 1763 633 2058 
Q 875 2353 1350 2484 
z
M 1631 3419 
Q 1631 3141 1786 2991 
Q 1941 2841 2228 2841 
Q 2509 2841 2662 2991 
Q 2816 3141 2816 3419 
Q 2816 3697 2662 3845 
Q 2509 3994 2228 3994 
Q 1941 3994 1786 3844 
Q 1631 3694 1631 3419 
z
" transform="scale(0.015625)"/>
     </defs>
     <use xlink:href="#DejaVuSans-Bold-30"/>
     <use xlink:href="#DejaVuSans-Bold-2e" x="69.580078"/>
     <use xlink:href="#DejaVuSans-Bold-31" x="107.568359"/>
     <use xlink:href="#DejaVuSans-Bold-31" x="177.148438"/>
     <use xlink:href="#DejaVuSans-Bold-38" x="246.728516"/>
     <use xlink:href="#DejaVuSans-Bold-38" x="316.308594"/>
    </g>
   </g>
   <g id="text_14">
    <!-- 0.0792 -->
    <g transform="translate(278.336937 134.39607) scale(0.14 -0.14)">
     <defs>
      <path id="DejaVuSans-Bold-37" d="M 428 4666 
L 3944 4666 
L 3944 3988 
L 2125 0 
L 953 0 
L 2675 3781 
L 428 3781 
L 428 4666 
z
" transform="scale(0.015625)"/>
      <path id="DejaVuSans-Bold-39" d="M 641 103 
L 641 966 
Q 928 831 1190 764 
Q 1453 697 1709 697 
Q 2247 697 2547 995 
Q 2847 1294 2900 1881 
Q 2688 1725 2447 1647 
Q 2206 1569 1925 1569 
Q 1209 1569 770 1986 
Q 331 2403 331 3084 
Q 331 3838 820 4291 
Q 1309 4744 2131 4744 
Q 3044 4744 3544 4128 
Q 4044 3513 4044 2388 
Q 4044 1231 3459 570 
Q 2875 -91 1856 -91 
Q 1528 -91 1228 -42 
Q 928 6 641 103 
z
M 2125 2350 
Q 2441 2350 2600 2554 
Q 2759 2759 2759 3169 
Q 2759 3575 2600 3781 
Q 2441 3988 2125 3988 
Q 1809 3988 1650 3781 
Q 1491 3575 1491 3169 
Q 1491 2759 1650 2554 
Q 1809 2350 2125 2350 
z
" transform="scale(0.015625)"/>
      <path id="DejaVuSans-Bold-32" d="M 1844 884 
L 3897 884 
L 3897 0 
L 506 0 
L 506 884 
L 2209 2388 
Q 2438 2594 2547 2791 
Q 2656 2988 2656 3200 
Q 2656 3528 2436 3728 
Q 2216 3928 1850 3928 
Q 1569 3928 1234 3808 
Q 900 3688 519 3450 
L 519 4475 
Q 925 4609 1322 4679 
Q 1719 4750 2100 4750 
Q 2938 4750 3402 4381 
Q 3866 4013 3866 3353 
Q 3866 2972 3669 2642 
Q 3472 2313 2841 1759 
L 1844 884 
z
" transform="scale(0.015625)"/>
     </defs>
     <use xlink:href="#DejaVuSans-Bold-30"/>
     <use xlink:href="#DejaVuSans-Bold-2e" x="69.580078"/>
     <use xlink:href="#DejaVuSans-Bold-30" x="107.568359"/>
     <use xlink:href="#DejaVuSans-Bold-37" x="177.148438"/>
     <use xlink:href="#DejaVuSans-Bold-39" x="246.728516"/>
     <use xlink:href="#DejaVuSans-Bold-32" x="316.308594"/>
    </g>
   </g>
   <g id="text_15">
    <!-- 0.018 -->
    <g transform="translate(427.136937 143.513431) scale(0.14 -0.14)">
     <use xlink:href="#DejaVuSans-Bold-30"/>
     <use xlink:href="#DejaVuSans-Bold-2e" x="69.580078"/>
     <use xlink:href="#DejaVuSans-Bold-30" x="107.568359"/>
     <use xlink:href="#DejaVuSans-Bold-31" x="177.148438"/>
     <use xlink:href="#DejaVuSans-Bold-38" x="246.728516"/>
    </g>
   </g>
  </g>
 </g>
 <defs>
  <clipPath id="p7d50b8d2c7">
   <rect x="52.160938" y="7.2" width="446.4" height="166.32"/>
  </clipPath>
 </defs>
</svg>
