<?xml version="1.0" encoding="utf-8" standalone="no"?>
<!DOCTYPE svg PUBLIC "-//W3C//DTD SVG 1.1//EN"
  "http://www.w3.org/Graphics/SVG/1.1/DTD/svg11.dtd">
<svg xmlns:xlink="http://www.w3.org/1999/xlink" width="1190.182812pt" height="506.99625pt" viewBox="0 0 1190.182812 506.99625" xmlns="http://www.w3.org/2000/svg" version="1.1">
 <metadata>
  <rdf:RDF xmlns:dc="http://purl.org/dc/elements/1.1/" xmlns:cc="http://creativecommons.org/ns#" xmlns:rdf="http://www.w3.org/1999/02/22-rdf-syntax-ns#">
   <cc:Work>
    <dc:type rdf:resource="http://purl.org/dc/dcmitype/StillImage"/>
    <dc:date>2023-01-05T19:43:59.395969</dc:date>
    <dc:format>image/svg+xml</dc:format>
    <dc:creator>
     <cc:Agent>
      <dc:title>Matplotlib v3.6.2, https://matplotlib.org/</dc:title>
     </cc:Agent>
    </dc:creator>
   </cc:Work>
  </rdf:RDF>
 </metadata>
 <defs>
  <style type="text/css">*{stroke-linejoin: round; stroke-linecap: butt}</style>
 </defs>
 <g id="figure_1">
  <g id="patch_1">
   <path d="M 0 506.99625 
L 1190.182812 506.99625 
L 1190.182812 0 
L 0 0 
z
" style="fill: #ffffff"/>
  </g>
  <g id="axes_1">
   <g id="patch_2">
    <path d="M 113.782813 404.64 
L 570.328267 404.64 
L 570.328267 72 
L 113.782813 72 
z
" style="fill: #ffffff"/>
   </g>
   <g id="matplotlib.axis_1">
    <g id="xtick_1">
     <g id="line2d_1">
      <defs>
       <path id="m04e4b07cdb" d="M 0 0 
L 0 3.5 
" style="stroke: #000000; stroke-width: 0.8"/>
      </defs>
      <g>
       <use xlink:href="#m04e4b07cdb" x="134.534879" y="404.64" style="stroke: #000000; stroke-width: 0.8"/>
      </g>
     </g>
     <g id="text_1">
      <!-- 0 -->
      <g transform="translate(131.353629 419.238438) scale(0.1 -0.1)">
       <defs>
        <path id="DejaVuSans-30" d="M 2034 4250 
Q 1547 4250 1301 3770 
Q 1056 3291 1056 2328 
Q 1056 1369 1301 889 
Q 1547 409 2034 409 
Q 2525 409 2770 889 
Q 3016 1369 3016 2328 
Q 3016 3291 2770 3770 
Q 2525 4250 2034 4250 
z
M 2034 4750 
Q 2819 4750 3233 4129 
Q 3647 3509 3647 2328 
Q 3647 1150 3233 529 
Q 2819 -91 2034 -91 
Q 1250 -91 836 529 
Q 422 1150 422 2328 
Q 422 3509 836 4129 
Q 1250 4750 2034 4750 
z
" transform="scale(0.015625)"/>
       </defs>
       <use xlink:href="#DejaVuSans-30"/>
      </g>
     </g>
    </g>
    <g id="xtick_2">
     <g id="line2d_2">
      <g>
       <use xlink:href="#m04e4b07cdb" x="188.859659" y="404.64" style="stroke: #000000; stroke-width: 0.8"/>
      </g>
     </g>
     <g id="text_2">
      <!-- 25 -->
      <g transform="translate(182.497159 419.238438) scale(0.1 -0.1)">
       <defs>
        <path id="DejaVuSans-32" d="M 1228 531 
L 3431 531 
L 3431 0 
L 469 0 
L 469 531 
Q 828 903 1448 1529 
Q 2069 2156 2228 2338 
Q 2531 2678 2651 2914 
Q 2772 3150 2772 3378 
Q 2772 3750 2511 3984 
Q 2250 4219 1831 4219 
Q 1534 4219 1204 4116 
Q 875 4013 500 3803 
L 500 4441 
Q 881 4594 1212 4672 
Q 1544 4750 1819 4750 
Q 2544 4750 2975 4387 
Q 3406 4025 3406 3419 
Q 3406 3131 3298 2873 
Q 3191 2616 2906 2266 
Q 2828 2175 2409 1742 
Q 1991 1309 1228 531 
z
" transform="scale(0.015625)"/>
        <path id="DejaVuSans-35" d="M 691 4666 
L 3169 4666 
L 3169 4134 
L 1269 4134 
L 1269 2991 
Q 1406 3038 1543 3061 
Q 1681 3084 1819 3084 
Q 2600 3084 3056 2656 
Q 3513 2228 3513 1497 
Q 3513 744 3044 326 
Q 2575 -91 1722 -91 
Q 1428 -91 1123 -41 
Q 819 9 494 109 
L 494 744 
Q 775 591 1075 516 
Q 1375 441 1709 441 
Q 2250 441 2565 725 
Q 2881 1009 2881 1497 
Q 2881 1984 2565 2268 
Q 2250 2553 1709 2553 
Q 1456 2553 1204 2497 
Q 953 2441 691 2322 
L 691 4666 
z
" transform="scale(0.015625)"/>
       </defs>
       <use xlink:href="#DejaVuSans-32"/>
       <use xlink:href="#DejaVuSans-35" x="63.623047"/>
      </g>
     </g>
    </g>
    <g id="xtick_3">
     <g id="line2d_3">
      <g>
       <use xlink:href="#m04e4b07cdb" x="243.184439" y="404.64" style="stroke: #000000; stroke-width: 0.8"/>
      </g>
     </g>
     <g id="text_3">
      <!-- 50 -->
      <g transform="translate(236.821939 419.238438) scale(0.1 -0.1)">
       <use xlink:href="#DejaVuSans-35"/>
       <use xlink:href="#DejaVuSans-30" x="63.623047"/>
      </g>
     </g>
    </g>
    <g id="xtick_4">
     <g id="line2d_4">
      <g>
       <use xlink:href="#m04e4b07cdb" x="297.50922" y="404.64" style="stroke: #000000; stroke-width: 0.8"/>
      </g>
     </g>
     <g id="text_4">
      <!-- 75 -->
      <g transform="translate(291.14672 419.238438) scale(0.1 -0.1)">
       <defs>
        <path id="DejaVuSans-37" d="M 525 4666 
L 3525 4666 
L 3525 4397 
L 1831 0 
L 1172 0 
L 2766 4134 
L 525 4134 
L 525 4666 
z
" transform="scale(0.015625)"/>
       </defs>
       <use xlink:href="#DejaVuSans-37"/>
       <use xlink:href="#DejaVuSans-35" x="63.623047"/>
      </g>
     </g>
    </g>
    <g id="xtick_5">
     <g id="line2d_5">
      <g>
       <use xlink:href="#m04e4b07cdb" x="351.834" y="404.64" style="stroke: #000000; stroke-width: 0.8"/>
      </g>
     </g>
     <g id="text_5">
      <!-- 100 -->
      <g transform="translate(342.29025 419.238438) scale(0.1 -0.1)">
       <defs>
        <path id="DejaVuSans-31" d="M 794 531 
L 1825 531 
L 1825 4091 
L 703 3866 
L 703 4441 
L 1819 4666 
L 2450 4666 
L 2450 531 
L 3481 531 
L 3481 0 
L 794 0 
L 794 531 
z
" transform="scale(0.015625)"/>
       </defs>
       <use xlink:href="#DejaVuSans-31"/>
       <use xlink:href="#DejaVuSans-30" x="63.623047"/>
       <use xlink:href="#DejaVuSans-30" x="127.246094"/>
      </g>
     </g>
    </g>
    <g id="xtick_6">
     <g id="line2d_6">
      <g>
       <use xlink:href="#m04e4b07cdb" x="406.158781" y="404.64" style="stroke: #000000; stroke-width: 0.8"/>
      </g>
     </g>
     <g id="text_6">
      <!-- 125 -->
      <g transform="translate(396.615031 419.238438) scale(0.1 -0.1)">
       <use xlink:href="#DejaVuSans-31"/>
       <use xlink:href="#DejaVuSans-32" x="63.623047"/>
       <use xlink:href="#DejaVuSans-35" x="127.246094"/>
      </g>
     </g>
    </g>
    <g id="xtick_7">
     <g id="line2d_7">
      <g>
       <use xlink:href="#m04e4b07cdb" x="460.483561" y="404.64" style="stroke: #000000; stroke-width: 0.8"/>
      </g>
     </g>
     <g id="text_7">
      <!-- 150 -->
      <g transform="translate(450.939811 419.238438) scale(0.1 -0.1)">
       <use xlink:href="#DejaVuSans-31"/>
       <use xlink:href="#DejaVuSans-35" x="63.623047"/>
       <use xlink:href="#DejaVuSans-30" x="127.246094"/>
      </g>
     </g>
    </g>
    <g id="xtick_8">
     <g id="line2d_8">
      <g>
       <use xlink:href="#m04e4b07cdb" x="514.808341" y="404.64" style="stroke: #000000; stroke-width: 0.8"/>
      </g>
     </g>
     <g id="text_8">
      <!-- 175 -->
      <g transform="translate(505.264591 419.238438) scale(0.1 -0.1)">
       <use xlink:href="#DejaVuSans-31"/>
       <use xlink:href="#DejaVuSans-37" x="63.623047"/>
       <use xlink:href="#DejaVuSans-35" x="127.246094"/>
      </g>
     </g>
    </g>
    <g id="xtick_9">
     <g id="line2d_9">
      <g>
       <use xlink:href="#m04e4b07cdb" x="569.133122" y="404.64" style="stroke: #000000; stroke-width: 0.8"/>
      </g>
     </g>
     <g id="text_9">
      <!-- 200 -->
      <g transform="translate(559.589372 419.238438) scale(0.1 -0.1)">
       <use xlink:href="#DejaVuSans-32"/>
       <use xlink:href="#DejaVuSans-30" x="63.623047"/>
       <use xlink:href="#DejaVuSans-30" x="127.246094"/>
      </g>
     </g>
    </g>
    <g id="text_10">
     <!-- Voltage Steps -->
     <g transform="translate(307.720384 432.916563) scale(0.1 -0.1)">
      <defs>
       <path id="DejaVuSans-56" d="M 1831 0 
L 50 4666 
L 709 4666 
L 2188 738 
L 3669 4666 
L 4325 4666 
L 2547 0 
L 1831 0 
z
" transform="scale(0.015625)"/>
       <path id="DejaVuSans-6f" d="M 1959 3097 
Q 1497 3097 1228 2736 
Q 959 2375 959 1747 
Q 959 1119 1226 758 
Q 1494 397 1959 397 
Q 2419 397 2687 759 
Q 2956 1122 2956 1747 
Q 2956 2369 2687 2733 
Q 2419 3097 1959 3097 
z
M 1959 3584 
Q 2709 3584 3137 3096 
Q 3566 2609 3566 1747 
Q 3566 888 3137 398 
Q 2709 -91 1959 -91 
Q 1206 -91 779 398 
Q 353 888 353 1747 
Q 353 2609 779 3096 
Q 1206 3584 1959 3584 
z
" transform="scale(0.015625)"/>
       <path id="DejaVuSans-6c" d="M 603 4863 
L 1178 4863 
L 1178 0 
L 603 0 
L 603 4863 
z
" transform="scale(0.015625)"/>
       <path id="DejaVuSans-74" d="M 1172 4494 
L 1172 3500 
L 2356 3500 
L 2356 3053 
L 1172 3053 
L 1172 1153 
Q 1172 725 1289 603 
Q 1406 481 1766 481 
L 2356 481 
L 2356 0 
L 1766 0 
Q 1100 0 847 248 
Q 594 497 594 1153 
L 594 3053 
L 172 3053 
L 172 3500 
L 594 3500 
L 594 4494 
L 1172 4494 
z
" transform="scale(0.015625)"/>
       <path id="DejaVuSans-61" d="M 2194 1759 
Q 1497 1759 1228 1600 
Q 959 1441 959 1056 
Q 959 750 1161 570 
Q 1363 391 1709 391 
Q 2188 391 2477 730 
Q 2766 1069 2766 1631 
L 2766 1759 
L 2194 1759 
z
M 3341 1997 
L 3341 0 
L 2766 0 
L 2766 531 
Q 2569 213 2275 61 
Q 1981 -91 1556 -91 
Q 1019 -91 701 211 
Q 384 513 384 1019 
Q 384 1609 779 1909 
Q 1175 2209 1959 2209 
L 2766 2209 
L 2766 2266 
Q 2766 2663 2505 2880 
Q 2244 3097 1772 3097 
Q 1472 3097 1187 3025 
Q 903 2953 641 2809 
L 641 3341 
Q 956 3463 1253 3523 
Q 1550 3584 1831 3584 
Q 2591 3584 2966 3190 
Q 3341 2797 3341 1997 
z
" transform="scale(0.015625)"/>
       <path id="DejaVuSans-67" d="M 2906 1791 
Q 2906 2416 2648 2759 
Q 2391 3103 1925 3103 
Q 1463 3103 1205 2759 
Q 947 2416 947 1791 
Q 947 1169 1205 825 
Q 1463 481 1925 481 
Q 2391 481 2648 825 
Q 2906 1169 2906 1791 
z
M 3481 434 
Q 3481 -459 3084 -895 
Q 2688 -1331 1869 -1331 
Q 1566 -1331 1297 -1286 
Q 1028 -1241 775 -1147 
L 775 -588 
Q 1028 -725 1275 -790 
Q 1522 -856 1778 -856 
Q 2344 -856 2625 -561 
Q 2906 -266 2906 331 
L 2906 616 
Q 2728 306 2450 153 
Q 2172 0 1784 0 
Q 1141 0 747 490 
Q 353 981 353 1791 
Q 353 2603 747 3093 
Q 1141 3584 1784 3584 
Q 2172 3584 2450 3431 
Q 2728 3278 2906 2969 
L 2906 3500 
L 3481 3500 
L 3481 434 
z
" transform="scale(0.015625)"/>
       <path id="DejaVuSans-65" d="M 3597 1894 
L 3597 1613 
L 953 1613 
Q 991 1019 1311 708 
Q 1631 397 2203 397 
Q 2534 397 2845 478 
Q 3156 559 3463 722 
L 3463 178 
Q 3153 47 2828 -22 
Q 2503 -91 2169 -91 
Q 1331 -91 842 396 
Q 353 884 353 1716 
Q 353 2575 817 3079 
Q 1281 3584 2069 3584 
Q 2775 3584 3186 3129 
Q 3597 2675 3597 1894 
z
M 3022 2063 
Q 3016 2534 2758 2815 
Q 2500 3097 2075 3097 
Q 1594 3097 1305 2825 
Q 1016 2553 972 2059 
L 3022 2063 
z
" transform="scale(0.015625)"/>
       <path id="DejaVuSans-20" transform="scale(0.015625)"/>
       <path id="DejaVuSans-53" d="M 3425 4513 
L 3425 3897 
Q 3066 4069 2747 4153 
Q 2428 4238 2131 4238 
Q 1616 4238 1336 4038 
Q 1056 3838 1056 3469 
Q 1056 3159 1242 3001 
Q 1428 2844 1947 2747 
L 2328 2669 
Q 3034 2534 3370 2195 
Q 3706 1856 3706 1288 
Q 3706 609 3251 259 
Q 2797 -91 1919 -91 
Q 1588 -91 1214 -16 
Q 841 59 441 206 
L 441 856 
Q 825 641 1194 531 
Q 1563 422 1919 422 
Q 2459 422 2753 634 
Q 3047 847 3047 1241 
Q 3047 1584 2836 1778 
Q 2625 1972 2144 2069 
L 1759 2144 
Q 1053 2284 737 2584 
Q 422 2884 422 3419 
Q 422 4038 858 4394 
Q 1294 4750 2059 4750 
Q 2388 4750 2728 4690 
Q 3069 4631 3425 4513 
z
" transform="scale(0.015625)"/>
       <path id="DejaVuSans-70" d="M 1159 525 
L 1159 -1331 
L 581 -1331 
L 581 3500 
L 1159 3500 
L 1159 2969 
Q 1341 3281 1617 3432 
Q 1894 3584 2278 3584 
Q 2916 3584 3314 3078 
Q 3713 2572 3713 1747 
Q 3713 922 3314 415 
Q 2916 -91 2278 -91 
Q 1894 -91 1617 61 
Q 1341 213 1159 525 
z
M 3116 1747 
Q 3116 2381 2855 2742 
Q 2594 3103 2138 3103 
Q 1681 3103 1420 2742 
Q 1159 2381 1159 1747 
Q 1159 1113 1420 752 
Q 1681 391 2138 391 
Q 2594 391 2855 752 
Q 3116 1113 3116 1747 
z
" transform="scale(0.015625)"/>
       <path id="DejaVuSans-73" d="M 2834 3397 
L 2834 2853 
Q 2591 2978 2328 3040 
Q 2066 3103 1784 3103 
Q 1356 3103 1142 2972 
Q 928 2841 928 2578 
Q 928 2378 1081 2264 
Q 1234 2150 1697 2047 
L 1894 2003 
Q 2506 1872 2764 1633 
Q 3022 1394 3022 966 
Q 3022 478 2636 193 
Q 2250 -91 1575 -91 
Q 1294 -91 989 -36 
Q 684 19 347 128 
L 347 722 
Q 666 556 975 473 
Q 1284 391 1588 391 
Q 1994 391 2212 530 
Q 2431 669 2431 922 
Q 2431 1156 2273 1281 
Q 2116 1406 1581 1522 
L 1381 1569 
Q 847 1681 609 1914 
Q 372 2147 372 2553 
Q 372 3047 722 3315 
Q 1072 3584 1716 3584 
Q 2034 3584 2315 3537 
Q 2597 3491 2834 3397 
z
" transform="scale(0.015625)"/>
      </defs>
      <use xlink:href="#DejaVuSans-56"/>
      <use xlink:href="#DejaVuSans-6f" x="60.658203"/>
      <use xlink:href="#DejaVuSans-6c" x="121.839844"/>
      <use xlink:href="#DejaVuSans-74" x="149.623047"/>
      <use xlink:href="#DejaVuSans-61" x="188.832031"/>
      <use xlink:href="#DejaVuSans-67" x="250.111328"/>
      <use xlink:href="#DejaVuSans-65" x="313.587891"/>
      <use xlink:href="#DejaVuSans-20" x="375.111328"/>
      <use xlink:href="#DejaVuSans-53" x="406.898438"/>
      <use xlink:href="#DejaVuSans-74" x="470.375"/>
      <use xlink:href="#DejaVuSans-65" x="509.583984"/>
      <use xlink:href="#DejaVuSans-70" x="571.107422"/>
      <use xlink:href="#DejaVuSans-73" x="634.583984"/>
     </g>
    </g>
   </g>
   <g id="matplotlib.axis_2">
    <g id="ytick_1">
     <g id="line2d_10">
      <defs>
       <path id="m166f1b732b" d="M 0 0 
L -3.5 0 
" style="stroke: #000000; stroke-width: 0.8"/>
      </defs>
      <g>
       <use xlink:href="#m166f1b732b" x="113.782813" y="380.07" style="stroke: #000000; stroke-width: 0.8"/>
      </g>
     </g>
     <g id="text_11">
      <!-- −15 -->
      <g transform="translate(85.678125 383.869219) scale(0.1 -0.1)">
       <defs>
        <path id="DejaVuSans-2212" d="M 678 2272 
L 4684 2272 
L 4684 1741 
L 678 1741 
L 678 2272 
z
" transform="scale(0.015625)"/>
       </defs>
       <use xlink:href="#DejaVuSans-2212"/>
       <use xlink:href="#DejaVuSans-31" x="83.789062"/>
       <use xlink:href="#DejaVuSans-35" x="147.412109"/>
      </g>
     </g>
    </g>
    <g id="ytick_2">
     <g id="line2d_11">
      <g>
       <use xlink:href="#m166f1b732b" x="113.782813" y="332.82" style="stroke: #000000; stroke-width: 0.8"/>
      </g>
     </g>
     <g id="text_12">
      <!-- −10 -->
      <g transform="translate(85.678125 336.619219) scale(0.1 -0.1)">
       <use xlink:href="#DejaVuSans-2212"/>
       <use xlink:href="#DejaVuSans-31" x="83.789062"/>
       <use xlink:href="#DejaVuSans-30" x="147.412109"/>
      </g>
     </g>
    </g>
    <g id="ytick_3">
     <g id="line2d_12">
      <g>
       <use xlink:href="#m166f1b732b" x="113.782813" y="285.57" style="stroke: #000000; stroke-width: 0.8"/>
      </g>
     </g>
     <g id="text_13">
      <!-- −5 -->
      <g transform="translate(92.040625 289.369219) scale(0.1 -0.1)">
       <use xlink:href="#DejaVuSans-2212"/>
       <use xlink:href="#DejaVuSans-35" x="83.789062"/>
      </g>
     </g>
    </g>
    <g id="ytick_4">
     <g id="line2d_13">
      <g>
       <use xlink:href="#m166f1b732b" x="113.782813" y="238.32" style="stroke: #000000; stroke-width: 0.8"/>
      </g>
     </g>
     <g id="text_14">
      <!-- 0 -->
      <g transform="translate(100.420313 242.119219) scale(0.1 -0.1)">
       <use xlink:href="#DejaVuSans-30"/>
      </g>
     </g>
    </g>
    <g id="ytick_5">
     <g id="line2d_14">
      <g>
       <use xlink:href="#m166f1b732b" x="113.782813" y="191.07" style="stroke: #000000; stroke-width: 0.8"/>
      </g>
     </g>
     <g id="text_15">
      <!-- 5 -->
      <g transform="translate(100.420313 194.869219) scale(0.1 -0.1)">
       <use xlink:href="#DejaVuSans-35"/>
      </g>
     </g>
    </g>
    <g id="ytick_6">
     <g id="line2d_15">
      <g>
       <use xlink:href="#m166f1b732b" x="113.782813" y="143.82" style="stroke: #000000; stroke-width: 0.8"/>
      </g>
     </g>
     <g id="text_16">
      <!-- 10 -->
      <g transform="translate(94.057813 147.619219) scale(0.1 -0.1)">
       <use xlink:href="#DejaVuSans-31"/>
       <use xlink:href="#DejaVuSans-30" x="63.623047"/>
      </g>
     </g>
    </g>
    <g id="ytick_7">
     <g id="line2d_16">
      <g>
       <use xlink:href="#m166f1b732b" x="113.782813" y="96.57" style="stroke: #000000; stroke-width: 0.8"/>
      </g>
     </g>
     <g id="text_17">
      <!-- 15 -->
      <g transform="translate(94.057813 100.369219) scale(0.1 -0.1)">
       <use xlink:href="#DejaVuSans-31"/>
       <use xlink:href="#DejaVuSans-35" x="63.623047"/>
      </g>
     </g>
    </g>
    <g id="text_18">
     <!-- Voltage (V) -->
     <g transform="translate(79.598438 265.987188) rotate(-90) scale(0.1 -0.1)">
      <defs>
       <path id="DejaVuSans-28" d="M 1984 4856 
Q 1566 4138 1362 3434 
Q 1159 2731 1159 2009 
Q 1159 1288 1364 580 
Q 1569 -128 1984 -844 
L 1484 -844 
Q 1016 -109 783 600 
Q 550 1309 550 2009 
Q 550 2706 781 3412 
Q 1013 4119 1484 4856 
L 1984 4856 
z
" transform="scale(0.015625)"/>
       <path id="DejaVuSans-29" d="M 513 4856 
L 1013 4856 
Q 1481 4119 1714 3412 
Q 1947 2706 1947 2009 
Q 1947 1309 1714 600 
Q 1481 -109 1013 -844 
L 513 -844 
Q 928 -128 1133 580 
Q 1338 1288 1338 2009 
Q 1338 2731 1133 3434 
Q 928 4138 513 4856 
z
" transform="scale(0.015625)"/>
      </defs>
      <use xlink:href="#DejaVuSans-56"/>
      <use xlink:href="#DejaVuSans-6f" x="60.658203"/>
      <use xlink:href="#DejaVuSans-6c" x="121.839844"/>
      <use xlink:href="#DejaVuSans-74" x="149.623047"/>
      <use xlink:href="#DejaVuSans-61" x="188.832031"/>
      <use xlink:href="#DejaVuSans-67" x="250.111328"/>
      <use xlink:href="#DejaVuSans-65" x="313.587891"/>
      <use xlink:href="#DejaVuSans-20" x="375.111328"/>
      <use xlink:href="#DejaVuSans-28" x="406.898438"/>
      <use xlink:href="#DejaVuSans-56" x="445.912109"/>
      <use xlink:href="#DejaVuSans-29" x="514.320312"/>
     </g>
    </g>
   </g>
   <g id="line2d_17">
    <path d="M 134.534879 238.32 
L 136.70787 238.32 
L 138.880861 232.02 
L 141.053852 238.32 
L 143.226843 225.72 
L 145.399835 238.32 
L 147.572826 219.42 
L 149.745817 238.32 
L 151.918808 213.119999 
L 154.0918 238.32 
L 156.264791 206.820001 
L 158.437782 238.32 
L 160.610773 200.52 
L 162.783764 238.32 
L 164.956756 194.220002 
L 167.129747 238.32 
L 169.302738 187.919998 
L 171.475729 238.32 
L 173.648721 181.62 
L 175.821712 238.32 
L 177.994703 175.320002 
L 180.167694 238.32 
L 182.340685 169.019998 
L 184.513677 238.32 
L 186.686668 162.72 
L 188.859659 238.32 
L 191.03265 156.419997 
L 193.205641 238.32 
L 195.378633 150.120003 
L 197.551624 238.32 
L 199.724615 143.82 
L 201.897606 238.32 
L 204.070598 137.519997 
L 206.243589 238.32 
L 208.41658 131.220003 
L 210.589571 238.32 
L 212.762562 124.92 
L 214.935554 238.32 
L 217.108545 118.619997 
L 219.281536 238.32 
L 221.454527 112.320003 
L 223.627518 238.32 
L 225.80051 106.02 
L 227.973501 238.32 
L 230.146492 99.719997 
L 232.319483 238.32 
L 234.492475 93.420003 
L 236.665466 238.32 
L 238.838457 87.12 
L 241.011448 238.32 
L 243.184439 93.420003 
L 245.357431 238.32 
L 247.530422 99.719997 
L 249.703413 238.32 
L 251.876404 106.02 
L 254.049396 238.32 
L 256.222387 112.320003 
L 258.395378 238.32 
L 260.568369 118.619997 
L 262.74136 238.32 
L 264.914352 124.92 
L 267.087343 238.32 
L 269.260334 131.220003 
L 271.433325 238.32 
L 273.606316 137.519997 
L 275.779308 238.32 
L 277.952299 143.82 
L 280.12529 238.32 
L 282.298281 150.120003 
L 284.471273 238.32 
L 286.644264 156.419997 
L 288.817255 238.32 
L 290.990246 162.72 
L 293.163237 238.32 
L 295.336229 169.019998 
L 297.50922 238.32 
L 299.682211 175.320002 
L 301.855202 238.32 
L 304.028193 181.62 
L 306.201185 238.32 
L 308.374176 187.919998 
L 310.547167 238.32 
L 312.720158 194.220002 
L 314.89315 238.32 
L 317.066141 200.52 
L 319.239132 238.32 
L 321.412123 206.820001 
L 323.585114 238.32 
L 325.758106 213.119999 
L 327.931097 238.32 
L 330.104088 219.42 
L 332.277079 238.32 
L 334.450071 225.72 
L 336.623062 238.32 
L 338.796053 232.02 
L 340.969044 238.32 
L 345.315027 238.32 
L 347.488018 244.62 
L 349.661009 238.32 
L 351.834 250.92 
L 354.006991 238.32 
L 356.179983 257.22 
L 358.352974 238.32 
L 360.525965 263.520001 
L 362.698956 238.32 
L 364.871948 269.819999 
L 367.044939 238.32 
L 369.21793 276.12 
L 371.390921 238.32 
L 373.563912 282.419998 
L 375.736904 238.32 
L 377.909895 288.720002 
L 380.082886 238.32 
L 382.255877 295.02 
L 384.428868 238.32 
L 386.60186 301.319998 
L 388.774851 238.32 
L 390.947842 307.620002 
L 393.120833 238.32 
L 395.293825 313.92 
L 397.466816 238.32 
L 399.639807 320.220003 
L 401.812798 238.32 
L 403.985789 326.519997 
L 406.158781 238.32 
L 408.331772 332.82 
L 410.504763 238.32 
L 412.677754 339.120003 
L 414.850746 238.32 
L 417.023737 345.419997 
L 419.196728 238.32 
L 421.369719 351.72 
L 423.54271 238.32 
L 425.715702 358.020003 
L 427.888693 238.32 
L 430.061684 364.319997 
L 432.234675 238.32 
L 434.407666 370.62 
L 436.580658 238.32 
L 438.753649 376.920003 
L 440.92664 238.32 
L 443.099631 383.219997 
L 445.272623 238.32 
L 447.445614 389.52 
L 449.618605 238.32 
L 451.791596 383.219997 
L 453.964587 238.32 
L 456.137579 376.920003 
L 458.31057 238.32 
L 460.483561 370.62 
L 462.656552 238.32 
L 464.829543 364.319997 
L 467.002535 238.32 
L 469.175526 358.020003 
L 471.348517 238.32 
L 473.521508 351.72 
L 475.6945 238.32 
L 477.867491 345.419997 
L 480.040482 238.32 
L 482.213473 339.120003 
L 484.386464 238.32 
L 486.559456 332.82 
L 488.732447 238.32 
L 490.905438 326.519997 
L 493.078429 238.32 
L 495.251421 320.220003 
L 497.424412 238.32 
L 499.597403 313.92 
L 501.770394 238.32 
L 503.943385 307.620002 
L 506.116377 238.32 
L 508.289368 301.319998 
L 510.462359 238.32 
L 512.63535 295.02 
L 514.808341 238.32 
L 516.981333 288.720002 
L 519.154324 238.32 
L 521.327315 282.419998 
L 523.500306 238.32 
L 525.673298 276.12 
L 527.846289 238.32 
L 530.01928 269.819999 
L 532.192271 238.32 
L 534.365262 263.520001 
L 536.538254 238.32 
L 538.711245 257.22 
L 540.884236 238.32 
L 543.057227 250.92 
L 545.230218 238.32 
L 547.40321 244.62 
L 549.576201 238.32 
L 549.576201 238.32 
" clip-path="url(#p8dc1726e3e)" style="fill: none; stroke: #1f77b4; stroke-width: 1.5; stroke-linecap: square"/>
   </g>
   <g id="line2d_18">
    <path d="M 113.782813 238.32 
L 1191.182812 238.32 
" clip-path="url(#p8dc1726e3e)" style="fill: none; stroke-dasharray: 5.55,2.4; stroke-dashoffset: 0; stroke: #000000; stroke-width: 1.5"/>
   </g>
   <g id="patch_3">
    <path d="M 113.782813 404.64 
L 113.782813 72 
" style="fill: none; stroke: #000000; stroke-width: 0.8; stroke-linejoin: miter; stroke-linecap: square"/>
   </g>
   <g id="patch_4">
    <path d="M 570.328267 404.64 
L 570.328267 72 
" style="fill: none; stroke: #000000; stroke-width: 0.8; stroke-linejoin: miter; stroke-linecap: square"/>
   </g>
   <g id="patch_5">
    <path d="M 113.782813 404.64 
L 570.328267 404.64 
" style="fill: none; stroke: #000000; stroke-width: 0.8; stroke-linejoin: miter; stroke-linecap: square"/>
   </g>
   <g id="patch_6">
    <path d="M 113.782813 72 
L 570.328267 72 
" style="fill: none; stroke: #000000; stroke-width: 0.8; stroke-linejoin: miter; stroke-linecap: square"/>
   </g>
  </g>
  <g id="axes_2">
   <g id="patch_7">
    <path d="M 661.637358 404.64 
L 1118.182812 404.64 
L 1118.182812 72 
L 661.637358 72 
z
" style="fill: #ffffff"/>
   </g>
   <g id="matplotlib.axis_3">
    <g id="xtick_10">
     <g id="line2d_19">
      <g>
       <use xlink:href="#m04e4b07cdb" x="695.359465" y="404.64" style="stroke: #000000; stroke-width: 0.8"/>
      </g>
     </g>
     <g id="text_19">
      <!-- −15 -->
      <g transform="translate(684.807122 419.238438) scale(0.1 -0.1)">
       <use xlink:href="#DejaVuSans-2212"/>
       <use xlink:href="#DejaVuSans-31" x="83.789062"/>
       <use xlink:href="#DejaVuSans-35" x="147.412109"/>
      </g>
     </g>
    </g>
    <g id="xtick_11">
     <g id="line2d_20">
      <g>
       <use xlink:href="#m04e4b07cdb" x="760.209672" y="404.64" style="stroke: #000000; stroke-width: 0.8"/>
      </g>
     </g>
     <g id="text_20">
      <!-- −10 -->
      <g transform="translate(749.657328 419.238438) scale(0.1 -0.1)">
       <use xlink:href="#DejaVuSans-2212"/>
       <use xlink:href="#DejaVuSans-31" x="83.789062"/>
       <use xlink:href="#DejaVuSans-30" x="147.412109"/>
      </g>
     </g>
    </g>
    <g id="xtick_12">
     <g id="line2d_21">
      <g>
       <use xlink:href="#m04e4b07cdb" x="825.059879" y="404.64" style="stroke: #000000; stroke-width: 0.8"/>
      </g>
     </g>
     <g id="text_21">
      <!-- −5 -->
      <g transform="translate(817.688785 419.238438) scale(0.1 -0.1)">
       <use xlink:href="#DejaVuSans-2212"/>
       <use xlink:href="#DejaVuSans-35" x="83.789062"/>
      </g>
     </g>
    </g>
    <g id="xtick_13">
     <g id="line2d_22">
      <g>
       <use xlink:href="#m04e4b07cdb" x="889.910085" y="404.64" style="stroke: #000000; stroke-width: 0.8"/>
      </g>
     </g>
     <g id="text_22">
      <!-- 0 -->
      <g transform="translate(886.728835 419.238438) scale(0.1 -0.1)">
       <use xlink:href="#DejaVuSans-30"/>
      </g>
     </g>
    </g>
    <g id="xtick_14">
     <g id="line2d_23">
      <g>
       <use xlink:href="#m04e4b07cdb" x="954.760292" y="404.64" style="stroke: #000000; stroke-width: 0.8"/>
      </g>
     </g>
     <g id="text_23">
      <!-- 5 -->
      <g transform="translate(951.579042 419.238438) scale(0.1 -0.1)">
       <use xlink:href="#DejaVuSans-35"/>
      </g>
     </g>
    </g>
    <g id="xtick_15">
     <g id="line2d_24">
      <g>
       <use xlink:href="#m04e4b07cdb" x="1019.610498" y="404.64" style="stroke: #000000; stroke-width: 0.8"/>
      </g>
     </g>
     <g id="text_24">
      <!-- 10 -->
      <g transform="translate(1013.247998 419.238438) scale(0.1 -0.1)">
       <use xlink:href="#DejaVuSans-31"/>
       <use xlink:href="#DejaVuSans-30" x="63.623047"/>
      </g>
     </g>
    </g>
    <g id="xtick_16">
     <g id="line2d_25">
      <g>
       <use xlink:href="#m04e4b07cdb" x="1084.460705" y="404.64" style="stroke: #000000; stroke-width: 0.8"/>
      </g>
     </g>
     <g id="text_25">
      <!-- 15 -->
      <g transform="translate(1078.098205 419.238438) scale(0.1 -0.1)">
       <use xlink:href="#DejaVuSans-31"/>
       <use xlink:href="#DejaVuSans-35" x="63.623047"/>
      </g>
     </g>
    </g>
    <g id="text_26">
     <!-- Voltage (V) -->
     <g transform="translate(862.242898 432.916563) scale(0.1 -0.1)">
      <use xlink:href="#DejaVuSans-56"/>
      <use xlink:href="#DejaVuSans-6f" x="60.658203"/>
      <use xlink:href="#DejaVuSans-6c" x="121.839844"/>
      <use xlink:href="#DejaVuSans-74" x="149.623047"/>
      <use xlink:href="#DejaVuSans-61" x="188.832031"/>
      <use xlink:href="#DejaVuSans-67" x="250.111328"/>
      <use xlink:href="#DejaVuSans-65" x="313.587891"/>
      <use xlink:href="#DejaVuSans-20" x="375.111328"/>
      <use xlink:href="#DejaVuSans-28" x="406.898438"/>
      <use xlink:href="#DejaVuSans-56" x="445.912109"/>
      <use xlink:href="#DejaVuSans-29" x="514.320312"/>
     </g>
    </g>
   </g>
   <g id="matplotlib.axis_4">
    <g id="ytick_8">
     <g id="line2d_26">
      <g>
       <use xlink:href="#m166f1b732b" x="661.637358" y="402.165359" style="stroke: #000000; stroke-width: 0.8"/>
      </g>
     </g>
    </g>
    <g id="ytick_9">
     <g id="line2d_27">
      <g>
       <use xlink:href="#m166f1b732b" x="661.637358" y="362.748729" style="stroke: #000000; stroke-width: 0.8"/>
      </g>
     </g>
    </g>
    <g id="ytick_10">
     <g id="line2d_28">
      <g>
       <use xlink:href="#m166f1b732b" x="661.637358" y="323.332099" style="stroke: #000000; stroke-width: 0.8"/>
      </g>
     </g>
    </g>
    <g id="ytick_11">
     <g id="line2d_29">
      <g>
       <use xlink:href="#m166f1b732b" x="661.637358" y="283.915469" style="stroke: #000000; stroke-width: 0.8"/>
      </g>
     </g>
    </g>
    <g id="ytick_12">
     <g id="line2d_30">
      <g>
       <use xlink:href="#m166f1b732b" x="661.637358" y="244.498839" style="stroke: #000000; stroke-width: 0.8"/>
      </g>
     </g>
    </g>
    <g id="ytick_13">
     <g id="line2d_31">
      <g>
       <use xlink:href="#m166f1b732b" x="661.637358" y="205.082209" style="stroke: #000000; stroke-width: 0.8"/>
      </g>
     </g>
    </g>
    <g id="ytick_14">
     <g id="line2d_32">
      <g>
       <use xlink:href="#m166f1b732b" x="661.637358" y="165.665579" style="stroke: #000000; stroke-width: 0.8"/>
      </g>
     </g>
    </g>
    <g id="ytick_15">
     <g id="line2d_33">
      <g>
       <use xlink:href="#m166f1b732b" x="661.637358" y="126.248949" style="stroke: #000000; stroke-width: 0.8"/>
      </g>
     </g>
    </g>
    <g id="ytick_16">
     <g id="line2d_34">
      <g>
       <use xlink:href="#m166f1b732b" x="661.637358" y="86.832319" style="stroke: #000000; stroke-width: 0.8"/>
      </g>
     </g>
    </g>
   </g>
   <g id="line2d_35">
    <path d="M 1097.430746 93.926556 
L 1088.784048 87.12 
L 1080.137362 95.412526 
L 1071.490664 98.775412 
L 1062.843965 88.21148 
L 1054.197279 93.659379 
L 1045.550581 94.625874 
L 1036.903883 91.411983 
L 1028.257197 96.048497 
L 1019.610498 101.89699 
L 1010.9638 94.480263 
L 1002.317114 94.149624 
L 993.670416 98.524938 
L 985.023724 107.393747 
L 976.377025 103.850537 
L 967.730333 104.778567 
L 959.083641 103.761046 
L 950.436943 108.922036 
L 941.790251 103.787006 
L 933.143555 108.795354 
L 924.496863 106.371396 
L 915.850168 107.132042 
L 907.203474 105.545224 
L 898.55678 118.588201 
L 889.910085 118.631633 
L 881.263391 120.20823 
L 872.616696 126.802604 
L 863.970003 130.433918 
L 855.323307 142.204116 
L 846.676615 149.403292 
L 838.02992 170.746166 
L 829.383228 197.766208 
L 820.736529 226.476609 
L 812.089837 267.272195 
L 803.443145 300.818095 
L 794.796447 320.792223 
L 786.149755 337.158079 
L 777.503056 341.365371 
L 768.85637 343.789604 
L 760.209672 349.178137 
L 751.562974 357.707027 
L 742.916288 365.953632 
L 734.269589 369.418834 
L 725.622891 368.803294 
L 716.976205 373.939346 
L 708.329507 384.228403 
L 699.682808 378.258838 
L 691.036122 388.633498 
L 682.389424 388.30248 
L 691.036122 387.489523 
L 699.682808 389.52 
L 708.329507 384.889612 
L 716.976205 383.659852 
L 725.622891 381.464274 
L 734.269589 385.089255 
L 742.916288 386.175756 
L 751.562974 380.295658 
L 760.209672 380.274906 
L 768.85637 375.511514 
L 777.503056 377.091002 
L 786.149755 380.246892 
L 794.796447 376.78411 
L 803.443145 371.643046 
L 812.089837 370.743913 
L 820.736529 370.492659 
L 829.383228 373.415546 
L 838.02992 370.235347 
L 846.676615 370.410039 
L 855.323307 366.218595 
L 863.970003 361.824479 
L 872.616696 358.751232 
L 881.263391 355.297512 
L 889.910085 361.066552 
L 898.55678 358.513089 
L 907.203474 361.373088 
L 915.850168 359.506589 
L 924.496863 352.801524 
L 933.143555 342.649129 
L 941.790251 338.520016 
L 950.436943 326.796451 
L 959.083641 315.113317 
L 967.730333 310.101333 
L 976.377025 297.353208 
L 985.023724 289.008558 
L 993.670416 266.665079 
L 1002.317114 243.955163 
L 1010.9638 219.614235 
L 1019.610498 199.852165 
L 1028.257197 183.726691 
L 1036.903883 171.592569 
L 1045.550581 161.936024 
L 1054.197279 149.44747 
L 1062.843965 131.808532 
L 1071.490664 125.347952 
L 1080.137362 117.974164 
L 1088.784048 106.89063 
" clip-path="url(#p383872e508)" style="fill: none; stroke: #0000ff; stroke-width: 1.5; stroke-linecap: square"/>
   </g>
   <g id="line2d_36">
    <path d="M -1 244.498839 
L 1191.182812 244.498839 
" clip-path="url(#p383872e508)" style="fill: none; stroke-dasharray: 5.55,2.4; stroke-dashoffset: 0; stroke: #000000; stroke-width: 1.5"/>
   </g>
   <g id="line2d_37">
    <path d="M 889.910085 404.64 
L 889.910085 72 
" clip-path="url(#p383872e508)" style="fill: none; stroke-dasharray: 5.55,2.4; stroke-dashoffset: 0; stroke: #000000; stroke-width: 1.5"/>
   </g>
   <g id="patch_8">
    <path d="M 661.637358 404.64 
L 661.637358 72 
" style="fill: none; stroke: #000000; stroke-width: 0.8; stroke-linejoin: miter; stroke-linecap: square"/>
   </g>
   <g id="patch_9">
    <path d="M 1118.182812 404.64 
L 1118.182812 72 
" style="fill: none; stroke: #000000; stroke-width: 0.8; stroke-linejoin: miter; stroke-linecap: square"/>
   </g>
   <g id="patch_10">
    <path d="M 661.637358 404.64 
L 1118.182812 404.64 
" style="fill: none; stroke: #000000; stroke-width: 0.8; stroke-linejoin: miter; stroke-linecap: square"/>
   </g>
   <g id="patch_11">
    <path d="M 661.637358 72 
L 1118.182812 72 
" style="fill: none; stroke: #000000; stroke-width: 0.8; stroke-linejoin: miter; stroke-linecap: square"/>
   </g>
  </g>
  <g id="axes_3">
   <g id="patch_12">
    <path d="M 366.502813 192.96 
L 560.902812 192.96 
L 560.902812 84.96 
L 366.502813 84.96 
z
" style="fill: #ffffff"/>
   </g>
   <g id="matplotlib.axis_5">
    <g id="xtick_17">
     <g id="line2d_38">
      <g>
       <use xlink:href="#m04e4b07cdb" x="366.502813" y="192.96" style="stroke: #000000; stroke-width: 0.8"/>
      </g>
     </g>
     <g id="text_27">
      <!-- 60 -->
      <g transform="translate(360.140313 207.558438) scale(0.1 -0.1)">
       <defs>
        <path id="DejaVuSans-36" d="M 2113 2584 
Q 1688 2584 1439 2293 
Q 1191 2003 1191 1497 
Q 1191 994 1439 701 
Q 1688 409 2113 409 
Q 2538 409 2786 701 
Q 3034 994 3034 1497 
Q 3034 2003 2786 2293 
Q 2538 2584 2113 2584 
z
M 3366 4563 
L 3366 3988 
Q 3128 4100 2886 4159 
Q 2644 4219 2406 4219 
Q 1781 4219 1451 3797 
Q 1122 3375 1075 2522 
Q 1259 2794 1537 2939 
Q 1816 3084 2150 3084 
Q 2853 3084 3261 2657 
Q 3669 2231 3669 1497 
Q 3669 778 3244 343 
Q 2819 -91 2113 -91 
Q 1303 -91 875 529 
Q 447 1150 447 2328 
Q 447 3434 972 4092 
Q 1497 4750 2381 4750 
Q 2619 4750 2861 4703 
Q 3103 4656 3366 4563 
z
" transform="scale(0.015625)"/>
       </defs>
       <use xlink:href="#DejaVuSans-36"/>
       <use xlink:href="#DejaVuSans-30" x="63.623047"/>
      </g>
     </g>
    </g>
    <g id="xtick_18">
     <g id="line2d_39">
      <g>
       <use xlink:href="#m04e4b07cdb" x="385.942813" y="192.96" style="stroke: #000000; stroke-width: 0.8"/>
      </g>
     </g>
     <g id="text_28">
      <!-- 62 -->
      <g transform="translate(379.580313 207.558438) scale(0.1 -0.1)">
       <use xlink:href="#DejaVuSans-36"/>
       <use xlink:href="#DejaVuSans-32" x="63.623047"/>
      </g>
     </g>
    </g>
    <g id="xtick_19">
     <g id="line2d_40">
      <g>
       <use xlink:href="#m04e4b07cdb" x="405.382813" y="192.96" style="stroke: #000000; stroke-width: 0.8"/>
      </g>
     </g>
     <g id="text_29">
      <!-- 64 -->
      <g transform="translate(399.020313 207.558438) scale(0.1 -0.1)">
       <defs>
        <path id="DejaVuSans-34" d="M 2419 4116 
L 825 1625 
L 2419 1625 
L 2419 4116 
z
M 2253 4666 
L 3047 4666 
L 3047 1625 
L 3713 1625 
L 3713 1100 
L 3047 1100 
L 3047 0 
L 2419 0 
L 2419 1100 
L 313 1100 
L 313 1709 
L 2253 4666 
z
" transform="scale(0.015625)"/>
       </defs>
       <use xlink:href="#DejaVuSans-36"/>
       <use xlink:href="#DejaVuSans-34" x="63.623047"/>
      </g>
     </g>
    </g>
    <g id="xtick_20">
     <g id="line2d_41">
      <g>
       <use xlink:href="#m04e4b07cdb" x="424.822813" y="192.96" style="stroke: #000000; stroke-width: 0.8"/>
      </g>
     </g>
     <g id="text_30">
      <!-- 66 -->
      <g transform="translate(418.460313 207.558438) scale(0.1 -0.1)">
       <use xlink:href="#DejaVuSans-36"/>
       <use xlink:href="#DejaVuSans-36" x="63.623047"/>
      </g>
     </g>
    </g>
    <g id="xtick_21">
     <g id="line2d_42">
      <g>
       <use xlink:href="#m04e4b07cdb" x="444.262813" y="192.96" style="stroke: #000000; stroke-width: 0.8"/>
      </g>
     </g>
     <g id="text_31">
      <!-- 68 -->
      <g transform="translate(437.900313 207.558438) scale(0.1 -0.1)">
       <defs>
        <path id="DejaVuSans-38" d="M 2034 2216 
Q 1584 2216 1326 1975 
Q 1069 1734 1069 1313 
Q 1069 891 1326 650 
Q 1584 409 2034 409 
Q 2484 409 2743 651 
Q 3003 894 3003 1313 
Q 3003 1734 2745 1975 
Q 2488 2216 2034 2216 
z
M 1403 2484 
Q 997 2584 770 2862 
Q 544 3141 544 3541 
Q 544 4100 942 4425 
Q 1341 4750 2034 4750 
Q 2731 4750 3128 4425 
Q 3525 4100 3525 3541 
Q 3525 3141 3298 2862 
Q 3072 2584 2669 2484 
Q 3125 2378 3379 2068 
Q 3634 1759 3634 1313 
Q 3634 634 3220 271 
Q 2806 -91 2034 -91 
Q 1263 -91 848 271 
Q 434 634 434 1313 
Q 434 1759 690 2068 
Q 947 2378 1403 2484 
z
M 1172 3481 
Q 1172 3119 1398 2916 
Q 1625 2713 2034 2713 
Q 2441 2713 2670 2916 
Q 2900 3119 2900 3481 
Q 2900 3844 2670 4047 
Q 2441 4250 2034 4250 
Q 1625 4250 1398 4047 
Q 1172 3844 1172 3481 
z
" transform="scale(0.015625)"/>
       </defs>
       <use xlink:href="#DejaVuSans-36"/>
       <use xlink:href="#DejaVuSans-38" x="63.623047"/>
      </g>
     </g>
    </g>
    <g id="xtick_22">
     <g id="line2d_43">
      <g>
       <use xlink:href="#m04e4b07cdb" x="463.702813" y="192.96" style="stroke: #000000; stroke-width: 0.8"/>
      </g>
     </g>
     <g id="text_32">
      <!-- 70 -->
      <g transform="translate(457.340313 207.558438) scale(0.1 -0.1)">
       <use xlink:href="#DejaVuSans-37"/>
       <use xlink:href="#DejaVuSans-30" x="63.623047"/>
      </g>
     </g>
    </g>
    <g id="xtick_23">
     <g id="line2d_44">
      <g>
       <use xlink:href="#m04e4b07cdb" x="483.142812" y="192.96" style="stroke: #000000; stroke-width: 0.8"/>
      </g>
     </g>
     <g id="text_33">
      <!-- 72 -->
      <g transform="translate(476.780312 207.558438) scale(0.1 -0.1)">
       <use xlink:href="#DejaVuSans-37"/>
       <use xlink:href="#DejaVuSans-32" x="63.623047"/>
      </g>
     </g>
    </g>
    <g id="xtick_24">
     <g id="line2d_45">
      <g>
       <use xlink:href="#m04e4b07cdb" x="502.582813" y="192.96" style="stroke: #000000; stroke-width: 0.8"/>
      </g>
     </g>
     <g id="text_34">
      <!-- 74 -->
      <g transform="translate(496.220313 207.558438) scale(0.1 -0.1)">
       <use xlink:href="#DejaVuSans-37"/>
       <use xlink:href="#DejaVuSans-34" x="63.623047"/>
      </g>
     </g>
    </g>
    <g id="xtick_25">
     <g id="line2d_46">
      <g>
       <use xlink:href="#m04e4b07cdb" x="522.022813" y="192.96" style="stroke: #000000; stroke-width: 0.8"/>
      </g>
     </g>
     <g id="text_35">
      <!-- 76 -->
      <g transform="translate(515.660313 207.558438) scale(0.1 -0.1)">
       <use xlink:href="#DejaVuSans-37"/>
       <use xlink:href="#DejaVuSans-36" x="63.623047"/>
      </g>
     </g>
    </g>
    <g id="xtick_26">
     <g id="line2d_47">
      <g>
       <use xlink:href="#m04e4b07cdb" x="541.462813" y="192.96" style="stroke: #000000; stroke-width: 0.8"/>
      </g>
     </g>
     <g id="text_36">
      <!-- 78 -->
      <g transform="translate(535.100313 207.558438) scale(0.1 -0.1)">
       <use xlink:href="#DejaVuSans-37"/>
       <use xlink:href="#DejaVuSans-38" x="63.623047"/>
      </g>
     </g>
    </g>
   </g>
   <g id="matplotlib.axis_6">
    <g id="ytick_17">
     <g id="line2d_48">
      <g>
       <use xlink:href="#m166f1b732b" x="366.502813" y="192.96" style="stroke: #000000; stroke-width: 0.8"/>
      </g>
     </g>
     <g id="text_37">
      <!-- 0 -->
      <g transform="translate(353.140313 196.759219) scale(0.1 -0.1)">
       <use xlink:href="#DejaVuSans-30"/>
      </g>
     </g>
    </g>
    <g id="ytick_18">
     <g id="line2d_49">
      <g>
       <use xlink:href="#m166f1b732b" x="366.502813" y="156.96" style="stroke: #000000; stroke-width: 0.8"/>
      </g>
     </g>
     <g id="text_38">
      <!-- 5 -->
      <g transform="translate(353.140313 160.759219) scale(0.1 -0.1)">
       <use xlink:href="#DejaVuSans-35"/>
      </g>
     </g>
    </g>
    <g id="ytick_19">
     <g id="line2d_50">
      <g>
       <use xlink:href="#m166f1b732b" x="366.502813" y="120.96" style="stroke: #000000; stroke-width: 0.8"/>
      </g>
     </g>
     <g id="text_39">
      <!-- 10 -->
      <g transform="translate(346.777813 124.759219) scale(0.1 -0.1)">
       <use xlink:href="#DejaVuSans-31"/>
       <use xlink:href="#DejaVuSans-30" x="63.623047"/>
      </g>
     </g>
    </g>
    <g id="ytick_20">
     <g id="line2d_51">
      <g>
       <use xlink:href="#m166f1b732b" x="366.502813" y="84.96" style="stroke: #000000; stroke-width: 0.8"/>
      </g>
     </g>
     <g id="text_40">
      <!-- 15 -->
      <g transform="translate(346.777813 88.759219) scale(0.1 -0.1)">
       <use xlink:href="#DejaVuSans-31"/>
       <use xlink:href="#DejaVuSans-35" x="63.623047"/>
      </g>
     </g>
    </g>
   </g>
   <g id="line2d_52">
    <path d="M -1 192.96 
L 6.862813 192.96 
L 16.582813 92.16 
L 26.302813 92.16 
L 36.022813 192.96 
L 45.742813 192.96 
L 55.462813 87.359998 
L 65.182813 87.359998 
L 74.902813 192.96 
L 84.622813 192.96 
L 94.342813 82.560002 
L 104.062813 82.560002 
L 113.782813 192.96 
L 123.502813 192.96 
L 133.222813 77.76 
L 142.942813 77.76 
L 152.662813 192.96 
L 162.382813 192.96 
L 172.102813 82.560002 
L 181.822813 82.560002 
L 191.542813 192.96 
L 201.262813 192.96 
L 210.982813 87.359998 
L 220.702813 87.359998 
L 230.422813 192.96 
L 240.142813 192.96 
L 249.862813 92.16 
L 259.582813 92.16 
L 269.302813 192.96 
L 279.022813 192.96 
L 288.742813 96.960002 
L 298.462813 96.960002 
L 308.182813 192.96 
L 317.902813 192.96 
L 327.622813 101.759998 
L 337.342813 101.759998 
L 347.062813 192.96 
L 356.782813 192.96 
L 366.502813 106.56 
L 376.222813 106.56 
L 385.942813 192.96 
L 395.662813 192.96 
L 405.382813 111.360002 
L 415.102813 111.360002 
L 424.822813 192.96 
L 434.542813 192.96 
L 444.262813 116.159998 
L 453.982813 116.159998 
L 463.702813 192.96 
L 473.422813 192.96 
L 483.142812 120.96 
L 492.862813 120.96 
L 502.582813 192.96 
L 512.302813 192.96 
L 522.022813 125.760002 
L 531.742813 125.760002 
L 541.462813 192.96 
L 551.182813 192.96 
L 560.902812 130.559998 
L 570.622813 130.559998 
L 580.342813 192.96 
L 590.062813 192.96 
L 599.782813 135.36 
L 609.502813 135.36 
L 619.222813 192.96 
L 628.942812 192.96 
L 638.662812 140.159999 
L 648.382812 140.159999 
L 658.102813 192.96 
L 667.822813 192.96 
L 677.542813 144.960001 
L 687.262813 144.960001 
L 696.982813 192.96 
L 706.702812 192.96 
L 716.422812 149.76 
L 726.142812 149.76 
L 735.862813 192.96 
L 745.582813 192.96 
L 755.302813 154.559999 
L 765.022813 154.559999 
L 774.742812 192.96 
L 784.462812 192.96 
L 794.182812 159.360001 
L 803.902812 159.360001 
L 813.622813 192.96 
L 823.342813 192.96 
L 833.062813 164.16 
L 842.782813 164.16 
L 852.502812 192.96 
L 862.222812 192.96 
L 871.942812 168.960001 
L 881.662812 168.960001 
L 891.382812 192.96 
L 901.102813 192.96 
L 910.822813 173.759999 
L 920.542812 173.759999 
L 930.262812 192.96 
L 939.982812 192.96 
L 949.702812 178.56 
L 959.422812 178.56 
L 969.142812 192.96 
L 978.862813 192.96 
L 988.582813 183.36 
L 998.302812 183.36 
L 1008.022812 192.96 
L 1017.742812 192.96 
L 1027.462812 188.16 
L 1037.182812 188.16 
L 1046.902812 192.96 
L 1095.502812 192.96 
L 1105.222812 197.76 
L 1114.942812 197.76 
L 1124.662812 192.96 
L 1134.382812 192.96 
L 1144.102812 202.56 
L 1153.822812 202.56 
L 1163.542812 192.96 
L 1173.262812 192.96 
L 1182.982812 207.36 
L 1191.182812 207.36 
L 1191.182812 207.36 
" clip-path="url(#p83d946a170)" style="fill: none; stroke: #1f77b4; stroke-width: 1.5; stroke-linecap: square"/>
   </g>
   <g id="patch_13">
    <path d="M 366.502813 192.96 
L 366.502813 84.96 
" style="fill: none; stroke: #000000; stroke-width: 0.8; stroke-linejoin: miter; stroke-linecap: square"/>
   </g>
   <g id="patch_14">
    <path d="M 560.902812 192.96 
L 560.902812 84.96 
" style="fill: none; stroke: #000000; stroke-width: 0.8; stroke-linejoin: miter; stroke-linecap: square"/>
   </g>
   <g id="patch_15">
    <path d="M 366.502813 192.96 
L 560.902812 192.96 
" style="fill: none; stroke: #000000; stroke-width: 0.8; stroke-linejoin: miter; stroke-linecap: square"/>
   </g>
   <g id="patch_16">
    <path d="M 366.502813 84.96 
L 560.902812 84.96 
" style="fill: none; stroke: #000000; stroke-width: 0.8; stroke-linejoin: miter; stroke-linecap: square"/>
   </g>
  </g>
  <g id="patch_17">
   <path d="M 264.914352 124.92 
Q 313.806654 106.02 362.698956 87.12 
" style="fill: none; stroke: #008000; stroke-linecap: round"/>
  </g>
  <g id="patch_18">
   <path d="M 286.644264 156.419997 
Q 324.67161 176.107498 362.698956 195.795 
" style="fill: none; stroke: #008000; stroke-linecap: round"/>
  </g>
 </g>
 <defs>
  <clipPath id="p8dc1726e3e">
   <rect x="113.782813" y="72" width="456.545455" height="332.64"/>
  </clipPath>
  <clipPath id="p383872e508">
   <rect x="661.637358" y="72" width="456.545455" height="332.64"/>
  </clipPath>
  <clipPath id="p83d946a170">
   <rect x="366.502813" y="84.96" width="194.4" height="108"/>
  </clipPath>
 </defs>
</svg>
