<?xml version="1.0" encoding="utf-8" standalone="no"?>
<!DOCTYPE svg PUBLIC "-//W3C//DTD SVG 1.1//EN"
  "http://www.w3.org/Graphics/SVG/1.1/DTD/svg11.dtd">
<svg xmlns:xlink="http://www.w3.org/1999/xlink" width="733.546875pt" height="727.690625pt" viewBox="0 0 733.546875 727.690625" xmlns="http://www.w3.org/2000/svg" version="1.1">
 <metadata>
  <rdf:RDF xmlns:dc="http://purl.org/dc/elements/1.1/" xmlns:cc="http://creativecommons.org/ns#" xmlns:rdf="http://www.w3.org/1999/02/22-rdf-syntax-ns#">
   <cc:Work>
    <dc:type rdf:resource="http://purl.org/dc/dcmitype/StillImage"/>
    <dc:date>2023-03-24T11:04:31.168676</dc:date>
    <dc:format>image/svg+xml</dc:format>
    <dc:creator>
     <cc:Agent>
      <dc:title>Matplotlib v3.6.2, https://matplotlib.org/</dc:title>
     </cc:Agent>
    </dc:creator>
   </cc:Work>
  </rdf:RDF>
 </metadata>
 <defs>
  <style type="text/css">*{stroke-linejoin: round; stroke-linecap: butt}</style>
 </defs>
 <g id="figure_1">
  <g id="patch_1">
   <path d="M 0 727.690625 
L 733.546875 727.690625 
L 733.546875 -0 
L 0 -0 
z
" style="fill: #ffffff"/>
  </g>
  <g id="axes_1">
   <g id="patch_2">
    <path d="M 103.546875 626.4 
L 661.546875 626.4 
L 661.546875 72 
L 103.546875 72 
z
" style="fill: #ffffff"/>
   </g>
   <g id="patch_3">
    <path d="M 173.296875 326.632425 
L 173.296875 326.632425 
L 173.296875 326.632425 
L 173.296875 326.632425 
z
" clip-path="url(#p43f1afb69c)" style="fill: #3274a1; stroke: #3f3f3f; stroke-width: 0.75; stroke-linejoin: miter"/>
   </g>
   <g id="PolyCollection_1">
    <defs>
     <path id="mf11cf1f2d5" d="M 173.296875 -300.395872 
L 173.218747 -300.395872 
L 172.693875 -302.540464 
L 170.641472 -304.685056 
L 166.290825 -306.829648 
L 161.3232 -308.97424 
L 158.30929 -311.118832 
L 157.167273 -313.263424 
L 156.439412 -315.408016 
L 155.701211 -317.552608 
L 154.915299 -319.6972 
L 153.839584 -321.841792 
L 152.738276 -323.986384 
L 152.234952 -326.130976 
L 152.285786 -328.275568 
L 152.16961 -330.42016 
L 151.422131 -332.564752 
L 150.255049 -334.709344 
L 149.045499 -336.853936 
L 147.937826 -338.998528 
L 146.977725 -341.14312 
L 146.165269 -343.287712 
L 145.423642 -345.432304 
L 144.619253 -347.576896 
L 143.695628 -349.721488 
L 142.774139 -351.86608 
L 141.95067 -354.010672 
L 141.127807 -356.155264 
L 140.195443 -358.299856 
L 139.231741 -360.444448 
L 138.380812 -362.58904 
L 137.709195 -364.733632 
L 137.241388 -366.878224 
L 136.914994 -369.022817 
L 136.655381 -371.167409 
L 136.407493 -373.312001 
L 136.002766 -375.456593 
L 135.292635 -377.601185 
L 134.358808 -379.745777 
L 133.392316 -381.890369 
L 132.462365 -384.034961 
L 131.548066 -386.179553 
L 130.640686 -388.324145 
L 129.800982 -390.468737 
L 129.035796 -392.613329 
L 128.271362 -394.757921 
L 127.519079 -396.902513 
L 126.832317 -399.047105 
L 126.29725 -401.191697 
L 125.965388 -403.336289 
L 125.684006 -405.480881 
L 125.276902 -407.625473 
L 124.67822 -409.770065 
L 123.943195 -411.914657 
L 123.231282 -414.059249 
L 122.491227 -416.203841 
L 121.532919 -418.348433 
L 120.423888 -420.493025 
L 119.387167 -422.637617 
L 118.51932 -424.782209 
L 117.867119 -426.926801 
L 117.496875 -429.071393 
L 117.550439 -431.215985 
L 118.25854 -433.360577 
L 119.622071 -435.505169 
L 121.396808 -437.649761 
L 123.275717 -439.794353 
L 125.104992 -441.938945 
L 126.890828 -444.083537 
L 128.635383 -446.228129 
L 130.428811 -448.372721 
L 132.567834 -450.517313 
L 135.235824 -452.661905 
L 138.094355 -454.806497 
L 140.693744 -456.951089 
L 142.972033 -459.095681 
L 145.077117 -461.240273 
L 147.070566 -463.384865 
L 148.968174 -465.529457 
L 150.825904 -467.674049 
L 152.634955 -469.818641 
L 154.367325 -471.963233 
L 156.026916 -474.107825 
L 157.665789 -476.252417 
L 159.42087 -478.397009 
L 161.294752 -480.541601 
L 163.074737 -482.686194 
L 164.583486 -484.830786 
L 165.802101 -486.975378 
L 166.797627 -489.11997 
L 167.677546 -491.264562 
L 168.574944 -493.409154 
L 169.61227 -495.553746 
L 170.767568 -497.698338 
L 171.841702 -499.84293 
L 172.6152 -501.987522 
L 173.028102 -504.132114 
L 173.199289 -506.276706 
L 173.265108 -508.421298 
L 173.289149 -510.56589 
L 173.295677 -512.710482 
L 173.296875 -512.710482 
L 173.296875 -512.710482 
L 173.296875 -510.56589 
L 173.296875 -508.421298 
L 173.296875 -506.276706 
L 173.296875 -504.132114 
L 173.296875 -501.987522 
L 173.296875 -499.84293 
L 173.296875 -497.698338 
L 173.296875 -495.553746 
L 173.296875 -493.409154 
L 173.296875 -491.264562 
L 173.296875 -489.11997 
L 173.296875 -486.975378 
L 173.296875 -484.830786 
L 173.296875 -482.686194 
L 173.296875 -480.541601 
L 173.296875 -478.397009 
L 173.296875 -476.252417 
L 173.296875 -474.107825 
L 173.296875 -471.963233 
L 173.296875 -469.818641 
L 173.296875 -467.674049 
L 173.296875 -465.529457 
L 173.296875 -463.384865 
L 173.296875 -461.240273 
L 173.296875 -459.095681 
L 173.296875 -456.951089 
L 173.296875 -454.806497 
L 173.296875 -452.661905 
L 173.296875 -450.517313 
L 173.296875 -448.372721 
L 173.296875 -446.228129 
L 173.296875 -444.083537 
L 173.296875 -441.938945 
L 173.296875 -439.794353 
L 173.296875 -437.649761 
L 173.296875 -435.505169 
L 173.296875 -433.360577 
L 173.296875 -431.215985 
L 173.296875 -429.071393 
L 173.296875 -426.926801 
L 173.296875 -424.782209 
L 173.296875 -422.637617 
L 173.296875 -420.493025 
L 173.296875 -418.348433 
L 173.296875 -416.203841 
L 173.296875 -414.059249 
L 173.296875 -411.914657 
L 173.296875 -409.770065 
L 173.296875 -407.625473 
L 173.296875 -405.480881 
L 173.296875 -403.336289 
L 173.296875 -401.191697 
L 173.296875 -399.047105 
L 173.296875 -396.902513 
L 173.296875 -394.757921 
L 173.296875 -392.613329 
L 173.296875 -390.468737 
L 173.296875 -388.324145 
L 173.296875 -386.179553 
L 173.296875 -384.034961 
L 173.296875 -381.890369 
L 173.296875 -379.745777 
L 173.296875 -377.601185 
L 173.296875 -375.456593 
L 173.296875 -373.312001 
L 173.296875 -371.167409 
L 173.296875 -369.022817 
L 173.296875 -366.878224 
L 173.296875 -364.733632 
L 173.296875 -362.58904 
L 173.296875 -360.444448 
L 173.296875 -358.299856 
L 173.296875 -356.155264 
L 173.296875 -354.010672 
L 173.296875 -351.86608 
L 173.296875 -349.721488 
L 173.296875 -347.576896 
L 173.296875 -345.432304 
L 173.296875 -343.287712 
L 173.296875 -341.14312 
L 173.296875 -338.998528 
L 173.296875 -336.853936 
L 173.296875 -334.709344 
L 173.296875 -332.564752 
L 173.296875 -330.42016 
L 173.296875 -328.275568 
L 173.296875 -326.130976 
L 173.296875 -323.986384 
L 173.296875 -321.841792 
L 173.296875 -319.6972 
L 173.296875 -317.552608 
L 173.296875 -315.408016 
L 173.296875 -313.263424 
L 173.296875 -311.118832 
L 173.296875 -308.97424 
L 173.296875 -306.829648 
L 173.296875 -304.685056 
L 173.296875 -302.540464 
L 173.296875 -300.395872 
z
" style="stroke: #3f3f3f; stroke-width: 1.5"/>
    </defs>
    <g clip-path="url(#p43f1afb69c)">
     <use xlink:href="#mf11cf1f2d5" x="0" y="727.690625" style="fill: #3274a1; stroke: #3f3f3f; stroke-width: 1.5"/>
    </g>
   </g>
   <g id="patch_4">
    <path d="M 173.296875 326.632425 
L 173.296875 326.632425 
L 173.296875 326.632425 
L 173.296875 326.632425 
z
" clip-path="url(#p43f1afb69c)" style="fill: #e1812c; stroke: #3f3f3f; stroke-width: 0.75; stroke-linejoin: miter"/>
   </g>
   <g id="PolyCollection_2">
    <defs>
     <path id="m12827a9e71" d="M 175.368039 -306.727712 
L 173.296875 -306.727712 
L 173.296875 -308.970971 
L 173.296875 -311.21423 
L 173.296875 -313.457489 
L 173.296875 -315.700748 
L 173.296875 -317.944007 
L 173.296875 -320.187266 
L 173.296875 -322.430525 
L 173.296875 -324.673784 
L 173.296875 -326.917043 
L 173.296875 -329.160302 
L 173.296875 -331.403561 
L 173.296875 -333.64682 
L 173.296875 -335.890079 
L 173.296875 -338.133338 
L 173.296875 -340.376597 
L 173.296875 -342.619856 
L 173.296875 -344.863115 
L 173.296875 -347.106374 
L 173.296875 -349.349634 
L 173.296875 -351.592893 
L 173.296875 -353.836152 
L 173.296875 -356.079411 
L 173.296875 -358.32267 
L 173.296875 -360.565929 
L 173.296875 -362.809188 
L 173.296875 -365.052447 
L 173.296875 -367.295706 
L 173.296875 -369.538965 
L 173.296875 -371.782224 
L 173.296875 -374.025483 
L 173.296875 -376.268742 
L 173.296875 -378.512001 
L 173.296875 -380.75526 
L 173.296875 -382.998519 
L 173.296875 -385.241778 
L 173.296875 -387.485037 
L 173.296875 -389.728296 
L 173.296875 -391.971555 
L 173.296875 -394.214814 
L 173.296875 -396.458073 
L 173.296875 -398.701333 
L 173.296875 -400.944592 
L 173.296875 -403.187851 
L 173.296875 -405.43111 
L 173.296875 -407.674369 
L 173.296875 -409.917628 
L 173.296875 -412.160887 
L 173.296875 -414.404146 
L 173.296875 -416.647405 
L 173.296875 -418.890664 
L 173.296875 -421.133923 
L 173.296875 -423.377182 
L 173.296875 -425.620441 
L 173.296875 -427.8637 
L 173.296875 -430.106959 
L 173.296875 -432.350218 
L 173.296875 -434.593477 
L 173.296875 -436.836736 
L 173.296875 -439.079995 
L 173.296875 -441.323254 
L 173.296875 -443.566513 
L 173.296875 -445.809772 
L 173.296875 -448.053032 
L 173.296875 -450.296291 
L 173.296875 -452.53955 
L 173.296875 -454.782809 
L 173.296875 -457.026068 
L 173.296875 -459.269327 
L 173.296875 -461.512586 
L 173.296875 -463.755845 
L 173.296875 -465.999104 
L 173.296875 -468.242363 
L 173.296875 -470.485622 
L 173.296875 -472.728881 
L 173.296875 -474.97214 
L 173.296875 -477.215399 
L 173.296875 -479.458658 
L 173.296875 -481.701917 
L 173.296875 -483.945176 
L 173.296875 -486.188435 
L 173.296875 -488.431694 
L 173.296875 -490.674953 
L 173.296875 -492.918212 
L 173.296875 -495.161471 
L 173.296875 -497.404731 
L 173.296875 -499.64799 
L 173.296875 -501.891249 
L 173.296875 -504.134508 
L 173.296875 -506.377767 
L 173.296875 -508.621026 
L 173.296875 -510.864285 
L 173.296875 -513.107544 
L 173.296875 -515.350803 
L 173.296875 -517.594062 
L 173.296875 -519.837321 
L 173.296875 -522.08058 
L 173.296875 -524.323839 
L 173.296875 -526.567098 
L 173.296875 -528.810357 
L 173.297168 -528.810357 
L 173.297168 -528.810357 
L 173.298427 -526.567098 
L 173.301579 -524.323839 
L 173.306404 -522.08058 
L 173.313023 -519.837321 
L 173.325548 -517.594062 
L 173.350445 -515.350803 
L 173.390787 -513.107544 
L 173.456029 -510.864285 
L 173.57174 -508.621026 
L 173.76456 -506.377767 
L 174.057668 -504.134508 
L 174.464695 -501.891249 
L 174.985675 -499.64799 
L 175.606802 -497.404731 
L 176.298524 -495.161471 
L 177.05548 -492.918212 
L 177.89243 -490.674953 
L 178.831795 -488.431694 
L 179.898593 -486.188435 
L 181.100986 -483.945176 
L 182.463048 -481.701917 
L 184.018286 -479.458658 
L 185.795209 -477.215399 
L 187.823709 -474.97214 
L 190.07778 -472.728881 
L 192.440913 -470.485622 
L 194.746576 -468.242363 
L 196.960177 -465.999104 
L 199.179487 -463.755845 
L 201.38371 -461.512586 
L 203.506261 -459.269327 
L 205.654085 -457.026068 
L 207.931318 -454.782809 
L 210.452773 -452.53955 
L 213.207697 -450.296291 
L 215.938921 -448.053032 
L 218.404376 -445.809772 
L 220.480627 -443.566513 
L 222.325877 -441.323254 
L 224.082457 -439.079995 
L 225.572481 -436.836736 
L 226.707832 -434.593477 
L 227.626161 -432.350218 
L 228.380742 -430.106959 
L 228.905571 -427.8637 
L 229.096794 -425.620441 
L 229.028327 -423.377182 
L 228.875596 -421.133923 
L 228.628275 -418.890664 
L 228.241047 -416.647405 
L 227.721496 -414.404146 
L 227.056892 -412.160887 
L 226.299602 -409.917628 
L 225.559605 -407.674369 
L 224.814476 -405.43111 
L 223.945359 -403.187851 
L 223.034536 -400.944592 
L 222.179925 -398.701333 
L 221.209741 -396.458073 
L 220.09024 -394.214814 
L 218.955972 -391.971555 
L 217.778781 -389.728296 
L 216.583668 -387.485037 
L 215.504739 -385.241778 
L 214.492615 -382.998519 
L 213.464881 -380.75526 
L 212.51458 -378.512001 
L 211.740059 -376.268742 
L 211.135047 -374.025483 
L 210.725284 -371.782224 
L 210.498463 -369.538965 
L 210.31689 -367.295706 
L 209.959739 -365.052447 
L 209.371573 -362.809188 
L 208.680366 -360.565929 
L 207.8502 -358.32267 
L 206.864147 -356.079411 
L 205.951464 -353.836152 
L 205.164791 -351.592893 
L 204.357147 -349.349634 
L 203.507294 -347.106374 
L 202.66606 -344.863115 
L 201.932937 -342.619856 
L 201.272671 -340.376597 
L 200.537489 -338.133338 
L 199.757965 -335.890079 
L 198.992304 -333.64682 
L 198.103208 -331.403561 
L 196.81382 -329.160302 
L 194.711951 -326.917043 
L 191.420816 -324.673784 
L 187.026471 -322.430525 
L 182.696319 -320.187266 
L 182.459555 -317.944007 
L 192.665674 -315.700748 
L 205.723641 -313.457489 
L 200.697818 -311.21423 
L 184.281832 -308.970971 
L 175.368039 -306.727712 
z
" style="stroke: #3f3f3f; stroke-width: 1.5"/>
    </defs>
    <g clip-path="url(#p43f1afb69c)">
     <use xlink:href="#m12827a9e71" x="0" y="727.690625" style="fill: #e1812c; stroke: #3f3f3f; stroke-width: 1.5"/>
    </g>
   </g>
   <g id="PolyCollection_3">
    <defs>
     <path id="mf7a40d5389" d="M 312.796875 -243.808998 
L 312.796687 -243.808998 
L 312.794731 -246.111875 
L 312.788356 -248.414752 
L 312.781685 -250.71763 
L 312.774526 -253.020507 
L 312.764262 -255.323384 
L 312.757898 -257.626261 
L 312.756112 -259.929138 
L 312.750677 -262.232015 
L 312.74382 -264.534892 
L 312.731494 -266.837769 
L 312.703987 -269.140646 
L 312.672319 -271.443523 
L 312.63928 -273.7464 
L 312.586809 -276.049277 
L 312.518787 -278.352154 
L 312.435621 -280.655031 
L 312.353971 -282.957909 
L 312.285217 -285.260786 
L 312.217369 -287.563663 
L 312.102292 -289.86654 
L 311.983094 -292.169417 
L 311.877208 -294.472294 
L 311.759904 -296.775171 
L 311.598969 -299.078048 
L 311.346341 -301.380925 
L 311.116148 -303.683802 
L 310.92469 -305.986679 
L 310.706994 -308.289556 
L 310.490872 -310.592433 
L 310.265419 -312.89531 
L 309.889129 -315.198187 
L 309.356524 -317.501065 
L 308.84489 -319.803942 
L 308.328118 -322.106819 
L 307.799494 -324.409696 
L 307.373959 -326.712573 
L 307.019674 -329.01545 
L 306.753307 -331.318327 
L 306.503634 -333.621204 
L 306.119539 -335.924081 
L 305.495742 -338.226958 
L 304.753715 -340.529835 
L 304.042748 -342.832712 
L 303.653878 -345.135589 
L 303.625781 -347.438466 
L 303.358724 -349.741343 
L 302.656091 -352.044221 
L 301.859367 -354.347098 
L 300.854265 -356.649975 
L 299.433754 -358.952852 
L 297.946069 -361.255729 
L 296.737537 -363.558606 
L 295.743316 -365.861483 
L 294.693087 -368.16436 
L 293.235816 -370.467237 
L 291.574245 -372.770114 
L 290.051751 -375.072991 
L 288.410134 -377.375868 
L 286.540251 -379.678745 
L 285.061978 -381.981622 
L 284.299469 -384.284499 
L 283.579879 -386.587377 
L 282.615317 -388.890254 
L 281.576856 -391.193131 
L 280.514835 -393.496008 
L 279.498957 -395.798885 
L 278.386398 -398.101762 
L 276.762557 -400.404639 
L 275.314308 -402.707516 
L 274.293009 -405.010393 
L 273.203333 -407.31327 
L 271.731345 -409.616147 
L 269.469615 -411.919024 
L 266.482612 -414.221901 
L 263.101485 -416.524778 
L 259.841688 -418.827655 
L 257.538916 -421.130533 
L 256.996875 -423.43341 
L 257.886486 -425.736287 
L 258.710714 -428.039164 
L 259.388358 -430.342041 
L 260.318775 -432.644918 
L 262.238831 -434.947795 
L 265.545829 -437.250672 
L 268.180927 -439.553549 
L 270.424624 -441.856426 
L 273.846249 -444.159303 
L 278.595307 -446.46218 
L 283.880495 -448.765057 
L 289.310933 -451.067934 
L 295.177563 -453.370812 
L 301.11925 -455.673689 
L 306.291637 -457.976566 
L 310.035082 -460.279443 
L 311.925484 -462.58232 
L 312.547817 -464.885197 
L 312.73521 -467.188074 
L 312.788046 -469.490951 
L 312.796341 -471.793828 
L 312.796875 -471.793828 
L 312.796875 -471.793828 
L 312.796875 -469.490951 
L 312.796875 -467.188074 
L 312.796875 -464.885197 
L 312.796875 -462.58232 
L 312.796875 -460.279443 
L 312.796875 -457.976566 
L 312.796875 -455.673689 
L 312.796875 -453.370812 
L 312.796875 -451.067934 
L 312.796875 -448.765057 
L 312.796875 -446.46218 
L 312.796875 -444.159303 
L 312.796875 -441.856426 
L 312.796875 -439.553549 
L 312.796875 -437.250672 
L 312.796875 -434.947795 
L 312.796875 -432.644918 
L 312.796875 -430.342041 
L 312.796875 -428.039164 
L 312.796875 -425.736287 
L 312.796875 -423.43341 
L 312.796875 -421.130533 
L 312.796875 -418.827655 
L 312.796875 -416.524778 
L 312.796875 -414.221901 
L 312.796875 -411.919024 
L 312.796875 -409.616147 
L 312.796875 -407.31327 
L 312.796875 -405.010393 
L 312.796875 -402.707516 
L 312.796875 -400.404639 
L 312.796875 -398.101762 
L 312.796875 -395.798885 
L 312.796875 -393.496008 
L 312.796875 -391.193131 
L 312.796875 -388.890254 
L 312.796875 -386.587377 
L 312.796875 -384.284499 
L 312.796875 -381.981622 
L 312.796875 -379.678745 
L 312.796875 -377.375868 
L 312.796875 -375.072991 
L 312.796875 -372.770114 
L 312.796875 -370.467237 
L 312.796875 -368.16436 
L 312.796875 -365.861483 
L 312.796875 -363.558606 
L 312.796875 -361.255729 
L 312.796875 -358.952852 
L 312.796875 -356.649975 
L 312.796875 -354.347098 
L 312.796875 -352.044221 
L 312.796875 -349.741343 
L 312.796875 -347.438466 
L 312.796875 -345.135589 
L 312.796875 -342.832712 
L 312.796875 -340.529835 
L 312.796875 -338.226958 
L 312.796875 -335.924081 
L 312.796875 -333.621204 
L 312.796875 -331.318327 
L 312.796875 -329.01545 
L 312.796875 -326.712573 
L 312.796875 -324.409696 
L 312.796875 -322.106819 
L 312.796875 -319.803942 
L 312.796875 -317.501065 
L 312.796875 -315.198187 
L 312.796875 -312.89531 
L 312.796875 -310.592433 
L 312.796875 -308.289556 
L 312.796875 -305.986679 
L 312.796875 -303.683802 
L 312.796875 -301.380925 
L 312.796875 -299.078048 
L 312.796875 -296.775171 
L 312.796875 -294.472294 
L 312.796875 -292.169417 
L 312.796875 -289.86654 
L 312.796875 -287.563663 
L 312.796875 -285.260786 
L 312.796875 -282.957909 
L 312.796875 -280.655031 
L 312.796875 -278.352154 
L 312.796875 -276.049277 
L 312.796875 -273.7464 
L 312.796875 -271.443523 
L 312.796875 -269.140646 
L 312.796875 -266.837769 
L 312.796875 -264.534892 
L 312.796875 -262.232015 
L 312.796875 -259.929138 
L 312.796875 -257.626261 
L 312.796875 -255.323384 
L 312.796875 -253.020507 
L 312.796875 -250.71763 
L 312.796875 -248.414752 
L 312.796875 -246.111875 
L 312.796875 -243.808998 
z
" style="stroke: #3f3f3f; stroke-width: 1.5"/>
    </defs>
    <g clip-path="url(#p43f1afb69c)">
     <use xlink:href="#mf7a40d5389" x="0" y="727.690625" style="fill: #3274a1; stroke: #3f3f3f; stroke-width: 1.5"/>
    </g>
   </g>
   <g id="PolyCollection_4">
    <defs>
     <path id="ma7edf9a172" d="M 312.796958 -222.864224 
L 312.796875 -222.864224 
L 312.796875 -225.650854 
L 312.796875 -228.437484 
L 312.796875 -231.224114 
L 312.796875 -234.010744 
L 312.796875 -236.797374 
L 312.796875 -239.584004 
L 312.796875 -242.370634 
L 312.796875 -245.157264 
L 312.796875 -247.943894 
L 312.796875 -250.730524 
L 312.796875 -253.517154 
L 312.796875 -256.303784 
L 312.796875 -259.090414 
L 312.796875 -261.877044 
L 312.796875 -264.663674 
L 312.796875 -267.450304 
L 312.796875 -270.236934 
L 312.796875 -273.023564 
L 312.796875 -275.810194 
L 312.796875 -278.596824 
L 312.796875 -281.383454 
L 312.796875 -284.170084 
L 312.796875 -286.956714 
L 312.796875 -289.743345 
L 312.796875 -292.529975 
L 312.796875 -295.316605 
L 312.796875 -298.103235 
L 312.796875 -300.889865 
L 312.796875 -303.676495 
L 312.796875 -306.463125 
L 312.796875 -309.249755 
L 312.796875 -312.036385 
L 312.796875 -314.823015 
L 312.796875 -317.609645 
L 312.796875 -320.396275 
L 312.796875 -323.182905 
L 312.796875 -325.969535 
L 312.796875 -328.756165 
L 312.796875 -331.542795 
L 312.796875 -334.329425 
L 312.796875 -337.116055 
L 312.796875 -339.902685 
L 312.796875 -342.689315 
L 312.796875 -345.475945 
L 312.796875 -348.262575 
L 312.796875 -351.049205 
L 312.796875 -353.835835 
L 312.796875 -356.622465 
L 312.796875 -359.409095 
L 312.796875 -362.195725 
L 312.796875 -364.982356 
L 312.796875 -367.768986 
L 312.796875 -370.555616 
L 312.796875 -373.342246 
L 312.796875 -376.128876 
L 312.796875 -378.915506 
L 312.796875 -381.702136 
L 312.796875 -384.488766 
L 312.796875 -387.275396 
L 312.796875 -390.062026 
L 312.796875 -392.848656 
L 312.796875 -395.635286 
L 312.796875 -398.421916 
L 312.796875 -401.208546 
L 312.796875 -403.995176 
L 312.796875 -406.781806 
L 312.796875 -409.568436 
L 312.796875 -412.355066 
L 312.796875 -415.141696 
L 312.796875 -417.928326 
L 312.796875 -420.714956 
L 312.796875 -423.501586 
L 312.796875 -426.288216 
L 312.796875 -429.074846 
L 312.796875 -431.861476 
L 312.796875 -434.648106 
L 312.796875 -437.434736 
L 312.796875 -440.221367 
L 312.796875 -443.007997 
L 312.796875 -445.794627 
L 312.796875 -448.581257 
L 312.796875 -451.367887 
L 312.796875 -454.154517 
L 312.796875 -456.941147 
L 312.796875 -459.727777 
L 312.796875 -462.514407 
L 312.796875 -465.301037 
L 312.796875 -468.087667 
L 312.796875 -470.874297 
L 312.796875 -473.660927 
L 312.796875 -476.447557 
L 312.796875 -479.234187 
L 312.796875 -482.020817 
L 312.796875 -484.807447 
L 312.796875 -487.594077 
L 312.796875 -490.380707 
L 312.796875 -493.167337 
L 312.796875 -495.953967 
L 312.796875 -498.740597 
L 312.796935 -498.740597 
L 312.796935 -498.740597 
L 312.797165 -495.953967 
L 312.797309 -493.167337 
L 312.79709 -490.380707 
L 312.797084 -487.594077 
L 312.79755 -484.807447 
L 312.797718 -482.020817 
L 312.797573 -479.234187 
L 312.798622 -476.447557 
L 312.801402 -473.660927 
L 312.811635 -470.874297 
L 312.876288 -468.087667 
L 313.211984 -465.301037 
L 314.345298 -462.514407 
L 316.939058 -459.727777 
L 321.342913 -456.941147 
L 327.260917 -454.154517 
L 334.319887 -451.367887 
L 342.171126 -448.581257 
L 349.853524 -445.794627 
L 356.404749 -443.007997 
L 361.544037 -440.221367 
L 365.28737 -437.434736 
L 367.438459 -434.648106 
L 368.341649 -431.861476 
L 368.596794 -429.074846 
L 368.154694 -426.288216 
L 366.757486 -423.501586 
L 364.446436 -420.714956 
L 361.627004 -417.928326 
L 358.232869 -415.141696 
L 354.592631 -412.355066 
L 351.530276 -409.568436 
L 349.3523 -406.781806 
L 347.588336 -403.995176 
L 346.073425 -401.208546 
L 345.13464 -398.421916 
L 344.370856 -395.635286 
L 343.198672 -392.848656 
L 341.790549 -390.062026 
L 340.487067 -387.275396 
L 339.130953 -384.488766 
L 337.523366 -381.702136 
L 336.148528 -378.915506 
L 335.076642 -376.128876 
L 333.625409 -373.342246 
L 331.935745 -370.555616 
L 330.558117 -367.768986 
L 329.38915 -364.982356 
L 328.094304 -362.195725 
L 326.775724 -359.409095 
L 325.672931 -356.622465 
L 324.690738 -353.835835 
L 323.674128 -351.049205 
L 322.9153 -348.262575 
L 322.374397 -345.475945 
L 321.704916 -342.689315 
L 320.934919 -339.902685 
L 320.216632 -337.116055 
L 319.631152 -334.329425 
L 319.169687 -331.542795 
L 318.701507 -328.756165 
L 318.119532 -325.969535 
L 317.436361 -323.182905 
L 316.742881 -320.396275 
L 316.133671 -317.609645 
L 315.665525 -314.823015 
L 315.272417 -312.036385 
L 314.930213 -309.249755 
L 314.676489 -306.463125 
L 314.457751 -303.676495 
L 314.218589 -300.889865 
L 313.9933 -298.103235 
L 313.852075 -295.316605 
L 313.738217 -292.529975 
L 313.619243 -289.743345 
L 313.495941 -286.956714 
L 313.385487 -284.170084 
L 313.320739 -281.383454 
L 313.276352 -278.596824 
L 313.20199 -275.810194 
L 313.10973 -273.023564 
L 313.039278 -270.236934 
L 312.982984 -267.450304 
L 312.93133 -264.663674 
L 312.893538 -261.877044 
L 313.002622 -259.090414 
L 315.236097 -256.303784 
L 325.358209 -253.517154 
L 332.971829 -250.730524 
L 322.767726 -247.943894 
L 314.320442 -245.157264 
L 312.88 -242.370634 
L 312.809696 -239.584004 
L 312.806398 -236.797374 
L 312.803008 -234.010744 
L 312.800373 -231.224114 
L 312.798699 -228.437484 
L 312.797458 -225.650854 
L 312.796958 -222.864224 
z
" style="stroke: #3f3f3f; stroke-width: 1.5"/>
    </defs>
    <g clip-path="url(#p43f1afb69c)">
     <use xlink:href="#ma7edf9a172" x="0" y="727.690625" style="fill: #e1812c; stroke: #3f3f3f; stroke-width: 1.5"/>
    </g>
   </g>
   <g id="PolyCollection_5">
    <defs>
     <path id="m3457a81e46" d="M 452.296875 -379.623017 
L 452.296429 -379.623017 
L 452.290646 -380.252256 
L 452.263187 -380.881496 
L 452.178939 -381.510735 
L 451.995613 -382.139975 
L 451.706733 -382.769214 
L 451.265793 -383.398454 
L 450.570918 -384.027693 
L 449.574897 -384.656933 
L 448.280587 -385.286172 
L 446.756436 -385.915412 
L 444.763192 -386.544651 
L 442.159202 -387.173891 
L 439.253876 -387.80313 
L 435.99065 -388.43237 
L 432.62837 -389.061609 
L 429.206976 -389.690849 
L 424.869584 -390.320088 
L 419.579045 -390.949328 
L 414.320075 -391.578567 
L 410.556196 -392.207807 
L 408.445964 -392.837046 
L 406.920293 -393.466286 
L 404.493831 -394.095525 
L 401.660143 -394.724764 
L 398.769953 -395.354004 
L 396.758929 -395.983243 
L 396.496875 -396.612483 
L 398.014858 -397.241722 
L 400.319186 -397.870962 
L 402.407725 -398.500201 
L 404.246577 -399.129441 
L 405.697376 -399.75868 
L 406.910716 -400.38792 
L 407.399782 -401.017159 
L 407.662968 -401.646399 
L 408.507863 -402.275638 
L 409.04111 -402.904878 
L 408.457981 -403.534117 
L 407.443994 -404.163357 
L 406.293182 -404.792596 
L 405.174388 -405.421836 
L 406.215107 -406.051075 
L 408.723315 -406.680315 
L 411.361111 -407.309554 
L 414.903802 -407.938794 
L 419.093913 -408.568033 
L 423.058713 -409.197273 
L 426.794953 -409.826512 
L 430.064591 -410.455752 
L 433.189731 -411.084991 
L 436.165295 -411.71423 
L 438.723261 -412.34347 
L 440.720939 -412.972709 
L 442.181459 -413.601949 
L 443.494761 -414.231188 
L 444.718259 -414.860428 
L 445.66792 -415.489667 
L 446.529084 -416.118907 
L 447.462209 -416.748146 
L 448.241841 -417.377386 
L 448.946383 -418.006625 
L 449.516067 -418.635865 
L 449.962456 -419.265104 
L 450.407188 -419.894344 
L 450.73027 -420.523583 
L 450.944994 -421.152823 
L 451.148932 -421.782062 
L 451.284457 -422.411302 
L 451.380647 -423.040541 
L 451.482406 -423.669781 
L 451.600108 -424.29902 
L 451.65667 -424.92826 
L 451.704193 -425.557499 
L 451.769041 -426.186739 
L 451.810982 -426.815978 
L 451.857531 -427.445217 
L 451.914408 -428.074457 
L 451.959593 -428.703696 
L 451.996356 -429.332936 
L 452.017138 -429.962175 
L 452.048934 -430.591415 
L 452.076809 -431.220654 
L 452.101546 -431.849894 
L 452.141822 -432.479133 
L 452.167318 -433.108373 
L 452.189358 -433.737612 
L 452.205049 -434.366852 
L 452.23114 -434.996091 
L 452.232716 -435.625331 
L 452.225565 -436.25457 
L 452.238191 -436.88381 
L 452.250125 -437.513049 
L 452.267462 -438.142289 
L 452.27505 -438.771528 
L 452.278681 -439.400768 
L 452.286188 -440.030007 
L 452.289841 -440.659247 
L 452.294274 -441.288486 
L 452.296665 -441.917726 
L 452.296875 -441.917726 
L 452.296875 -441.917726 
L 452.296875 -441.288486 
L 452.296875 -440.659247 
L 452.296875 -440.030007 
L 452.296875 -439.400768 
L 452.296875 -438.771528 
L 452.296875 -438.142289 
L 452.296875 -437.513049 
L 452.296875 -436.88381 
L 452.296875 -436.25457 
L 452.296875 -435.625331 
L 452.296875 -434.996091 
L 452.296875 -434.366852 
L 452.296875 -433.737612 
L 452.296875 -433.108373 
L 452.296875 -432.479133 
L 452.296875 -431.849894 
L 452.296875 -431.220654 
L 452.296875 -430.591415 
L 452.296875 -429.962175 
L 452.296875 -429.332936 
L 452.296875 -428.703696 
L 452.296875 -428.074457 
L 452.296875 -427.445217 
L 452.296875 -426.815978 
L 452.296875 -426.186739 
L 452.296875 -425.557499 
L 452.296875 -424.92826 
L 452.296875 -424.29902 
L 452.296875 -423.669781 
L 452.296875 -423.040541 
L 452.296875 -422.411302 
L 452.296875 -421.782062 
L 452.296875 -421.152823 
L 452.296875 -420.523583 
L 452.296875 -419.894344 
L 452.296875 -419.265104 
L 452.296875 -418.635865 
L 452.296875 -418.006625 
L 452.296875 -417.377386 
L 452.296875 -416.748146 
L 452.296875 -416.118907 
L 452.296875 -415.489667 
L 452.296875 -414.860428 
L 452.296875 -414.231188 
L 452.296875 -413.601949 
L 452.296875 -412.972709 
L 452.296875 -412.34347 
L 452.296875 -411.71423 
L 452.296875 -411.084991 
L 452.296875 -410.455752 
L 452.296875 -409.826512 
L 452.296875 -409.197273 
L 452.296875 -408.568033 
L 452.296875 -407.938794 
L 452.296875 -407.309554 
L 452.296875 -406.680315 
L 452.296875 -406.051075 
L 452.296875 -405.421836 
L 452.296875 -404.792596 
L 452.296875 -404.163357 
L 452.296875 -403.534117 
L 452.296875 -402.904878 
L 452.296875 -402.275638 
L 452.296875 -401.646399 
L 452.296875 -401.017159 
L 452.296875 -400.38792 
L 452.296875 -399.75868 
L 452.296875 -399.129441 
L 452.296875 -398.500201 
L 452.296875 -397.870962 
L 452.296875 -397.241722 
L 452.296875 -396.612483 
L 452.296875 -395.983243 
L 452.296875 -395.354004 
L 452.296875 -394.724764 
L 452.296875 -394.095525 
L 452.296875 -393.466286 
L 452.296875 -392.837046 
L 452.296875 -392.207807 
L 452.296875 -391.578567 
L 452.296875 -390.949328 
L 452.296875 -390.320088 
L 452.296875 -389.690849 
L 452.296875 -389.061609 
L 452.296875 -388.43237 
L 452.296875 -387.80313 
L 452.296875 -387.173891 
L 452.296875 -386.544651 
L 452.296875 -385.915412 
L 452.296875 -385.286172 
L 452.296875 -384.656933 
L 452.296875 -384.027693 
L 452.296875 -383.398454 
L 452.296875 -382.769214 
L 452.296875 -382.139975 
L 452.296875 -381.510735 
L 452.296875 -380.881496 
L 452.296875 -380.252256 
L 452.296875 -379.623017 
z
" style="stroke: #3f3f3f; stroke-width: 1.5"/>
    </defs>
    <g clip-path="url(#p43f1afb69c)">
     <use xlink:href="#m3457a81e46" x="0" y="727.690625" style="fill: #3274a1; stroke: #3f3f3f; stroke-width: 1.5"/>
    </g>
   </g>
   <g id="PolyCollection_6">
    <defs>
     <path id="m040187a540" d="M 452.296902 -126.490625 
L 452.296875 -126.490625 
L 452.296875 -131.581534 
L 452.296875 -136.672443 
L 452.296875 -141.763352 
L 452.296875 -146.854261 
L 452.296875 -151.94517 
L 452.296875 -157.03608 
L 452.296875 -162.126989 
L 452.296875 -167.217898 
L 452.296875 -172.308807 
L 452.296875 -177.399716 
L 452.296875 -182.490625 
L 452.296875 -187.581534 
L 452.296875 -192.672443 
L 452.296875 -197.763352 
L 452.296875 -202.854261 
L 452.296875 -207.94517 
L 452.296875 -213.03608 
L 452.296875 -218.126989 
L 452.296875 -223.217898 
L 452.296875 -228.308807 
L 452.296875 -233.399716 
L 452.296875 -238.490625 
L 452.296875 -243.581534 
L 452.296875 -248.672443 
L 452.296875 -253.763352 
L 452.296875 -258.854261 
L 452.296875 -263.94517 
L 452.296875 -269.03608 
L 452.296875 -274.126989 
L 452.296875 -279.217898 
L 452.296875 -284.308807 
L 452.296875 -289.399716 
L 452.296875 -294.490625 
L 452.296875 -299.581534 
L 452.296875 -304.672443 
L 452.296875 -309.763352 
L 452.296875 -314.854261 
L 452.296875 -319.94517 
L 452.296875 -325.03608 
L 452.296875 -330.126989 
L 452.296875 -335.217898 
L 452.296875 -340.308807 
L 452.296875 -345.399716 
L 452.296875 -350.490625 
L 452.296875 -355.581534 
L 452.296875 -360.672443 
L 452.296875 -365.763352 
L 452.296875 -370.854261 
L 452.296875 -375.94517 
L 452.296875 -381.03608 
L 452.296875 -386.126989 
L 452.296875 -391.217898 
L 452.296875 -396.308807 
L 452.296875 -401.399716 
L 452.296875 -406.490625 
L 452.296875 -411.581534 
L 452.296875 -416.672443 
L 452.296875 -421.763352 
L 452.296875 -426.854261 
L 452.296875 -431.94517 
L 452.296875 -437.03608 
L 452.296875 -442.126989 
L 452.296875 -447.217898 
L 452.296875 -452.308807 
L 452.296875 -457.399716 
L 452.296875 -462.490625 
L 452.296875 -467.581534 
L 452.296875 -472.672443 
L 452.296875 -477.763352 
L 452.296875 -482.854261 
L 452.296875 -487.94517 
L 452.296875 -493.03608 
L 452.296875 -498.126989 
L 452.296875 -503.217898 
L 452.296875 -508.308807 
L 452.296875 -513.399716 
L 452.296875 -518.490625 
L 452.296875 -523.581534 
L 452.296875 -528.672443 
L 452.296875 -533.763352 
L 452.296875 -538.854261 
L 452.296875 -543.94517 
L 452.296875 -549.03608 
L 452.296875 -554.126989 
L 452.296875 -559.217898 
L 452.296875 -564.308807 
L 452.296875 -569.399716 
L 452.296875 -574.490625 
L 452.296875 -579.581534 
L 452.296875 -584.672443 
L 452.296875 -589.763352 
L 452.296875 -594.854261 
L 452.296875 -599.94517 
L 452.296875 -605.03608 
L 452.296875 -610.126989 
L 452.296875 -615.217898 
L 452.296875 -620.308807 
L 452.296875 -625.399716 
L 452.296875 -630.490625 
L 453.546264 -630.490625 
L 453.546264 -630.490625 
L 461.527665 -625.399716 
L 453.622038 -620.308807 
L 452.300571 -615.217898 
L 452.296875 -610.126989 
L 452.296875 -605.03608 
L 452.296875 -599.94517 
L 452.296875 -594.854261 
L 452.296875 -589.763352 
L 452.296875 -584.672443 
L 452.296875 -579.581534 
L 452.296875 -574.490625 
L 452.296875 -569.399716 
L 452.296875 -564.308807 
L 452.296875 -559.217898 
L 452.296875 -554.126989 
L 452.296875 -549.03608 
L 452.296875 -543.94517 
L 452.296875 -538.854261 
L 452.296875 -533.763352 
L 452.296875 -528.672443 
L 452.296875 -523.581534 
L 452.296875 -518.490625 
L 452.296875 -513.399716 
L 452.296875 -508.308807 
L 452.296875 -503.217898 
L 452.296875 -498.126989 
L 452.296875 -493.03608 
L 452.296875 -487.94517 
L 452.296897 -482.854261 
L 452.297082 -477.763352 
L 452.297381 -472.672443 
L 452.299875 -467.581534 
L 452.303264 -462.490625 
L 452.313883 -457.399716 
L 452.329462 -452.308807 
L 452.373121 -447.217898 
L 452.448819 -442.126989 
L 452.598967 -437.03608 
L 452.958482 -431.94517 
L 453.839378 -426.854261 
L 455.902656 -421.763352 
L 460.448642 -416.672443 
L 469.792049 -411.581534 
L 483.939933 -406.490625 
L 497.116784 -401.399716 
L 504.412142 -396.308807 
L 508.096794 -391.217898 
L 504.973746 -386.126989 
L 490.080373 -381.03608 
L 471.311527 -375.94517 
L 459.233815 -370.854261 
L 454.624916 -365.763352 
L 453.320532 -360.672443 
L 452.889129 -355.581534 
L 452.678185 -350.490625 
L 452.564085 -345.399716 
L 452.483362 -340.308807 
L 452.435705 -335.217898 
L 452.396394 -330.126989 
L 452.3714 -325.03608 
L 452.357242 -319.94517 
L 452.345834 -314.854261 
L 452.330686 -309.763352 
L 452.323689 -304.672443 
L 452.31605 -299.581534 
L 452.311737 -294.490625 
L 452.310663 -289.399716 
L 452.307784 -284.308807 
L 452.303877 -279.217898 
L 452.30185 -274.126989 
L 452.300939 -269.03608 
L 452.30101 -263.94517 
L 452.300929 -258.854261 
L 452.299911 -253.763352 
L 452.301317 -248.672443 
L 452.298933 -243.581534 
L 452.298557 -238.490625 
L 452.298122 -233.399716 
L 452.297803 -228.308807 
L 452.297893 -223.217898 
L 452.298047 -218.126989 
L 452.297726 -213.03608 
L 452.297224 -207.94517 
L 452.297189 -202.854261 
L 452.296889 -197.763352 
L 452.297021 -192.672443 
L 452.297214 -187.581534 
L 452.296911 -182.490625 
L 452.297179 -177.399716 
L 452.29729 -172.308807 
L 452.296915 -167.217898 
L 452.297061 -162.126989 
L 452.296931 -157.03608 
L 452.29688 -151.94517 
L 452.297028 -146.854261 
L 452.296967 -141.763352 
L 452.296905 -136.672443 
L 452.297075 -131.581534 
L 452.296902 -126.490625 
z
" style="stroke: #3f3f3f; stroke-width: 1.5"/>
    </defs>
    <g clip-path="url(#p43f1afb69c)">
     <use xlink:href="#m040187a540" x="0" y="727.690625" style="fill: #e1812c; stroke: #3f3f3f; stroke-width: 1.5"/>
    </g>
   </g>
   <g id="PolyCollection_7">
    <defs>
     <path id="m568b88cf1a" d="M 591.796875 -384.776532 
L 591.79645 -384.776532 
L 591.795591 -385.64199 
L 591.7937 -386.507449 
L 591.79039 -387.372908 
L 591.785798 -388.238367 
L 591.780708 -389.103825 
L 591.775573 -389.969284 
L 591.766352 -390.834743 
L 591.728255 -391.700201 
L 591.559464 -392.56566 
L 590.939496 -393.431119 
L 589.119916 -394.296578 
L 584.907701 -395.162036 
L 577.315368 -396.027495 
L 566.845473 -396.892954 
L 556.115178 -397.758413 
L 548.453723 -398.623871 
L 545.556078 -399.48933 
L 546.98576 -400.354789 
L 551.775709 -401.220247 
L 559.339046 -402.085706 
L 568.620257 -402.951165 
L 577.605532 -403.816624 
L 584.412122 -404.682082 
L 588.465321 -405.547541 
L 590.392063 -406.413 
L 591.146466 -407.278458 
L 591.407582 -408.143917 
L 591.500132 -409.009376 
L 591.540052 -409.874835 
L 591.561152 -410.740293 
L 591.573173 -411.605752 
L 591.580052 -412.471211 
L 591.584326 -413.33667 
L 591.587884 -414.202128 
L 591.591795 -415.067587 
L 591.596189 -415.933046 
L 591.6007 -416.798504 
L 591.605155 -417.663963 
L 591.609712 -418.529422 
L 591.614362 -419.394881 
L 591.618582 -420.260339 
L 591.621695 -421.125798 
L 591.62347 -421.991257 
L 591.624259 -422.856716 
L 591.624654 -423.722174 
L 591.625154 -424.587633 
L 591.62611 -425.453092 
L 591.627784 -426.31855 
L 591.630316 -427.184009 
L 591.633582 -428.049468 
L 591.637104 -428.914927 
L 591.640222 -429.780385 
L 591.642403 -430.645844 
L 591.643418 -431.511303 
L 591.643178 -432.376762 
L 591.641494 -433.24222 
L 591.638161 -434.107679 
L 591.633359 -434.973138 
L 591.627796 -435.838596 
L 591.622277 -436.704055 
L 591.617141 -437.569514 
L 591.612126 -438.434973 
L 591.606773 -439.300431 
L 591.600886 -440.16589 
L 591.594554 -441.031349 
L 591.587714 -441.896807 
L 591.579831 -442.762266 
L 591.570048 -443.627725 
L 591.557492 -444.493184 
L 591.541345 -445.358642 
L 591.520809 -446.224101 
L 591.495344 -447.08956 
L 591.465 -447.955019 
L 591.430093 -448.820477 
L 591.389965 -449.685936 
L 591.341517 -450.551395 
L 591.276226 -451.416853 
L 591.163828 -452.282312 
L 590.887819 -453.147771 
L 590.080363 -454.01323 
L 587.883448 -454.878688 
L 582.943801 -455.744147 
L 574.165044 -456.609606 
L 562.116794 -457.475065 
L 549.636009 -458.340523 
L 540.279818 -459.205982 
L 535.996875 -460.071441 
L 536.801281 -460.936899 
L 542.232277 -461.802358 
L 551.742585 -462.667817 
L 563.623476 -463.533276 
L 574.972769 -464.398734 
L 583.39153 -465.264193 
L 588.302593 -466.129652 
L 590.586278 -466.995111 
L 591.445041 -467.860569 
L 591.710233 -468.726028 
L 591.778589 -469.591487 
L 591.793534 -470.456945 
L 591.796875 -470.456945 
L 591.796875 -470.456945 
L 591.796875 -469.591487 
L 591.796875 -468.726028 
L 591.796875 -467.860569 
L 591.796875 -466.995111 
L 591.796875 -466.129652 
L 591.796875 -465.264193 
L 591.796875 -464.398734 
L 591.796875 -463.533276 
L 591.796875 -462.667817 
L 591.796875 -461.802358 
L 591.796875 -460.936899 
L 591.796875 -460.071441 
L 591.796875 -459.205982 
L 591.796875 -458.340523 
L 591.796875 -457.475065 
L 591.796875 -456.609606 
L 591.796875 -455.744147 
L 591.796875 -454.878688 
L 591.796875 -454.01323 
L 591.796875 -453.147771 
L 591.796875 -452.282312 
L 591.796875 -451.416853 
L 591.796875 -450.551395 
L 591.796875 -449.685936 
L 591.796875 -448.820477 
L 591.796875 -447.955019 
L 591.796875 -447.08956 
L 591.796875 -446.224101 
L 591.796875 -445.358642 
L 591.796875 -444.493184 
L 591.796875 -443.627725 
L 591.796875 -442.762266 
L 591.796875 -441.896807 
L 591.796875 -441.031349 
L 591.796875 -440.16589 
L 591.796875 -439.300431 
L 591.796875 -438.434973 
L 591.796875 -437.569514 
L 591.796875 -436.704055 
L 591.796875 -435.838596 
L 591.796875 -434.973138 
L 591.796875 -434.107679 
L 591.796875 -433.24222 
L 591.796875 -432.376762 
L 591.796875 -431.511303 
L 591.796875 -430.645844 
L 591.796875 -429.780385 
L 591.796875 -428.914927 
L 591.796875 -428.049468 
L 591.796875 -427.184009 
L 591.796875 -426.31855 
L 591.796875 -425.453092 
L 591.796875 -424.587633 
L 591.796875 -423.722174 
L 591.796875 -422.856716 
L 591.796875 -421.991257 
L 591.796875 -421.125798 
L 591.796875 -420.260339 
L 591.796875 -419.394881 
L 591.796875 -418.529422 
L 591.796875 -417.663963 
L 591.796875 -416.798504 
L 591.796875 -415.933046 
L 591.796875 -415.067587 
L 591.796875 -414.202128 
L 591.796875 -413.33667 
L 591.796875 -412.471211 
L 591.796875 -411.605752 
L 591.796875 -410.740293 
L 591.796875 -409.874835 
L 591.796875 -409.009376 
L 591.796875 -408.143917 
L 591.796875 -407.278458 
L 591.796875 -406.413 
L 591.796875 -405.547541 
L 591.796875 -404.682082 
L 591.796875 -403.816624 
L 591.796875 -402.951165 
L 591.796875 -402.085706 
L 591.796875 -401.220247 
L 591.796875 -400.354789 
L 591.796875 -399.48933 
L 591.796875 -398.623871 
L 591.796875 -397.758413 
L 591.796875 -396.892954 
L 591.796875 -396.027495 
L 591.796875 -395.162036 
L 591.796875 -394.296578 
L 591.796875 -393.431119 
L 591.796875 -392.56566 
L 591.796875 -391.700201 
L 591.796875 -390.834743 
L 591.796875 -389.969284 
L 591.796875 -389.103825 
L 591.796875 -388.238367 
L 591.796875 -387.372908 
L 591.796875 -386.507449 
L 591.796875 -385.64199 
L 591.796875 -384.776532 
z
" style="stroke: #3f3f3f; stroke-width: 1.5"/>
    </defs>
    <g clip-path="url(#p43f1afb69c)">
     <use xlink:href="#m568b88cf1a" x="0" y="727.690625" style="fill: #3274a1; stroke: #3f3f3f; stroke-width: 1.5"/>
    </g>
   </g>
   <g id="PolyCollection_8">
    <defs>
     <path id="mcd4956a356" d="M 593.394003 -334.309138 
L 591.796875 -334.309138 
L 591.796875 -335.635144 
L 591.796875 -336.961151 
L 591.796875 -338.287157 
L 591.796875 -339.613163 
L 591.796875 -340.93917 
L 591.796875 -342.265176 
L 591.796875 -343.591182 
L 591.796875 -344.917189 
L 591.796875 -346.243195 
L 591.796875 -347.569202 
L 591.796875 -348.895208 
L 591.796875 -350.221214 
L 591.796875 -351.547221 
L 591.796875 -352.873227 
L 591.796875 -354.199234 
L 591.796875 -355.52524 
L 591.796875 -356.851246 
L 591.796875 -358.177253 
L 591.796875 -359.503259 
L 591.796875 -360.829265 
L 591.796875 -362.155272 
L 591.796875 -363.481278 
L 591.796875 -364.807285 
L 591.796875 -366.133291 
L 591.796875 -367.459297 
L 591.796875 -368.785304 
L 591.796875 -370.11131 
L 591.796875 -371.437316 
L 591.796875 -372.763323 
L 591.796875 -374.089329 
L 591.796875 -375.415336 
L 591.796875 -376.741342 
L 591.796875 -378.067348 
L 591.796875 -379.393355 
L 591.796875 -380.719361 
L 591.796875 -382.045367 
L 591.796875 -383.371374 
L 591.796875 -384.69738 
L 591.796875 -386.023387 
L 591.796875 -387.349393 
L 591.796875 -388.675399 
L 591.796875 -390.001406 
L 591.796875 -391.327412 
L 591.796875 -392.653418 
L 591.796875 -393.979425 
L 591.796875 -395.305431 
L 591.796875 -396.631438 
L 591.796875 -397.957444 
L 591.796875 -399.28345 
L 591.796875 -400.609457 
L 591.796875 -401.935463 
L 591.796875 -403.261469 
L 591.796875 -404.587476 
L 591.796875 -405.913482 
L 591.796875 -407.239489 
L 591.796875 -408.565495 
L 591.796875 -409.891501 
L 591.796875 -411.217508 
L 591.796875 -412.543514 
L 591.796875 -413.86952 
L 591.796875 -415.195527 
L 591.796875 -416.521533 
L 591.796875 -417.84754 
L 591.796875 -419.173546 
L 591.796875 -420.499552 
L 591.796875 -421.825559 
L 591.796875 -423.151565 
L 591.796875 -424.477571 
L 591.796875 -425.803578 
L 591.796875 -427.129584 
L 591.796875 -428.455591 
L 591.796875 -429.781597 
L 591.796875 -431.107603 
L 591.796875 -432.43361 
L 591.796875 -433.759616 
L 591.796875 -435.085622 
L 591.796875 -436.411629 
L 591.796875 -437.737635 
L 591.796875 -439.063642 
L 591.796875 -440.389648 
L 591.796875 -441.715654 
L 591.796875 -443.041661 
L 591.796875 -444.367667 
L 591.796875 -445.693673 
L 591.796875 -447.01968 
L 591.796875 -448.345686 
L 591.796875 -449.671693 
L 591.796875 -450.997699 
L 591.796875 -452.323705 
L 591.796875 -453.649712 
L 591.796875 -454.975718 
L 591.796875 -456.301725 
L 591.796875 -457.627731 
L 591.796875 -458.953737 
L 591.796875 -460.279744 
L 591.796875 -461.60575 
L 591.796875 -462.931756 
L 591.796875 -464.257763 
L 591.796875 -465.583769 
L 593.874112 -465.583769 
L 593.874112 -465.583769 
L 598.094924 -464.257763 
L 606.642888 -462.931756 
L 619.027921 -461.60575 
L 630.703996 -460.279744 
L 635.165627 -458.953737 
L 629.610948 -457.627731 
L 617.720287 -456.301725 
L 605.929881 -454.975718 
L 598.099903 -453.649712 
L 594.273836 -452.323705 
L 592.814695 -450.997699 
L 592.342548 -449.671693 
L 592.191099 -448.345686 
L 592.134371 -447.01968 
L 592.110397 -445.693673 
L 592.100197 -444.367667 
L 592.094848 -443.041661 
L 592.089854 -441.715654 
L 592.08384 -440.389648 
L 592.077302 -439.063642 
L 592.071738 -437.737635 
L 592.068797 -436.411629 
L 592.06895 -435.085622 
L 592.070754 -433.759616 
L 592.071948 -432.43361 
L 592.071488 -431.107603 
L 592.070489 -429.781597 
L 592.07126 -428.455591 
L 592.075315 -427.129584 
L 592.082078 -425.803578 
L 592.089312 -424.477571 
L 592.094647 -423.151565 
L 592.097002 -421.825559 
L 592.097274 -420.499552 
L 592.097907 -419.173546 
L 592.101581 -417.84754 
L 592.110441 -416.521533 
L 592.127228 -415.195527 
L 592.159138 -413.86952 
L 592.22768 -412.543514 
L 592.397752 -411.217508 
L 592.858266 -409.891501 
L 594.089081 -408.565495 
L 597.042605 -407.239489 
L 603.010765 -405.913482 
L 612.797573 -404.587476 
L 625.519565 -403.261469 
L 638.189481 -401.935463 
L 646.698457 -400.609457 
L 647.596794 -399.28345 
L 639.993181 -397.957444 
L 626.650934 -396.631438 
L 612.669204 -395.305431 
L 602.171416 -393.979425 
L 596.214445 -392.653418 
L 593.569087 -391.327412 
L 592.602904 -390.001406 
L 592.281255 -388.675399 
L 592.164453 -387.349393 
L 592.112022 -386.023387 
L 592.085304 -384.69738 
L 592.071697 -383.371374 
L 592.064729 -382.045367 
L 592.06046 -380.719361 
L 592.05699 -379.393355 
L 592.054015 -378.067348 
L 592.052048 -376.741342 
L 592.051666 -375.415336 
L 592.053021 -374.089329 
L 592.055521 -372.763323 
L 592.057944 -371.437316 
L 592.059332 -370.11131 
L 592.059884 -368.785304 
L 592.060614 -367.459297 
L 592.062286 -366.133291 
L 592.065174 -364.807285 
L 592.069446 -363.481278 
L 592.075018 -362.155272 
L 592.081272 -360.829265 
L 592.087676 -359.503259 
L 592.094818 -358.177253 
L 592.104765 -356.851246 
L 592.120894 -355.52524 
L 592.148766 -354.199234 
L 592.20089 -352.873227 
L 592.31319 -351.547221 
L 592.598049 -350.221214 
L 593.382823 -348.895208 
L 595.439439 -347.569202 
L 600.044542 -346.243195 
L 608.231977 -344.917189 
L 619.027505 -343.591182 
L 628.322482 -342.265176 
L 630.940517 -340.93917 
L 625.073625 -339.613163 
L 614.140114 -338.287157 
L 603.609929 -336.961151 
L 596.703007 -335.635144 
L 593.394003 -334.309138 
z
" style="stroke: #3f3f3f; stroke-width: 1.5"/>
    </defs>
    <g clip-path="url(#p43f1afb69c)">
     <use xlink:href="#mcd4956a356" x="0" y="727.690625" style="fill: #e1812c; stroke: #3f3f3f; stroke-width: 1.5"/>
    </g>
   </g>
   <g id="matplotlib.axis_1">
    <g id="xtick_1">
     <g id="line2d_1">
      <defs>
       <path id="maa41c0b208" d="M 0 0 
L 0 3.5 
" style="stroke: #000000; stroke-width: 0.8"/>
      </defs>
      <g>
       <use xlink:href="#maa41c0b208" x="173.296875" y="626.4" style="stroke: #000000; stroke-width: 0.8"/>
      </g>
     </g>
     <g id="text_1">
      <!-- Amplitude -->
      <g transform="translate(151.064063 640.557813) scale(0.1 -0.1)">
       <defs>
        <path id="ArialMT-41" d="M -9 0 
L 1750 4581 
L 2403 4581 
L 4278 0 
L 3588 0 
L 3053 1388 
L 1138 1388 
L 634 0 
L -9 0 
z
M 1313 1881 
L 2866 1881 
L 2388 3150 
Q 2169 3728 2063 4100 
Q 1975 3659 1816 3225 
L 1313 1881 
z
" transform="scale(0.015625)"/>
        <path id="ArialMT-6d" d="M 422 0 
L 422 3319 
L 925 3319 
L 925 2853 
Q 1081 3097 1340 3245 
Q 1600 3394 1931 3394 
Q 2300 3394 2536 3241 
Q 2772 3088 2869 2813 
Q 3263 3394 3894 3394 
Q 4388 3394 4653 3120 
Q 4919 2847 4919 2278 
L 4919 0 
L 4359 0 
L 4359 2091 
Q 4359 2428 4304 2576 
Q 4250 2725 4106 2815 
Q 3963 2906 3769 2906 
Q 3419 2906 3187 2673 
Q 2956 2441 2956 1928 
L 2956 0 
L 2394 0 
L 2394 2156 
Q 2394 2531 2256 2718 
Q 2119 2906 1806 2906 
Q 1569 2906 1367 2781 
Q 1166 2656 1075 2415 
Q 984 2175 984 1722 
L 984 0 
L 422 0 
z
" transform="scale(0.015625)"/>
        <path id="ArialMT-70" d="M 422 -1272 
L 422 3319 
L 934 3319 
L 934 2888 
Q 1116 3141 1344 3267 
Q 1572 3394 1897 3394 
Q 2322 3394 2647 3175 
Q 2972 2956 3137 2557 
Q 3303 2159 3303 1684 
Q 3303 1175 3120 767 
Q 2938 359 2589 142 
Q 2241 -75 1856 -75 
Q 1575 -75 1351 44 
Q 1128 163 984 344 
L 984 -1272 
L 422 -1272 
z
M 931 1641 
Q 931 1000 1190 694 
Q 1450 388 1819 388 
Q 2194 388 2461 705 
Q 2728 1022 2728 1688 
Q 2728 2322 2467 2637 
Q 2206 2953 1844 2953 
Q 1484 2953 1207 2617 
Q 931 2281 931 1641 
z
" transform="scale(0.015625)"/>
        <path id="ArialMT-6c" d="M 409 0 
L 409 4581 
L 972 4581 
L 972 0 
L 409 0 
z
" transform="scale(0.015625)"/>
        <path id="ArialMT-69" d="M 425 3934 
L 425 4581 
L 988 4581 
L 988 3934 
L 425 3934 
z
M 425 0 
L 425 3319 
L 988 3319 
L 988 0 
L 425 0 
z
" transform="scale(0.015625)"/>
        <path id="ArialMT-74" d="M 1650 503 
L 1731 6 
Q 1494 -44 1306 -44 
Q 1000 -44 831 53 
Q 663 150 594 308 
Q 525 466 525 972 
L 525 2881 
L 113 2881 
L 113 3319 
L 525 3319 
L 525 4141 
L 1084 4478 
L 1084 3319 
L 1650 3319 
L 1650 2881 
L 1084 2881 
L 1084 941 
Q 1084 700 1114 631 
Q 1144 563 1211 522 
Q 1278 481 1403 481 
Q 1497 481 1650 503 
z
" transform="scale(0.015625)"/>
        <path id="ArialMT-75" d="M 2597 0 
L 2597 488 
Q 2209 -75 1544 -75 
Q 1250 -75 995 37 
Q 741 150 617 320 
Q 494 491 444 738 
Q 409 903 409 1263 
L 409 3319 
L 972 3319 
L 972 1478 
Q 972 1038 1006 884 
Q 1059 663 1231 536 
Q 1403 409 1656 409 
Q 1909 409 2131 539 
Q 2353 669 2445 892 
Q 2538 1116 2538 1541 
L 2538 3319 
L 3100 3319 
L 3100 0 
L 2597 0 
z
" transform="scale(0.015625)"/>
        <path id="ArialMT-64" d="M 2575 0 
L 2575 419 
Q 2259 -75 1647 -75 
Q 1250 -75 917 144 
Q 584 363 401 755 
Q 219 1147 219 1656 
Q 219 2153 384 2558 
Q 550 2963 881 3178 
Q 1213 3394 1622 3394 
Q 1922 3394 2156 3267 
Q 2391 3141 2538 2938 
L 2538 4581 
L 3097 4581 
L 3097 0 
L 2575 0 
z
M 797 1656 
Q 797 1019 1065 703 
Q 1334 388 1700 388 
Q 2069 388 2326 689 
Q 2584 991 2584 1609 
Q 2584 2291 2321 2609 
Q 2059 2928 1675 2928 
Q 1300 2928 1048 2622 
Q 797 2316 797 1656 
z
" transform="scale(0.015625)"/>
        <path id="ArialMT-65" d="M 2694 1069 
L 3275 997 
Q 3138 488 2766 206 
Q 2394 -75 1816 -75 
Q 1088 -75 661 373 
Q 234 822 234 1631 
Q 234 2469 665 2931 
Q 1097 3394 1784 3394 
Q 2450 3394 2872 2941 
Q 3294 2488 3294 1666 
Q 3294 1616 3291 1516 
L 816 1516 
Q 847 969 1125 678 
Q 1403 388 1819 388 
Q 2128 388 2347 550 
Q 2566 713 2694 1069 
z
M 847 1978 
L 2700 1978 
Q 2663 2397 2488 2606 
Q 2219 2931 1791 2931 
Q 1403 2931 1139 2672 
Q 875 2413 847 1978 
z
" transform="scale(0.015625)"/>
       </defs>
       <use xlink:href="#ArialMT-41"/>
       <use xlink:href="#ArialMT-6d" x="66.699219"/>
       <use xlink:href="#ArialMT-70" x="150"/>
       <use xlink:href="#ArialMT-6c" x="205.615234"/>
       <use xlink:href="#ArialMT-69" x="227.832031"/>
       <use xlink:href="#ArialMT-74" x="250.048828"/>
       <use xlink:href="#ArialMT-75" x="277.832031"/>
       <use xlink:href="#ArialMT-64" x="333.447266"/>
       <use xlink:href="#ArialMT-65" x="389.0625"/>
      </g>
     </g>
    </g>
    <g id="xtick_2">
     <g id="line2d_2">
      <g>
       <use xlink:href="#maa41c0b208" x="312.796875" y="626.4" style="stroke: #000000; stroke-width: 0.8"/>
      </g>
     </g>
     <g id="text_2">
      <!-- Resonance -->
      <g transform="translate(287.503125 640.557813) scale(0.1 -0.1)">
       <defs>
        <path id="ArialMT-52" d="M 503 0 
L 503 4581 
L 2534 4581 
Q 3147 4581 3465 4457 
Q 3784 4334 3975 4021 
Q 4166 3709 4166 3331 
Q 4166 2844 3850 2509 
Q 3534 2175 2875 2084 
Q 3116 1969 3241 1856 
Q 3506 1613 3744 1247 
L 4541 0 
L 3778 0 
L 3172 953 
Q 2906 1366 2734 1584 
Q 2563 1803 2427 1890 
Q 2291 1978 2150 2013 
Q 2047 2034 1813 2034 
L 1109 2034 
L 1109 0 
L 503 0 
z
M 1109 2559 
L 2413 2559 
Q 2828 2559 3062 2645 
Q 3297 2731 3419 2920 
Q 3541 3109 3541 3331 
Q 3541 3656 3305 3865 
Q 3069 4075 2559 4075 
L 1109 4075 
L 1109 2559 
z
" transform="scale(0.015625)"/>
        <path id="ArialMT-73" d="M 197 991 
L 753 1078 
Q 800 744 1014 566 
Q 1228 388 1613 388 
Q 2000 388 2187 545 
Q 2375 703 2375 916 
Q 2375 1106 2209 1216 
Q 2094 1291 1634 1406 
Q 1016 1563 777 1677 
Q 538 1791 414 1992 
Q 291 2194 291 2438 
Q 291 2659 392 2848 
Q 494 3038 669 3163 
Q 800 3259 1026 3326 
Q 1253 3394 1513 3394 
Q 1903 3394 2198 3281 
Q 2494 3169 2634 2976 
Q 2775 2784 2828 2463 
L 2278 2388 
Q 2241 2644 2061 2787 
Q 1881 2931 1553 2931 
Q 1166 2931 1000 2803 
Q 834 2675 834 2503 
Q 834 2394 903 2306 
Q 972 2216 1119 2156 
Q 1203 2125 1616 2013 
Q 2213 1853 2448 1751 
Q 2684 1650 2818 1456 
Q 2953 1263 2953 975 
Q 2953 694 2789 445 
Q 2625 197 2315 61 
Q 2006 -75 1616 -75 
Q 969 -75 630 194 
Q 291 463 197 991 
z
" transform="scale(0.015625)"/>
        <path id="ArialMT-6f" d="M 213 1659 
Q 213 2581 725 3025 
Q 1153 3394 1769 3394 
Q 2453 3394 2887 2945 
Q 3322 2497 3322 1706 
Q 3322 1066 3130 698 
Q 2938 331 2570 128 
Q 2203 -75 1769 -75 
Q 1072 -75 642 372 
Q 213 819 213 1659 
z
M 791 1659 
Q 791 1022 1069 705 
Q 1347 388 1769 388 
Q 2188 388 2466 706 
Q 2744 1025 2744 1678 
Q 2744 2294 2464 2611 
Q 2184 2928 1769 2928 
Q 1347 2928 1069 2612 
Q 791 2297 791 1659 
z
" transform="scale(0.015625)"/>
        <path id="ArialMT-6e" d="M 422 0 
L 422 3319 
L 928 3319 
L 928 2847 
Q 1294 3394 1984 3394 
Q 2284 3394 2536 3286 
Q 2788 3178 2913 3003 
Q 3038 2828 3088 2588 
Q 3119 2431 3119 2041 
L 3119 0 
L 2556 0 
L 2556 2019 
Q 2556 2363 2490 2533 
Q 2425 2703 2258 2804 
Q 2091 2906 1866 2906 
Q 1506 2906 1245 2678 
Q 984 2450 984 1813 
L 984 0 
L 422 0 
z
" transform="scale(0.015625)"/>
        <path id="ArialMT-61" d="M 2588 409 
Q 2275 144 1986 34 
Q 1697 -75 1366 -75 
Q 819 -75 525 192 
Q 231 459 231 875 
Q 231 1119 342 1320 
Q 453 1522 633 1644 
Q 813 1766 1038 1828 
Q 1203 1872 1538 1913 
Q 2219 1994 2541 2106 
Q 2544 2222 2544 2253 
Q 2544 2597 2384 2738 
Q 2169 2928 1744 2928 
Q 1347 2928 1158 2789 
Q 969 2650 878 2297 
L 328 2372 
Q 403 2725 575 2942 
Q 747 3159 1072 3276 
Q 1397 3394 1825 3394 
Q 2250 3394 2515 3294 
Q 2781 3194 2906 3042 
Q 3031 2891 3081 2659 
Q 3109 2516 3109 2141 
L 3109 1391 
Q 3109 606 3145 398 
Q 3181 191 3288 0 
L 2700 0 
Q 2613 175 2588 409 
z
M 2541 1666 
Q 2234 1541 1622 1453 
Q 1275 1403 1131 1340 
Q 988 1278 909 1158 
Q 831 1038 831 891 
Q 831 666 1001 516 
Q 1172 366 1500 366 
Q 1825 366 2078 508 
Q 2331 650 2450 897 
Q 2541 1088 2541 1459 
L 2541 1666 
z
" transform="scale(0.015625)"/>
        <path id="ArialMT-63" d="M 2588 1216 
L 3141 1144 
Q 3050 572 2676 248 
Q 2303 -75 1759 -75 
Q 1078 -75 664 370 
Q 250 816 250 1647 
Q 250 2184 428 2587 
Q 606 2991 970 3192 
Q 1334 3394 1763 3394 
Q 2303 3394 2647 3120 
Q 2991 2847 3088 2344 
L 2541 2259 
Q 2463 2594 2264 2762 
Q 2066 2931 1784 2931 
Q 1359 2931 1093 2626 
Q 828 2322 828 1663 
Q 828 994 1084 691 
Q 1341 388 1753 388 
Q 2084 388 2306 591 
Q 2528 794 2588 1216 
z
" transform="scale(0.015625)"/>
       </defs>
       <use xlink:href="#ArialMT-52"/>
       <use xlink:href="#ArialMT-65" x="72.216797"/>
       <use xlink:href="#ArialMT-73" x="127.832031"/>
       <use xlink:href="#ArialMT-6f" x="177.832031"/>
       <use xlink:href="#ArialMT-6e" x="233.447266"/>
       <use xlink:href="#ArialMT-61" x="289.0625"/>
       <use xlink:href="#ArialMT-6e" x="344.677734"/>
       <use xlink:href="#ArialMT-63" x="400.292969"/>
       <use xlink:href="#ArialMT-65" x="450.292969"/>
      </g>
     </g>
    </g>
    <g id="xtick_3">
     <g id="line2d_3">
      <g>
       <use xlink:href="#maa41c0b208" x="452.296875" y="626.4" style="stroke: #000000; stroke-width: 0.8"/>
      </g>
     </g>
     <g id="text_3">
      <!-- Q-Factor -->
      <g transform="translate(432.574219 640.557813) scale(0.1 -0.1)">
       <defs>
        <path id="ArialMT-51" d="M 3966 491 
Q 4388 200 4744 66 
L 4566 -356 
Q 4072 -178 3581 206 
Q 3072 -78 2456 -78 
Q 1834 -78 1328 222 
Q 822 522 548 1065 
Q 275 1609 275 2291 
Q 275 2969 550 3525 
Q 825 4081 1333 4372 
Q 1841 4663 2469 4663 
Q 3103 4663 3612 4361 
Q 4122 4059 4389 3517 
Q 4656 2975 4656 2294 
Q 4656 1728 4484 1276 
Q 4313 825 3966 491 
z
M 2631 1266 
Q 3156 1119 3497 828 
Q 4031 1316 4031 2294 
Q 4031 2850 3842 3265 
Q 3653 3681 3289 3911 
Q 2925 4141 2472 4141 
Q 1794 4141 1347 3677 
Q 900 3213 900 2291 
Q 900 1397 1342 919 
Q 1784 441 2472 441 
Q 2797 441 3084 563 
Q 2800 747 2484 825 
L 2631 1266 
z
" transform="scale(0.015625)"/>
        <path id="ArialMT-2d" d="M 203 1375 
L 203 1941 
L 1931 1941 
L 1931 1375 
L 203 1375 
z
" transform="scale(0.015625)"/>
        <path id="ArialMT-46" d="M 525 0 
L 525 4581 
L 3616 4581 
L 3616 4041 
L 1131 4041 
L 1131 2622 
L 3281 2622 
L 3281 2081 
L 1131 2081 
L 1131 0 
L 525 0 
z
" transform="scale(0.015625)"/>
        <path id="ArialMT-72" d="M 416 0 
L 416 3319 
L 922 3319 
L 922 2816 
Q 1116 3169 1280 3281 
Q 1444 3394 1641 3394 
Q 1925 3394 2219 3213 
L 2025 2691 
Q 1819 2813 1613 2813 
Q 1428 2813 1281 2702 
Q 1134 2591 1072 2394 
Q 978 2094 978 1738 
L 978 0 
L 416 0 
z
" transform="scale(0.015625)"/>
       </defs>
       <use xlink:href="#ArialMT-51"/>
       <use xlink:href="#ArialMT-2d" x="77.783203"/>
       <use xlink:href="#ArialMT-46" x="111.083984"/>
       <use xlink:href="#ArialMT-61" x="172.167969"/>
       <use xlink:href="#ArialMT-63" x="227.783203"/>
       <use xlink:href="#ArialMT-74" x="277.783203"/>
       <use xlink:href="#ArialMT-6f" x="305.566406"/>
       <use xlink:href="#ArialMT-72" x="361.181641"/>
      </g>
     </g>
    </g>
    <g id="xtick_4">
     <g id="line2d_4">
      <g>
       <use xlink:href="#maa41c0b208" x="591.796875" y="626.4" style="stroke: #000000; stroke-width: 0.8"/>
      </g>
     </g>
     <g id="text_4">
      <!-- Phase -->
      <g transform="translate(577.620312 640.557813) scale(0.1 -0.1)">
       <defs>
        <path id="ArialMT-50" d="M 494 0 
L 494 4581 
L 2222 4581 
Q 2678 4581 2919 4538 
Q 3256 4481 3484 4323 
Q 3713 4166 3852 3881 
Q 3991 3597 3991 3256 
Q 3991 2672 3619 2267 
Q 3247 1863 2275 1863 
L 1100 1863 
L 1100 0 
L 494 0 
z
M 1100 2403 
L 2284 2403 
Q 2872 2403 3119 2622 
Q 3366 2841 3366 3238 
Q 3366 3525 3220 3729 
Q 3075 3934 2838 4000 
Q 2684 4041 2272 4041 
L 1100 4041 
L 1100 2403 
z
" transform="scale(0.015625)"/>
        <path id="ArialMT-68" d="M 422 0 
L 422 4581 
L 984 4581 
L 984 2938 
Q 1378 3394 1978 3394 
Q 2347 3394 2619 3248 
Q 2891 3103 3008 2847 
Q 3125 2591 3125 2103 
L 3125 0 
L 2563 0 
L 2563 2103 
Q 2563 2525 2380 2717 
Q 2197 2909 1863 2909 
Q 1613 2909 1392 2779 
Q 1172 2650 1078 2428 
Q 984 2206 984 1816 
L 984 0 
L 422 0 
z
" transform="scale(0.015625)"/>
       </defs>
       <use xlink:href="#ArialMT-50"/>
       <use xlink:href="#ArialMT-68" x="66.699219"/>
       <use xlink:href="#ArialMT-61" x="122.314453"/>
       <use xlink:href="#ArialMT-73" x="177.929688"/>
       <use xlink:href="#ArialMT-65" x="227.929688"/>
      </g>
     </g>
    </g>
    <g id="text_5">
     <!-- Params -->
     <g transform="translate(365.321094 653.703125) scale(0.1 -0.1)">
      <use xlink:href="#ArialMT-50"/>
      <use xlink:href="#ArialMT-61" x="66.699219"/>
      <use xlink:href="#ArialMT-72" x="122.314453"/>
      <use xlink:href="#ArialMT-61" x="155.615234"/>
      <use xlink:href="#ArialMT-6d" x="211.230469"/>
      <use xlink:href="#ArialMT-73" x="294.53125"/>
     </g>
    </g>
   </g>
   <g id="matplotlib.axis_2">
    <g id="ytick_1">
     <g id="line2d_5">
      <defs>
       <path id="m38937b5b1c" d="M 0 0 
L -3.5 0 
" style="stroke: #000000; stroke-width: 0.8"/>
      </defs>
      <g>
       <use xlink:href="#m38937b5b1c" x="103.546875" y="586.813287" style="stroke: #000000; stroke-width: 0.8"/>
      </g>
     </g>
     <g id="text_6">
      <!-- 6 -->
      <g transform="translate(85.145313 590.392193) scale(0.1 -0.1)">
       <defs>
        <path id="ArialMT-2212" d="M 3381 1997 
L 356 1997 
L 356 2522 
L 3381 2522 
L 3381 1997 
z
" transform="scale(0.015625)"/>
        <path id="ArialMT-36" d="M 3184 3459 
L 2625 3416 
Q 2550 3747 2413 3897 
Q 2184 4138 1850 4138 
Q 1581 4138 1378 3988 
Q 1113 3794 959 3422 
Q 806 3050 800 2363 
Q 1003 2672 1297 2822 
Q 1591 2972 1913 2972 
Q 2475 2972 2870 2558 
Q 3266 2144 3266 1488 
Q 3266 1056 3080 686 
Q 2894 316 2569 119 
Q 2244 -78 1831 -78 
Q 1128 -78 684 439 
Q 241 956 241 2144 
Q 241 3472 731 4075 
Q 1159 4600 1884 4600 
Q 2425 4600 2770 4297 
Q 3116 3994 3184 3459 
z
M 888 1484 
Q 888 1194 1011 928 
Q 1134 663 1356 523 
Q 1578 384 1822 384 
Q 2178 384 2434 671 
Q 2691 959 2691 1453 
Q 2691 1928 2437 2201 
Q 2184 2475 1800 2475 
Q 1419 2475 1153 2201 
Q 888 1928 888 1484 
z
" transform="scale(0.015625)"/>
       </defs>
       <use xlink:href="#ArialMT-2212"/>
       <use xlink:href="#ArialMT-36" x="58.398438"/>
      </g>
     </g>
    </g>
    <g id="ytick_2">
     <g id="line2d_6">
      <g>
       <use xlink:href="#m38937b5b1c" x="103.546875" y="500.086333" style="stroke: #000000; stroke-width: 0.8"/>
      </g>
     </g>
     <g id="text_7">
      <!-- 4 -->
      <g transform="translate(85.145313 503.665239) scale(0.1 -0.1)">
       <defs>
        <path id="ArialMT-34" d="M 2069 0 
L 2069 1097 
L 81 1097 
L 81 1613 
L 2172 4581 
L 2631 4581 
L 2631 1613 
L 3250 1613 
L 3250 1097 
L 2631 1097 
L 2631 0 
L 2069 0 
z
M 2069 1613 
L 2069 3678 
L 634 1613 
L 2069 1613 
z
" transform="scale(0.015625)"/>
       </defs>
       <use xlink:href="#ArialMT-2212"/>
       <use xlink:href="#ArialMT-34" x="58.398438"/>
      </g>
     </g>
    </g>
    <g id="ytick_3">
     <g id="line2d_7">
      <g>
       <use xlink:href="#m38937b5b1c" x="103.546875" y="413.359379" style="stroke: #000000; stroke-width: 0.8"/>
      </g>
     </g>
     <g id="text_8">
      <!-- 2 -->
      <g transform="translate(85.145313 416.938285) scale(0.1 -0.1)">
       <defs>
        <path id="ArialMT-32" d="M 3222 541 
L 3222 0 
L 194 0 
Q 188 203 259 391 
Q 375 700 629 1000 
Q 884 1300 1366 1694 
Q 2113 2306 2375 2664 
Q 2638 3022 2638 3341 
Q 2638 3675 2398 3904 
Q 2159 4134 1775 4134 
Q 1369 4134 1125 3890 
Q 881 3647 878 3216 
L 300 3275 
Q 359 3922 746 4261 
Q 1134 4600 1788 4600 
Q 2447 4600 2831 4234 
Q 3216 3869 3216 3328 
Q 3216 3053 3103 2787 
Q 2991 2522 2730 2228 
Q 2469 1934 1863 1422 
Q 1356 997 1212 845 
Q 1069 694 975 541 
L 3222 541 
z
" transform="scale(0.015625)"/>
       </defs>
       <use xlink:href="#ArialMT-2212"/>
       <use xlink:href="#ArialMT-32" x="58.398438"/>
      </g>
     </g>
    </g>
    <g id="ytick_4">
     <g id="line2d_8">
      <g>
       <use xlink:href="#m38937b5b1c" x="103.546875" y="326.632425" style="stroke: #000000; stroke-width: 0.8"/>
      </g>
     </g>
     <g id="text_9">
      <!-- 0 -->
      <g transform="translate(90.985938 330.211331) scale(0.1 -0.1)">
       <defs>
        <path id="ArialMT-30" d="M 266 2259 
Q 266 3072 433 3567 
Q 600 4063 929 4331 
Q 1259 4600 1759 4600 
Q 2128 4600 2406 4451 
Q 2684 4303 2865 4023 
Q 3047 3744 3150 3342 
Q 3253 2941 3253 2259 
Q 3253 1453 3087 958 
Q 2922 463 2592 192 
Q 2263 -78 1759 -78 
Q 1097 -78 719 397 
Q 266 969 266 2259 
z
M 844 2259 
Q 844 1131 1108 757 
Q 1372 384 1759 384 
Q 2147 384 2411 759 
Q 2675 1134 2675 2259 
Q 2675 3391 2411 3762 
Q 2147 4134 1753 4134 
Q 1366 4134 1134 3806 
Q 844 3388 844 2259 
z
" transform="scale(0.015625)"/>
       </defs>
       <use xlink:href="#ArialMT-30"/>
      </g>
     </g>
    </g>
    <g id="ytick_5">
     <g id="line2d_9">
      <g>
       <use xlink:href="#m38937b5b1c" x="103.546875" y="239.90547" style="stroke: #000000; stroke-width: 0.8"/>
      </g>
     </g>
     <g id="text_10">
      <!-- 2 -->
      <g transform="translate(90.985938 243.484377) scale(0.1 -0.1)">
       <use xlink:href="#ArialMT-32"/>
      </g>
     </g>
    </g>
    <g id="ytick_6">
     <g id="line2d_10">
      <g>
       <use xlink:href="#m38937b5b1c" x="103.546875" y="153.178516" style="stroke: #000000; stroke-width: 0.8"/>
      </g>
     </g>
     <g id="text_11">
      <!-- 4 -->
      <g transform="translate(90.985938 156.757423) scale(0.1 -0.1)">
       <use xlink:href="#ArialMT-34"/>
      </g>
     </g>
    </g>
    <g id="text_12">
     <!-- Normalized Params -->
     <g transform="translate(79.157813 393.099219) rotate(-90) scale(0.1 -0.1)">
      <defs>
       <path id="ArialMT-4e" d="M 488 0 
L 488 4581 
L 1109 4581 
L 3516 984 
L 3516 4581 
L 4097 4581 
L 4097 0 
L 3475 0 
L 1069 3600 
L 1069 0 
L 488 0 
z
" transform="scale(0.015625)"/>
       <path id="ArialMT-7a" d="M 125 0 
L 125 456 
L 2238 2881 
Q 1878 2863 1603 2863 
L 250 2863 
L 250 3319 
L 2963 3319 
L 2963 2947 
L 1166 841 
L 819 456 
Q 1197 484 1528 484 
L 3063 484 
L 3063 0 
L 125 0 
z
" transform="scale(0.015625)"/>
       <path id="ArialMT-20" transform="scale(0.015625)"/>
      </defs>
      <use xlink:href="#ArialMT-4e"/>
      <use xlink:href="#ArialMT-6f" x="72.216797"/>
      <use xlink:href="#ArialMT-72" x="127.832031"/>
      <use xlink:href="#ArialMT-6d" x="161.132812"/>
      <use xlink:href="#ArialMT-61" x="244.433594"/>
      <use xlink:href="#ArialMT-6c" x="300.048828"/>
      <use xlink:href="#ArialMT-69" x="322.265625"/>
      <use xlink:href="#ArialMT-7a" x="344.482422"/>
      <use xlink:href="#ArialMT-65" x="394.482422"/>
      <use xlink:href="#ArialMT-64" x="450.097656"/>
      <use xlink:href="#ArialMT-20" x="505.712891"/>
      <use xlink:href="#ArialMT-50" x="533.496094"/>
      <use xlink:href="#ArialMT-61" x="600.195312"/>
      <use xlink:href="#ArialMT-72" x="655.810547"/>
      <use xlink:href="#ArialMT-61" x="689.111328"/>
      <use xlink:href="#ArialMT-6d" x="744.726562"/>
      <use xlink:href="#ArialMT-73" x="828.027344"/>
     </g>
    </g>
   </g>
   <g id="line2d_11">
    <path d="M 137.278813 358.682111 
L 173.296875 358.682111 
" clip-path="url(#p43f1afb69c)" style="fill: none; stroke-dasharray: 3.375,3.375; stroke-dashoffset: 0; stroke: #3f3f3f; stroke-width: 1.5"/>
   </g>
   <g id="line2d_12">
    <path d="M 126.160134 321.54377 
L 173.296875 321.54377 
" clip-path="url(#p43f1afb69c)" style="fill: none; stroke-dasharray: 6.75,6.75; stroke-dashoffset: 0; stroke: #3f3f3f; stroke-width: 1.5"/>
   </g>
   <g id="line2d_13">
    <path d="M 120.158819 291.826253 
L 173.296875 291.826253 
" clip-path="url(#p43f1afb69c)" style="fill: none; stroke-dasharray: 3.375,3.375; stroke-dashoffset: 0; stroke: #3f3f3f; stroke-width: 1.5"/>
   </g>
   <g id="line2d_14">
    <path d="M 173.296875 359.535275 
L 209.94669 359.535275 
" clip-path="url(#p43f1afb69c)" style="fill: none; stroke-dasharray: 3.375,3.375; stroke-dashoffset: 0; stroke: #3f3f3f; stroke-width: 1.5"/>
   </g>
   <g id="line2d_15">
    <path d="M 173.296875 322.615824 
L 224.2993 322.615824 
" clip-path="url(#p43f1afb69c)" style="fill: none; stroke-dasharray: 6.75,6.75; stroke-dashoffset: 0; stroke: #3f3f3f; stroke-width: 1.5"/>
   </g>
   <g id="line2d_16">
    <path d="M 173.296875 293.30702 
L 226.173723 293.30702 
" clip-path="url(#p43f1afb69c)" style="fill: none; stroke-dasharray: 3.375,3.375; stroke-dashoffset: 0; stroke: #3f3f3f; stroke-width: 1.5"/>
   </g>
   <g id="line2d_17">
    <path d="M 283.872049 341.465071 
L 312.796875 341.465071 
" clip-path="url(#p43f1afb69c)" style="fill: none; stroke-dasharray: 3.375,3.375; stroke-dashoffset: 0; stroke: #3f3f3f; stroke-width: 1.5"/>
   </g>
   <g id="line2d_18">
    <path d="M 269.902888 314.721694 
L 312.796875 314.721694 
" clip-path="url(#p43f1afb69c)" style="fill: none; stroke-dasharray: 6.75,6.75; stroke-dashoffset: 0; stroke: #3f3f3f; stroke-width: 1.5"/>
   </g>
   <g id="line2d_19">
    <path d="M 259.922444 296.711737 
L 312.796875 296.711737 
" clip-path="url(#p43f1afb69c)" style="fill: none; stroke-dasharray: 3.375,3.375; stroke-dashoffset: 0; stroke: #3f3f3f; stroke-width: 1.5"/>
   </g>
   <g id="line2d_20">
    <path d="M 312.796875 345.224724 
L 337.276101 345.224724 
" clip-path="url(#p43f1afb69c)" style="fill: none; stroke-dasharray: 3.375,3.375; stroke-dashoffset: 0; stroke: #3f3f3f; stroke-width: 1.5"/>
   </g>
   <g id="line2d_21">
    <path d="M 312.796875 315.028848 
L 354.174674 315.028848 
" clip-path="url(#p43f1afb69c)" style="fill: none; stroke-dasharray: 6.75,6.75; stroke-dashoffset: 0; stroke: #3f3f3f; stroke-width: 1.5"/>
   </g>
   <g id="line2d_22">
    <path d="M 312.796875 296.159391 
L 367.786201 296.159391 
" clip-path="url(#p43f1afb69c)" style="fill: none; stroke-dasharray: 3.375,3.375; stroke-dashoffset: 0; stroke: #3f3f3f; stroke-width: 1.5"/>
   </g>
   <g id="line2d_23">
    <path d="M 402.16651 332.859902 
L 452.296875 332.859902 
" clip-path="url(#p43f1afb69c)" style="fill: none; stroke-dasharray: 3.375,3.375; stroke-dashoffset: 0; stroke: #3f3f3f; stroke-width: 1.5"/>
   </g>
   <g id="line2d_24">
    <path d="M 406.163371 327.862906 
L 452.296875 327.862906 
" clip-path="url(#p43f1afb69c)" style="fill: none; stroke-dasharray: 6.75,6.75; stroke-dashoffset: 0; stroke: #3f3f3f; stroke-width: 1.5"/>
   </g>
   <g id="line2d_25">
    <path d="M 405.645613 322.035221 
L 452.296875 322.035221 
" clip-path="url(#p43f1afb69c)" style="fill: none; stroke-dasharray: 3.375,3.375; stroke-dashoffset: 0; stroke: #3f3f3f; stroke-width: 1.5"/>
   </g>
   <g id="line2d_26">
    <path d="M 452.296875 342.140032 
L 504.446977 342.140032 
" clip-path="url(#p43f1afb69c)" style="fill: none; stroke-dasharray: 3.375,3.375; stroke-dashoffset: 0; stroke: #3f3f3f; stroke-width: 1.5"/>
   </g>
   <g id="line2d_27">
    <path d="M 452.296875 334.207746 
L 507.538795 334.207746 
" clip-path="url(#p43f1afb69c)" style="fill: none; stroke-dasharray: 6.75,6.75; stroke-dashoffset: 0; stroke: #3f3f3f; stroke-width: 1.5"/>
   </g>
   <g id="line2d_28">
    <path d="M 452.296875 325.367787 
L 496.668585 325.367787 
" clip-path="url(#p43f1afb69c)" style="fill: none; stroke-dasharray: 3.375,3.375; stroke-dashoffset: 0; stroke: #3f3f3f; stroke-width: 1.5"/>
   </g>
   <g id="line2d_29">
    <path d="M 547.433871 327.462086 
L 591.796875 327.462086 
" clip-path="url(#p43f1afb69c)" style="fill: none; stroke-dasharray: 3.375,3.375; stroke-dashoffset: 0; stroke: #3f3f3f; stroke-width: 1.5"/>
   </g>
   <g id="line2d_30">
    <path d="M 550.057618 269.250052 
L 591.796875 269.250052 
" clip-path="url(#p43f1afb69c)" style="fill: none; stroke-dasharray: 6.75,6.75; stroke-dashoffset: 0; stroke: #3f3f3f; stroke-width: 1.5"/>
   </g>
   <g id="line2d_31">
    <path d="M 537.351237 266.993226 
L 591.796875 266.993226 
" clip-path="url(#p43f1afb69c)" style="fill: none; stroke-dasharray: 3.375,3.375; stroke-dashoffset: 0; stroke: #3f3f3f; stroke-width: 1.5"/>
   </g>
   <g id="line2d_32">
    <path d="M 591.796875 383.775416 
L 618.755198 383.775416 
" clip-path="url(#p43f1afb69c)" style="fill: none; stroke-dasharray: 3.375,3.375; stroke-dashoffset: 0; stroke: #3f3f3f; stroke-width: 1.5"/>
   </g>
   <g id="line2d_33">
    <path d="M 591.796875 327.949736 
L 647.038795 327.949736 
" clip-path="url(#p43f1afb69c)" style="fill: none; stroke-dasharray: 6.75,6.75; stroke-dashoffset: 0; stroke: #3f3f3f; stroke-width: 1.5"/>
   </g>
   <g id="line2d_34">
    <path d="M 591.796875 269.61907 
L 629.232808 269.61907 
" clip-path="url(#p43f1afb69c)" style="fill: none; stroke-dasharray: 3.375,3.375; stroke-dashoffset: 0; stroke: #3f3f3f; stroke-width: 1.5"/>
   </g>
   <g id="patch_5">
    <path d="M 103.546875 626.4 
L 103.546875 72 
" style="fill: none; stroke: #000000; stroke-width: 0.8; stroke-linejoin: miter; stroke-linecap: square"/>
   </g>
   <g id="patch_6">
    <path d="M 661.546875 626.4 
L 661.546875 72 
" style="fill: none; stroke: #000000; stroke-width: 0.8; stroke-linejoin: miter; stroke-linecap: square"/>
   </g>
   <g id="patch_7">
    <path d="M 103.546875 626.4 
L 661.546875 626.4 
" style="fill: none; stroke: #000000; stroke-width: 0.8; stroke-linejoin: miter; stroke-linecap: square"/>
   </g>
   <g id="patch_8">
    <path d="M 103.546875 72 
L 661.546875 72 
" style="fill: none; stroke: #000000; stroke-width: 0.8; stroke-linejoin: miter; stroke-linecap: square"/>
   </g>
   <g id="legend_1">
    <g id="patch_9">
     <path d="M 596.429688 122.553125 
L 654.546875 122.553125 
Q 656.546875 122.553125 656.546875 120.553125 
L 656.546875 79 
Q 656.546875 77 654.546875 77 
L 596.429688 77 
Q 594.429688 77 594.429688 79 
L 594.429688 120.553125 
Q 594.429688 122.553125 596.429688 122.553125 
z
" style="fill: #ffffff; opacity: 0.8; stroke: #cccccc; stroke-linejoin: miter"/>
    </g>
    <g id="text_13">
     <!-- Fit Type -->
     <g transform="translate(607.792969 88.157813) scale(0.1 -0.1)">
      <defs>
       <path id="ArialMT-54" d="M 1659 0 
L 1659 4041 
L 150 4041 
L 150 4581 
L 3781 4581 
L 3781 4041 
L 2266 4041 
L 2266 0 
L 1659 0 
z
" transform="scale(0.015625)"/>
       <path id="ArialMT-79" d="M 397 -1278 
L 334 -750 
Q 519 -800 656 -800 
Q 844 -800 956 -737 
Q 1069 -675 1141 -563 
Q 1194 -478 1313 -144 
Q 1328 -97 1363 -6 
L 103 3319 
L 709 3319 
L 1400 1397 
Q 1534 1031 1641 628 
Q 1738 1016 1872 1384 
L 2581 3319 
L 3144 3319 
L 1881 -56 
Q 1678 -603 1566 -809 
Q 1416 -1088 1222 -1217 
Q 1028 -1347 759 -1347 
Q 597 -1347 397 -1278 
z
" transform="scale(0.015625)"/>
      </defs>
      <use xlink:href="#ArialMT-46"/>
      <use xlink:href="#ArialMT-69" x="61.083984"/>
      <use xlink:href="#ArialMT-74" x="83.300781"/>
      <use xlink:href="#ArialMT-20" x="111.083984"/>
      <use xlink:href="#ArialMT-54" x="137.117188"/>
      <use xlink:href="#ArialMT-79" x="192.701172"/>
      <use xlink:href="#ArialMT-70" x="242.701172"/>
      <use xlink:href="#ArialMT-65" x="298.316406"/>
     </g>
    </g>
    <g id="patch_10">
     <path d="M 598.429688 102.420313 
L 618.429688 102.420313 
L 618.429688 95.420313 
L 598.429688 95.420313 
z
" style="fill: #3274a1; stroke: #3f3f3f; stroke-width: 0.75; stroke-linejoin: miter"/>
    </g>
    <g id="text_14">
     <!-- NN -->
     <g transform="translate(626.429688 102.420313) scale(0.1 -0.1)">
      <use xlink:href="#ArialMT-4e"/>
      <use xlink:href="#ArialMT-4e" x="72.216797"/>
     </g>
    </g>
    <g id="patch_11">
     <path d="M 598.429688 116.565625 
L 618.429688 116.565625 
L 618.429688 109.565625 
L 598.429688 109.565625 
z
" style="fill: #e1812c; stroke: #3f3f3f; stroke-width: 0.75; stroke-linejoin: miter"/>
    </g>
    <g id="text_15">
     <!-- LSQF -->
     <g transform="translate(626.429688 116.565625) scale(0.1 -0.1)">
      <defs>
       <path id="ArialMT-4c" d="M 469 0 
L 469 4581 
L 1075 4581 
L 1075 541 
L 3331 541 
L 3331 0 
L 469 0 
z
" transform="scale(0.015625)"/>
       <path id="ArialMT-53" d="M 288 1472 
L 859 1522 
Q 900 1178 1048 958 
Q 1197 738 1509 602 
Q 1822 466 2213 466 
Q 2559 466 2825 569 
Q 3091 672 3220 851 
Q 3350 1031 3350 1244 
Q 3350 1459 3225 1620 
Q 3100 1781 2813 1891 
Q 2628 1963 1997 2114 
Q 1366 2266 1113 2400 
Q 784 2572 623 2826 
Q 463 3081 463 3397 
Q 463 3744 659 4045 
Q 856 4347 1234 4503 
Q 1613 4659 2075 4659 
Q 2584 4659 2973 4495 
Q 3363 4331 3572 4012 
Q 3781 3694 3797 3291 
L 3216 3247 
Q 3169 3681 2898 3903 
Q 2628 4125 2100 4125 
Q 1550 4125 1298 3923 
Q 1047 3722 1047 3438 
Q 1047 3191 1225 3031 
Q 1400 2872 2139 2705 
Q 2878 2538 3153 2413 
Q 3553 2228 3743 1945 
Q 3934 1663 3934 1294 
Q 3934 928 3725 604 
Q 3516 281 3123 101 
Q 2731 -78 2241 -78 
Q 1619 -78 1198 103 
Q 778 284 539 648 
Q 300 1013 288 1472 
z
" transform="scale(0.015625)"/>
      </defs>
      <use xlink:href="#ArialMT-4c"/>
      <use xlink:href="#ArialMT-53" x="55.615234"/>
      <use xlink:href="#ArialMT-51" x="122.314453"/>
      <use xlink:href="#ArialMT-46" x="200.097656"/>
     </g>
    </g>
   </g>
  </g>
 </g>
 <defs>
  <clipPath id="p43f1afb69c">
   <rect x="103.546875" y="72" width="558" height="554.4"/>
  </clipPath>
 </defs>
</svg>
