<?xml version="1.0" encoding="utf-8" standalone="no"?>
<!DOCTYPE svg PUBLIC "-//W3C//DTD SVG 1.1//EN"
  "http://www.w3.org/Graphics/SVG/1.1/DTD/svg11.dtd">
<svg xmlns:xlink="http://www.w3.org/1999/xlink" width="733.546875pt" height="727.690625pt" viewBox="0 0 733.546875 727.690625" xmlns="http://www.w3.org/2000/svg" version="1.1">
 <metadata>
  <rdf:RDF xmlns:dc="http://purl.org/dc/elements/1.1/" xmlns:cc="http://creativecommons.org/ns#" xmlns:rdf="http://www.w3.org/1999/02/22-rdf-syntax-ns#">
   <cc:Work>
    <dc:type rdf:resource="http://purl.org/dc/dcmitype/StillImage"/>
    <dc:date>2022-12-31T17:09:03.009479</dc:date>
    <dc:format>image/svg+xml</dc:format>
    <dc:creator>
     <cc:Agent>
      <dc:title>Matplotlib v3.6.2, https://matplotlib.org/</dc:title>
     </cc:Agent>
    </dc:creator>
   </cc:Work>
  </rdf:RDF>
 </metadata>
 <defs>
  <style type="text/css">*{stroke-linejoin: round; stroke-linecap: butt}</style>
 </defs>
 <g id="figure_1">
  <g id="patch_1">
   <path d="M 0 727.690625 
L 733.546875 727.690625 
L 733.546875 -0 
L 0 -0 
z
" style="fill: #ffffff"/>
  </g>
  <g id="axes_1">
   <g id="patch_2">
    <path d="M 103.546875 626.4 
L 661.546875 626.4 
L 661.546875 72 
L 103.546875 72 
z
" style="fill: #ffffff"/>
   </g>
   <g id="patch_3">
    <path d="M 173.296875 326.632425 
L 173.296875 326.632425 
L 173.296875 326.632425 
L 173.296875 326.632425 
z
" clip-path="url(#p682957e40c)" style="fill: #3274a1; stroke: #3f3f3f; stroke-width: 0.75; stroke-linejoin: miter"/>
   </g>
   <g id="PolyCollection_1">
    <defs>
     <path id="me22d59758f" d="M 173.296875 -297.06096 
L 173.291026 -297.06096 
L 173.223291 -299.300175 
L 172.759928 -301.53939 
L 170.972134 -303.778605 
L 167.056808 -306.01782 
L 162.104589 -308.257034 
L 158.298625 -310.496249 
L 156.245215 -312.735464 
L 155.304199 -314.974679 
L 155.002383 -317.213894 
L 154.937858 -319.453109 
L 154.710442 -321.692324 
L 154.175509 -323.931539 
L 153.373156 -326.170754 
L 152.40585 -328.409969 
L 151.38009 -330.649184 
L 150.410464 -332.888398 
L 149.478637 -335.127613 
L 148.381856 -337.366828 
L 147.131681 -339.606043 
L 145.971564 -341.845258 
L 145.008835 -344.084473 
L 144.15624 -346.323688 
L 143.255199 -348.562903 
L 142.216202 -350.802118 
L 141.027786 -353.041333 
L 139.776311 -355.280547 
L 138.602361 -357.519762 
L 137.638434 -359.758977 
L 137.001727 -361.998192 
L 136.724562 -364.237407 
L 136.694841 -366.476622 
L 136.701826 -368.715837 
L 136.712299 -370.955052 
L 136.790321 -373.194267 
L 136.763745 -375.433482 
L 136.479213 -377.672697 
L 135.966021 -379.911911 
L 135.182963 -382.151126 
L 134.025275 -384.390341 
L 132.509472 -386.629556 
L 130.791244 -388.868771 
L 128.980613 -391.107986 
L 127.170402 -393.347201 
L 125.627285 -395.586416 
L 124.491591 -397.825631 
L 123.620064 -400.064846 
L 122.890431 -402.304061 
L 122.350523 -404.543275 
L 122.043213 -406.78249 
L 121.857301 -409.021705 
L 121.717422 -411.26092 
L 121.578147 -413.500135 
L 121.296265 -415.73935 
L 120.783023 -417.978565 
L 120.146132 -420.21778 
L 119.500157 -422.456995 
L 118.877331 -424.69621 
L 118.303408 -426.935425 
L 117.813612 -429.174639 
L 117.496875 -431.413854 
L 117.509154 -433.653069 
L 117.995553 -435.892284 
L 118.994548 -438.131499 
L 120.545928 -440.370714 
L 122.825637 -442.609929 
L 125.824229 -444.849144 
L 129.115949 -447.088359 
L 132.31585 -449.327574 
L 135.312773 -451.566788 
L 137.981895 -453.806003 
L 140.133675 -456.045218 
L 141.836891 -458.284433 
L 143.385579 -460.523648 
L 145.002804 -462.762863 
L 146.754775 -465.002078 
L 148.721778 -467.241293 
L 150.907749 -469.480508 
L 153.170536 -471.719723 
L 155.488705 -473.958938 
L 157.949762 -476.198152 
L 160.451802 -478.437367 
L 162.724933 -480.676582 
L 164.588563 -482.915797 
L 166.053774 -485.155012 
L 167.217647 -487.394227 
L 168.221167 -489.633442 
L 169.231119 -491.872657 
L 170.277852 -494.111872 
L 171.237138 -496.351087 
L 172.024208 -498.590302 
L 172.610118 -500.829516 
L 172.972262 -503.068731 
L 173.143068 -505.307946 
L 173.207507 -507.547161 
L 173.241646 -509.786376 
L 173.26947 -512.025591 
L 173.286996 -514.264806 
L 173.29444 -516.504021 
L 173.296505 -518.743236 
L 173.296875 -518.743236 
L 173.296875 -518.743236 
L 173.296875 -516.504021 
L 173.296875 -514.264806 
L 173.296875 -512.025591 
L 173.296875 -509.786376 
L 173.296875 -507.547161 
L 173.296875 -505.307946 
L 173.296875 -503.068731 
L 173.296875 -500.829516 
L 173.296875 -498.590302 
L 173.296875 -496.351087 
L 173.296875 -494.111872 
L 173.296875 -491.872657 
L 173.296875 -489.633442 
L 173.296875 -487.394227 
L 173.296875 -485.155012 
L 173.296875 -482.915797 
L 173.296875 -480.676582 
L 173.296875 -478.437367 
L 173.296875 -476.198152 
L 173.296875 -473.958938 
L 173.296875 -471.719723 
L 173.296875 -469.480508 
L 173.296875 -467.241293 
L 173.296875 -465.002078 
L 173.296875 -462.762863 
L 173.296875 -460.523648 
L 173.296875 -458.284433 
L 173.296875 -456.045218 
L 173.296875 -453.806003 
L 173.296875 -451.566788 
L 173.296875 -449.327574 
L 173.296875 -447.088359 
L 173.296875 -444.849144 
L 173.296875 -442.609929 
L 173.296875 -440.370714 
L 173.296875 -438.131499 
L 173.296875 -435.892284 
L 173.296875 -433.653069 
L 173.296875 -431.413854 
L 173.296875 -429.174639 
L 173.296875 -426.935425 
L 173.296875 -424.69621 
L 173.296875 -422.456995 
L 173.296875 -420.21778 
L 173.296875 -417.978565 
L 173.296875 -415.73935 
L 173.296875 -413.500135 
L 173.296875 -411.26092 
L 173.296875 -409.021705 
L 173.296875 -406.78249 
L 173.296875 -404.543275 
L 173.296875 -402.304061 
L 173.296875 -400.064846 
L 173.296875 -397.825631 
L 173.296875 -395.586416 
L 173.296875 -393.347201 
L 173.296875 -391.107986 
L 173.296875 -388.868771 
L 173.296875 -386.629556 
L 173.296875 -384.390341 
L 173.296875 -382.151126 
L 173.296875 -379.911911 
L 173.296875 -377.672697 
L 173.296875 -375.433482 
L 173.296875 -373.194267 
L 173.296875 -370.955052 
L 173.296875 -368.715837 
L 173.296875 -366.476622 
L 173.296875 -364.237407 
L 173.296875 -361.998192 
L 173.296875 -359.758977 
L 173.296875 -357.519762 
L 173.296875 -355.280547 
L 173.296875 -353.041333 
L 173.296875 -350.802118 
L 173.296875 -348.562903 
L 173.296875 -346.323688 
L 173.296875 -344.084473 
L 173.296875 -341.845258 
L 173.296875 -339.606043 
L 173.296875 -337.366828 
L 173.296875 -335.127613 
L 173.296875 -332.888398 
L 173.296875 -330.649184 
L 173.296875 -328.409969 
L 173.296875 -326.170754 
L 173.296875 -323.931539 
L 173.296875 -321.692324 
L 173.296875 -319.453109 
L 173.296875 -317.213894 
L 173.296875 -314.974679 
L 173.296875 -312.735464 
L 173.296875 -310.496249 
L 173.296875 -308.257034 
L 173.296875 -306.01782 
L 173.296875 -303.778605 
L 173.296875 -301.53939 
L 173.296875 -299.300175 
L 173.296875 -297.06096 
z
" style="stroke: #3f3f3f; stroke-width: 1.5"/>
    </defs>
    <g clip-path="url(#p682957e40c)">
     <use xlink:href="#me22d59758f" x="0" y="727.690625" style="fill: #3274a1; stroke: #3f3f3f; stroke-width: 1.5"/>
    </g>
   </g>
   <g id="patch_4">
    <path d="M 173.296875 326.632425 
L 173.296875 326.632425 
L 173.296875 326.632425 
L 173.296875 326.632425 
z
" clip-path="url(#p682957e40c)" style="fill: #e1812c; stroke: #3f3f3f; stroke-width: 0.75; stroke-linejoin: miter"/>
   </g>
   <g id="PolyCollection_2">
    <defs>
     <path id="m6b5498bf2a" d="M 175.368039 -306.727712 
L 173.296875 -306.727712 
L 173.296875 -308.970971 
L 173.296875 -311.21423 
L 173.296875 -313.457489 
L 173.296875 -315.700748 
L 173.296875 -317.944007 
L 173.296875 -320.187266 
L 173.296875 -322.430525 
L 173.296875 -324.673784 
L 173.296875 -326.917043 
L 173.296875 -329.160302 
L 173.296875 -331.403561 
L 173.296875 -333.64682 
L 173.296875 -335.890079 
L 173.296875 -338.133338 
L 173.296875 -340.376597 
L 173.296875 -342.619856 
L 173.296875 -344.863115 
L 173.296875 -347.106374 
L 173.296875 -349.349634 
L 173.296875 -351.592893 
L 173.296875 -353.836152 
L 173.296875 -356.079411 
L 173.296875 -358.32267 
L 173.296875 -360.565929 
L 173.296875 -362.809188 
L 173.296875 -365.052447 
L 173.296875 -367.295706 
L 173.296875 -369.538965 
L 173.296875 -371.782224 
L 173.296875 -374.025483 
L 173.296875 -376.268742 
L 173.296875 -378.512001 
L 173.296875 -380.75526 
L 173.296875 -382.998519 
L 173.296875 -385.241778 
L 173.296875 -387.485037 
L 173.296875 -389.728296 
L 173.296875 -391.971555 
L 173.296875 -394.214814 
L 173.296875 -396.458073 
L 173.296875 -398.701333 
L 173.296875 -400.944592 
L 173.296875 -403.187851 
L 173.296875 -405.43111 
L 173.296875 -407.674369 
L 173.296875 -409.917628 
L 173.296875 -412.160887 
L 173.296875 -414.404146 
L 173.296875 -416.647405 
L 173.296875 -418.890664 
L 173.296875 -421.133923 
L 173.296875 -423.377182 
L 173.296875 -425.620441 
L 173.296875 -427.8637 
L 173.296875 -430.106959 
L 173.296875 -432.350218 
L 173.296875 -434.593477 
L 173.296875 -436.836736 
L 173.296875 -439.079995 
L 173.296875 -441.323254 
L 173.296875 -443.566513 
L 173.296875 -445.809772 
L 173.296875 -448.053032 
L 173.296875 -450.296291 
L 173.296875 -452.53955 
L 173.296875 -454.782809 
L 173.296875 -457.026068 
L 173.296875 -459.269327 
L 173.296875 -461.512586 
L 173.296875 -463.755845 
L 173.296875 -465.999104 
L 173.296875 -468.242363 
L 173.296875 -470.485622 
L 173.296875 -472.728881 
L 173.296875 -474.97214 
L 173.296875 -477.215399 
L 173.296875 -479.458658 
L 173.296875 -481.701917 
L 173.296875 -483.945176 
L 173.296875 -486.188435 
L 173.296875 -488.431694 
L 173.296875 -490.674953 
L 173.296875 -492.918212 
L 173.296875 -495.161471 
L 173.296875 -497.404731 
L 173.296875 -499.64799 
L 173.296875 -501.891249 
L 173.296875 -504.134508 
L 173.296875 -506.377767 
L 173.296875 -508.621026 
L 173.296875 -510.864285 
L 173.296875 -513.107544 
L 173.296875 -515.350803 
L 173.296875 -517.594062 
L 173.296875 -519.837321 
L 173.296875 -522.08058 
L 173.296875 -524.323839 
L 173.296875 -526.567098 
L 173.296875 -528.810357 
L 173.297168 -528.810357 
L 173.297168 -528.810357 
L 173.298427 -526.567098 
L 173.301579 -524.323839 
L 173.306404 -522.08058 
L 173.313023 -519.837321 
L 173.325548 -517.594062 
L 173.350445 -515.350803 
L 173.390787 -513.107544 
L 173.456029 -510.864285 
L 173.57174 -508.621026 
L 173.76456 -506.377767 
L 174.057668 -504.134508 
L 174.464695 -501.891249 
L 174.985675 -499.64799 
L 175.606802 -497.404731 
L 176.298524 -495.161471 
L 177.05548 -492.918212 
L 177.89243 -490.674953 
L 178.831795 -488.431694 
L 179.898593 -486.188435 
L 181.100986 -483.945176 
L 182.463048 -481.701917 
L 184.018286 -479.458658 
L 185.795209 -477.215399 
L 187.823709 -474.97214 
L 190.07778 -472.728881 
L 192.440913 -470.485622 
L 194.746576 -468.242363 
L 196.960177 -465.999104 
L 199.179487 -463.755845 
L 201.38371 -461.512586 
L 203.506261 -459.269327 
L 205.654085 -457.026068 
L 207.931318 -454.782809 
L 210.452773 -452.53955 
L 213.207697 -450.296291 
L 215.938921 -448.053032 
L 218.404376 -445.809772 
L 220.480627 -443.566513 
L 222.325877 -441.323254 
L 224.082457 -439.079995 
L 225.572481 -436.836736 
L 226.707832 -434.593477 
L 227.626161 -432.350218 
L 228.380742 -430.106959 
L 228.905571 -427.8637 
L 229.096794 -425.620441 
L 229.028327 -423.377182 
L 228.875596 -421.133923 
L 228.628275 -418.890664 
L 228.241047 -416.647405 
L 227.721496 -414.404146 
L 227.056892 -412.160887 
L 226.299602 -409.917628 
L 225.559605 -407.674369 
L 224.814476 -405.43111 
L 223.945359 -403.187851 
L 223.034536 -400.944592 
L 222.179925 -398.701333 
L 221.209741 -396.458073 
L 220.09024 -394.214814 
L 218.955972 -391.971555 
L 217.778781 -389.728296 
L 216.583668 -387.485037 
L 215.504739 -385.241778 
L 214.492615 -382.998519 
L 213.464881 -380.75526 
L 212.51458 -378.512001 
L 211.740059 -376.268742 
L 211.135047 -374.025483 
L 210.725284 -371.782224 
L 210.498463 -369.538965 
L 210.31689 -367.295706 
L 209.959739 -365.052447 
L 209.371573 -362.809188 
L 208.680366 -360.565929 
L 207.8502 -358.32267 
L 206.864147 -356.079411 
L 205.951464 -353.836152 
L 205.164791 -351.592893 
L 204.357147 -349.349634 
L 203.507294 -347.106374 
L 202.66606 -344.863115 
L 201.932937 -342.619856 
L 201.272671 -340.376597 
L 200.537489 -338.133338 
L 199.757965 -335.890079 
L 198.992304 -333.64682 
L 198.103208 -331.403561 
L 196.81382 -329.160302 
L 194.711951 -326.917043 
L 191.420816 -324.673784 
L 187.026471 -322.430525 
L 182.696319 -320.187266 
L 182.459555 -317.944007 
L 192.665674 -315.700748 
L 205.723641 -313.457489 
L 200.697818 -311.21423 
L 184.281832 -308.970971 
L 175.368039 -306.727712 
z
" style="stroke: #3f3f3f; stroke-width: 1.5"/>
    </defs>
    <g clip-path="url(#p682957e40c)">
     <use xlink:href="#m6b5498bf2a" x="0" y="727.690625" style="fill: #e1812c; stroke: #3f3f3f; stroke-width: 1.5"/>
    </g>
   </g>
   <g id="PolyCollection_3">
    <defs>
     <path id="m92e31db1ac" d="M 312.796875 -235.762889 
L 312.79678 -235.762889 
L 312.796053 -238.155983 
L 312.793767 -240.549077 
L 312.790696 -242.942171 
L 312.788863 -245.335264 
L 312.785376 -247.728358 
L 312.783878 -250.121452 
L 312.783592 -252.514546 
L 312.778548 -254.90764 
L 312.776811 -257.300734 
L 312.777585 -259.693828 
L 312.767698 -262.086922 
L 312.744214 -264.480016 
L 312.712498 -266.87311 
L 312.682561 -269.266204 
L 312.656006 -271.659298 
L 312.609184 -274.052391 
L 312.540366 -276.445485 
L 312.470194 -278.838579 
L 312.401597 -281.231673 
L 312.344897 -283.624767 
L 312.289737 -286.017861 
L 312.199961 -288.410955 
L 312.077771 -290.804049 
L 311.968536 -293.197143 
L 311.87538 -295.590237 
L 311.765692 -297.983331 
L 311.591077 -300.376424 
L 311.359137 -302.769518 
L 311.102602 -305.162612 
L 310.809367 -307.555706 
L 310.499792 -309.9488 
L 310.19151 -312.341894 
L 309.906842 -314.734988 
L 309.517127 -317.128082 
L 309.038185 -319.521176 
L 308.550863 -321.91427 
L 307.948373 -324.307364 
L 307.231753 -326.700458 
L 306.642655 -329.093551 
L 306.270599 -331.486645 
L 306.020721 -333.879739 
L 305.654465 -336.272833 
L 305.086528 -338.665927 
L 304.529885 -341.059021 
L 303.888956 -343.452115 
L 303.177649 -345.845209 
L 302.727743 -348.238303 
L 302.125022 -350.631397 
L 301.227425 -353.024491 
L 300.435185 -355.417584 
L 299.689838 -357.810678 
L 298.636556 -360.203772 
L 297.178499 -362.596866 
L 295.246974 -364.98996 
L 293.11793 -367.383054 
L 291.122005 -369.776148 
L 289.177294 -372.169242 
L 287.336663 -374.562336 
L 286.014721 -376.95543 
L 285.026204 -379.348524 
L 283.970237 -381.741618 
L 283.052598 -384.134711 
L 281.985484 -386.527805 
L 280.953144 -388.920899 
L 280.476967 -391.313993 
L 280.241786 -393.707087 
L 279.797586 -396.100181 
L 279.160095 -398.493275 
L 278.256466 -400.886369 
L 276.434553 -403.279463 
L 274.002654 -405.672557 
L 271.58453 -408.065651 
L 269.217922 -410.458744 
L 266.76053 -412.851838 
L 263.736502 -415.244932 
L 260.600376 -417.638026 
L 258.617735 -420.03112 
L 257.472063 -422.424214 
L 256.996875 -424.817308 
L 257.067203 -427.210402 
L 257.497972 -429.603496 
L 258.569414 -431.99659 
L 260.277958 -434.389684 
L 262.780429 -436.782778 
L 265.434246 -439.175871 
L 268.7075 -441.568965 
L 273.096201 -443.962059 
L 278.333126 -446.355153 
L 284.199689 -448.748247 
L 290.146085 -451.141341 
L 296.191405 -453.534435 
L 301.888864 -455.927529 
L 306.670122 -458.320623 
L 309.991132 -460.713717 
L 311.733034 -463.106811 
L 312.471049 -465.499904 
L 312.724929 -467.892998 
L 312.786881 -470.286092 
L 312.796192 -472.679186 
L 312.796875 -472.679186 
L 312.796875 -472.679186 
L 312.796875 -470.286092 
L 312.796875 -467.892998 
L 312.796875 -465.499904 
L 312.796875 -463.106811 
L 312.796875 -460.713717 
L 312.796875 -458.320623 
L 312.796875 -455.927529 
L 312.796875 -453.534435 
L 312.796875 -451.141341 
L 312.796875 -448.748247 
L 312.796875 -446.355153 
L 312.796875 -443.962059 
L 312.796875 -441.568965 
L 312.796875 -439.175871 
L 312.796875 -436.782778 
L 312.796875 -434.389684 
L 312.796875 -431.99659 
L 312.796875 -429.603496 
L 312.796875 -427.210402 
L 312.796875 -424.817308 
L 312.796875 -422.424214 
L 312.796875 -420.03112 
L 312.796875 -417.638026 
L 312.796875 -415.244932 
L 312.796875 -412.851838 
L 312.796875 -410.458744 
L 312.796875 -408.065651 
L 312.796875 -405.672557 
L 312.796875 -403.279463 
L 312.796875 -400.886369 
L 312.796875 -398.493275 
L 312.796875 -396.100181 
L 312.796875 -393.707087 
L 312.796875 -391.313993 
L 312.796875 -388.920899 
L 312.796875 -386.527805 
L 312.796875 -384.134711 
L 312.796875 -381.741618 
L 312.796875 -379.348524 
L 312.796875 -376.95543 
L 312.796875 -374.562336 
L 312.796875 -372.169242 
L 312.796875 -369.776148 
L 312.796875 -367.383054 
L 312.796875 -364.98996 
L 312.796875 -362.596866 
L 312.796875 -360.203772 
L 312.796875 -357.810678 
L 312.796875 -355.417584 
L 312.796875 -353.024491 
L 312.796875 -350.631397 
L 312.796875 -348.238303 
L 312.796875 -345.845209 
L 312.796875 -343.452115 
L 312.796875 -341.059021 
L 312.796875 -338.665927 
L 312.796875 -336.272833 
L 312.796875 -333.879739 
L 312.796875 -331.486645 
L 312.796875 -329.093551 
L 312.796875 -326.700458 
L 312.796875 -324.307364 
L 312.796875 -321.91427 
L 312.796875 -319.521176 
L 312.796875 -317.128082 
L 312.796875 -314.734988 
L 312.796875 -312.341894 
L 312.796875 -309.9488 
L 312.796875 -307.555706 
L 312.796875 -305.162612 
L 312.796875 -302.769518 
L 312.796875 -300.376424 
L 312.796875 -297.983331 
L 312.796875 -295.590237 
L 312.796875 -293.197143 
L 312.796875 -290.804049 
L 312.796875 -288.410955 
L 312.796875 -286.017861 
L 312.796875 -283.624767 
L 312.796875 -281.231673 
L 312.796875 -278.838579 
L 312.796875 -276.445485 
L 312.796875 -274.052391 
L 312.796875 -271.659298 
L 312.796875 -269.266204 
L 312.796875 -266.87311 
L 312.796875 -264.480016 
L 312.796875 -262.086922 
L 312.796875 -259.693828 
L 312.796875 -257.300734 
L 312.796875 -254.90764 
L 312.796875 -252.514546 
L 312.796875 -250.121452 
L 312.796875 -247.728358 
L 312.796875 -245.335264 
L 312.796875 -242.942171 
L 312.796875 -240.549077 
L 312.796875 -238.155983 
L 312.796875 -235.762889 
z
" style="stroke: #3f3f3f; stroke-width: 1.5"/>
    </defs>
    <g clip-path="url(#p682957e40c)">
     <use xlink:href="#m92e31db1ac" x="0" y="727.690625" style="fill: #3274a1; stroke: #3f3f3f; stroke-width: 1.5"/>
    </g>
   </g>
   <g id="PolyCollection_4">
    <defs>
     <path id="m1b03cafcdd" d="M 312.796958 -222.864224 
L 312.796875 -222.864224 
L 312.796875 -225.650854 
L 312.796875 -228.437484 
L 312.796875 -231.224114 
L 312.796875 -234.010744 
L 312.796875 -236.797374 
L 312.796875 -239.584004 
L 312.796875 -242.370634 
L 312.796875 -245.157264 
L 312.796875 -247.943894 
L 312.796875 -250.730524 
L 312.796875 -253.517154 
L 312.796875 -256.303784 
L 312.796875 -259.090414 
L 312.796875 -261.877044 
L 312.796875 -264.663674 
L 312.796875 -267.450304 
L 312.796875 -270.236934 
L 312.796875 -273.023564 
L 312.796875 -275.810194 
L 312.796875 -278.596824 
L 312.796875 -281.383454 
L 312.796875 -284.170084 
L 312.796875 -286.956714 
L 312.796875 -289.743345 
L 312.796875 -292.529975 
L 312.796875 -295.316605 
L 312.796875 -298.103235 
L 312.796875 -300.889865 
L 312.796875 -303.676495 
L 312.796875 -306.463125 
L 312.796875 -309.249755 
L 312.796875 -312.036385 
L 312.796875 -314.823015 
L 312.796875 -317.609645 
L 312.796875 -320.396275 
L 312.796875 -323.182905 
L 312.796875 -325.969535 
L 312.796875 -328.756165 
L 312.796875 -331.542795 
L 312.796875 -334.329425 
L 312.796875 -337.116055 
L 312.796875 -339.902685 
L 312.796875 -342.689315 
L 312.796875 -345.475945 
L 312.796875 -348.262575 
L 312.796875 -351.049205 
L 312.796875 -353.835835 
L 312.796875 -356.622465 
L 312.796875 -359.409095 
L 312.796875 -362.195725 
L 312.796875 -364.982356 
L 312.796875 -367.768986 
L 312.796875 -370.555616 
L 312.796875 -373.342246 
L 312.796875 -376.128876 
L 312.796875 -378.915506 
L 312.796875 -381.702136 
L 312.796875 -384.488766 
L 312.796875 -387.275396 
L 312.796875 -390.062026 
L 312.796875 -392.848656 
L 312.796875 -395.635286 
L 312.796875 -398.421916 
L 312.796875 -401.208546 
L 312.796875 -403.995176 
L 312.796875 -406.781806 
L 312.796875 -409.568436 
L 312.796875 -412.355066 
L 312.796875 -415.141696 
L 312.796875 -417.928326 
L 312.796875 -420.714956 
L 312.796875 -423.501586 
L 312.796875 -426.288216 
L 312.796875 -429.074846 
L 312.796875 -431.861476 
L 312.796875 -434.648106 
L 312.796875 -437.434736 
L 312.796875 -440.221367 
L 312.796875 -443.007997 
L 312.796875 -445.794627 
L 312.796875 -448.581257 
L 312.796875 -451.367887 
L 312.796875 -454.154517 
L 312.796875 -456.941147 
L 312.796875 -459.727777 
L 312.796875 -462.514407 
L 312.796875 -465.301037 
L 312.796875 -468.087667 
L 312.796875 -470.874297 
L 312.796875 -473.660927 
L 312.796875 -476.447557 
L 312.796875 -479.234187 
L 312.796875 -482.020817 
L 312.796875 -484.807447 
L 312.796875 -487.594077 
L 312.796875 -490.380707 
L 312.796875 -493.167337 
L 312.796875 -495.953967 
L 312.796875 -498.740597 
L 312.796935 -498.740597 
L 312.796935 -498.740597 
L 312.797165 -495.953967 
L 312.797309 -493.167337 
L 312.79709 -490.380707 
L 312.797084 -487.594077 
L 312.79755 -484.807447 
L 312.797718 -482.020817 
L 312.797573 -479.234187 
L 312.798622 -476.447557 
L 312.801402 -473.660927 
L 312.811635 -470.874297 
L 312.876288 -468.087667 
L 313.211984 -465.301037 
L 314.345298 -462.514407 
L 316.939058 -459.727777 
L 321.342913 -456.941147 
L 327.260917 -454.154517 
L 334.319887 -451.367887 
L 342.171126 -448.581257 
L 349.853524 -445.794627 
L 356.404749 -443.007997 
L 361.544037 -440.221367 
L 365.28737 -437.434736 
L 367.438459 -434.648106 
L 368.341649 -431.861476 
L 368.596794 -429.074846 
L 368.154694 -426.288216 
L 366.757486 -423.501586 
L 364.446436 -420.714956 
L 361.627004 -417.928326 
L 358.232869 -415.141696 
L 354.592631 -412.355066 
L 351.530276 -409.568436 
L 349.3523 -406.781806 
L 347.588336 -403.995176 
L 346.073425 -401.208546 
L 345.13464 -398.421916 
L 344.370856 -395.635286 
L 343.198672 -392.848656 
L 341.790549 -390.062026 
L 340.487067 -387.275396 
L 339.130953 -384.488766 
L 337.523366 -381.702136 
L 336.148528 -378.915506 
L 335.076642 -376.128876 
L 333.625409 -373.342246 
L 331.935745 -370.555616 
L 330.558117 -367.768986 
L 329.38915 -364.982356 
L 328.094304 -362.195725 
L 326.775724 -359.409095 
L 325.672931 -356.622465 
L 324.690738 -353.835835 
L 323.674128 -351.049205 
L 322.9153 -348.262575 
L 322.374397 -345.475945 
L 321.704916 -342.689315 
L 320.934919 -339.902685 
L 320.216632 -337.116055 
L 319.631152 -334.329425 
L 319.169687 -331.542795 
L 318.701507 -328.756165 
L 318.119532 -325.969535 
L 317.436361 -323.182905 
L 316.742881 -320.396275 
L 316.133671 -317.609645 
L 315.665525 -314.823015 
L 315.272417 -312.036385 
L 314.930213 -309.249755 
L 314.676489 -306.463125 
L 314.457751 -303.676495 
L 314.218589 -300.889865 
L 313.9933 -298.103235 
L 313.852075 -295.316605 
L 313.738217 -292.529975 
L 313.619243 -289.743345 
L 313.495941 -286.956714 
L 313.385487 -284.170084 
L 313.320739 -281.383454 
L 313.276352 -278.596824 
L 313.20199 -275.810194 
L 313.10973 -273.023564 
L 313.039278 -270.236934 
L 312.982984 -267.450304 
L 312.93133 -264.663674 
L 312.893538 -261.877044 
L 313.002622 -259.090414 
L 315.236097 -256.303784 
L 325.358209 -253.517154 
L 332.971829 -250.730524 
L 322.767726 -247.943894 
L 314.320442 -245.157264 
L 312.88 -242.370634 
L 312.809696 -239.584004 
L 312.806398 -236.797374 
L 312.803008 -234.010744 
L 312.800373 -231.224114 
L 312.798699 -228.437484 
L 312.797458 -225.650854 
L 312.796958 -222.864224 
z
" style="stroke: #3f3f3f; stroke-width: 1.5"/>
    </defs>
    <g clip-path="url(#p682957e40c)">
     <use xlink:href="#m1b03cafcdd" x="0" y="727.690625" style="fill: #e1812c; stroke: #3f3f3f; stroke-width: 1.5"/>
    </g>
   </g>
   <g id="PolyCollection_5">
    <defs>
     <path id="m28d98c8d80" d="M 452.296875 -378.976863 
L 452.296728 -378.976863 
L 452.295449 -379.507292 
L 452.292551 -380.03772 
L 452.285478 -380.568149 
L 452.262328 -381.098577 
L 452.216407 -381.629006 
L 452.143772 -382.159435 
L 452.025842 -382.689863 
L 451.875132 -383.220292 
L 451.663701 -383.75072 
L 451.342098 -384.281149 
L 450.887243 -384.811577 
L 450.11056 -385.342006 
L 448.90853 -385.872434 
L 447.176303 -386.402863 
L 444.714252 -386.933291 
L 441.845534 -387.46372 
L 438.552036 -387.994149 
L 434.669392 -388.524577 
L 430.400701 -389.055006 
L 426.087132 -389.585434 
L 422.004285 -390.115863 
L 418.057893 -390.646291 
L 413.9561 -391.17672 
L 409.683591 -391.707148 
L 405.475595 -392.237577 
L 402.158599 -392.768005 
L 399.597857 -393.298434 
L 397.873194 -393.828862 
L 396.97569 -394.359291 
L 396.496875 -394.88972 
L 396.581744 -395.420148 
L 396.877415 -395.950577 
L 397.335994 -396.481005 
L 398.329 -397.011434 
L 400.114058 -397.541862 
L 402.288382 -398.072291 
L 404.631742 -398.602719 
L 406.81252 -399.133148 
L 408.789653 -399.663576 
L 410.365157 -400.194005 
L 411.460516 -400.724434 
L 411.43075 -401.254862 
L 410.22459 -401.785291 
L 408.347683 -402.315719 
L 406.739538 -402.846148 
L 405.824949 -403.376576 
L 405.960011 -403.907005 
L 406.6795 -404.437433 
L 407.589726 -404.967862 
L 408.519486 -405.49829 
L 409.028768 -406.028719 
L 409.736637 -406.559148 
L 411.347583 -407.089576 
L 413.771473 -407.620005 
L 416.927333 -408.150433 
L 421.425339 -408.680862 
L 426.591956 -409.21129 
L 431.31606 -409.741719 
L 434.97698 -410.272147 
L 437.812173 -410.802576 
L 440.362296 -411.333004 
L 442.374363 -411.863433 
L 443.746607 -412.393861 
L 444.976167 -412.92429 
L 446.206798 -413.454719 
L 447.379865 -413.985147 
L 448.398917 -414.515576 
L 449.440632 -415.046004 
L 450.260187 -415.576433 
L 450.697355 -416.106861 
L 451.026004 -416.63729 
L 451.232096 -417.167718 
L 451.389726 -417.698147 
L 451.509568 -418.228575 
L 451.619699 -418.759004 
L 451.737684 -419.289433 
L 451.814005 -419.819861 
L 451.866817 -420.35029 
L 451.913264 -420.880718 
L 451.948286 -421.411147 
L 451.98502 -421.941575 
L 452.012503 -422.472004 
L 452.023375 -423.002432 
L 452.044464 -423.532861 
L 452.068735 -424.063289 
L 452.071741 -424.593718 
L 452.081636 -425.124147 
L 452.10593 -425.654575 
L 452.128698 -426.185004 
L 452.146115 -426.715432 
L 452.155305 -427.245861 
L 452.170324 -427.776289 
L 452.204282 -428.306718 
L 452.245051 -428.837146 
L 452.273582 -429.367575 
L 452.288653 -429.898003 
L 452.294079 -430.428432 
L 452.296042 -430.95886 
L 452.29677 -431.489289 
L 452.296875 -431.489289 
L 452.296875 -431.489289 
L 452.296875 -430.95886 
L 452.296875 -430.428432 
L 452.296875 -429.898003 
L 452.296875 -429.367575 
L 452.296875 -428.837146 
L 452.296875 -428.306718 
L 452.296875 -427.776289 
L 452.296875 -427.245861 
L 452.296875 -426.715432 
L 452.296875 -426.185004 
L 452.296875 -425.654575 
L 452.296875 -425.124147 
L 452.296875 -424.593718 
L 452.296875 -424.063289 
L 452.296875 -423.532861 
L 452.296875 -423.002432 
L 452.296875 -422.472004 
L 452.296875 -421.941575 
L 452.296875 -421.411147 
L 452.296875 -420.880718 
L 452.296875 -420.35029 
L 452.296875 -419.819861 
L 452.296875 -419.289433 
L 452.296875 -418.759004 
L 452.296875 -418.228575 
L 452.296875 -417.698147 
L 452.296875 -417.167718 
L 452.296875 -416.63729 
L 452.296875 -416.106861 
L 452.296875 -415.576433 
L 452.296875 -415.046004 
L 452.296875 -414.515576 
L 452.296875 -413.985147 
L 452.296875 -413.454719 
L 452.296875 -412.92429 
L 452.296875 -412.393861 
L 452.296875 -411.863433 
L 452.296875 -411.333004 
L 452.296875 -410.802576 
L 452.296875 -410.272147 
L 452.296875 -409.741719 
L 452.296875 -409.21129 
L 452.296875 -408.680862 
L 452.296875 -408.150433 
L 452.296875 -407.620005 
L 452.296875 -407.089576 
L 452.296875 -406.559148 
L 452.296875 -406.028719 
L 452.296875 -405.49829 
L 452.296875 -404.967862 
L 452.296875 -404.437433 
L 452.296875 -403.907005 
L 452.296875 -403.376576 
L 452.296875 -402.846148 
L 452.296875 -402.315719 
L 452.296875 -401.785291 
L 452.296875 -401.254862 
L 452.296875 -400.724434 
L 452.296875 -400.194005 
L 452.296875 -399.663576 
L 452.296875 -399.133148 
L 452.296875 -398.602719 
L 452.296875 -398.072291 
L 452.296875 -397.541862 
L 452.296875 -397.011434 
L 452.296875 -396.481005 
L 452.296875 -395.950577 
L 452.296875 -395.420148 
L 452.296875 -394.88972 
L 452.296875 -394.359291 
L 452.296875 -393.828862 
L 452.296875 -393.298434 
L 452.296875 -392.768005 
L 452.296875 -392.237577 
L 452.296875 -391.707148 
L 452.296875 -391.17672 
L 452.296875 -390.646291 
L 452.296875 -390.115863 
L 452.296875 -389.585434 
L 452.296875 -389.055006 
L 452.296875 -388.524577 
L 452.296875 -387.994149 
L 452.296875 -387.46372 
L 452.296875 -386.933291 
L 452.296875 -386.402863 
L 452.296875 -385.872434 
L 452.296875 -385.342006 
L 452.296875 -384.811577 
L 452.296875 -384.281149 
L 452.296875 -383.75072 
L 452.296875 -383.220292 
L 452.296875 -382.689863 
L 452.296875 -382.159435 
L 452.296875 -381.629006 
L 452.296875 -381.098577 
L 452.296875 -380.568149 
L 452.296875 -380.03772 
L 452.296875 -379.507292 
L 452.296875 -378.976863 
z
" style="stroke: #3f3f3f; stroke-width: 1.5"/>
    </defs>
    <g clip-path="url(#p682957e40c)">
     <use xlink:href="#m28d98c8d80" x="0" y="727.690625" style="fill: #3274a1; stroke: #3f3f3f; stroke-width: 1.5"/>
    </g>
   </g>
   <g id="PolyCollection_6">
    <defs>
     <path id="m86ca067210" d="M 452.296902 -126.490625 
L 452.296875 -126.490625 
L 452.296875 -131.581534 
L 452.296875 -136.672443 
L 452.296875 -141.763352 
L 452.296875 -146.854261 
L 452.296875 -151.94517 
L 452.296875 -157.03608 
L 452.296875 -162.126989 
L 452.296875 -167.217898 
L 452.296875 -172.308807 
L 452.296875 -177.399716 
L 452.296875 -182.490625 
L 452.296875 -187.581534 
L 452.296875 -192.672443 
L 452.296875 -197.763352 
L 452.296875 -202.854261 
L 452.296875 -207.94517 
L 452.296875 -213.03608 
L 452.296875 -218.126989 
L 452.296875 -223.217898 
L 452.296875 -228.308807 
L 452.296875 -233.399716 
L 452.296875 -238.490625 
L 452.296875 -243.581534 
L 452.296875 -248.672443 
L 452.296875 -253.763352 
L 452.296875 -258.854261 
L 452.296875 -263.94517 
L 452.296875 -269.03608 
L 452.296875 -274.126989 
L 452.296875 -279.217898 
L 452.296875 -284.308807 
L 452.296875 -289.399716 
L 452.296875 -294.490625 
L 452.296875 -299.581534 
L 452.296875 -304.672443 
L 452.296875 -309.763352 
L 452.296875 -314.854261 
L 452.296875 -319.94517 
L 452.296875 -325.03608 
L 452.296875 -330.126989 
L 452.296875 -335.217898 
L 452.296875 -340.308807 
L 452.296875 -345.399716 
L 452.296875 -350.490625 
L 452.296875 -355.581534 
L 452.296875 -360.672443 
L 452.296875 -365.763352 
L 452.296875 -370.854261 
L 452.296875 -375.94517 
L 452.296875 -381.03608 
L 452.296875 -386.126989 
L 452.296875 -391.217898 
L 452.296875 -396.308807 
L 452.296875 -401.399716 
L 452.296875 -406.490625 
L 452.296875 -411.581534 
L 452.296875 -416.672443 
L 452.296875 -421.763352 
L 452.296875 -426.854261 
L 452.296875 -431.94517 
L 452.296875 -437.03608 
L 452.296875 -442.126989 
L 452.296875 -447.217898 
L 452.296875 -452.308807 
L 452.296875 -457.399716 
L 452.296875 -462.490625 
L 452.296875 -467.581534 
L 452.296875 -472.672443 
L 452.296875 -477.763352 
L 452.296875 -482.854261 
L 452.296875 -487.94517 
L 452.296875 -493.03608 
L 452.296875 -498.126989 
L 452.296875 -503.217898 
L 452.296875 -508.308807 
L 452.296875 -513.399716 
L 452.296875 -518.490625 
L 452.296875 -523.581534 
L 452.296875 -528.672443 
L 452.296875 -533.763352 
L 452.296875 -538.854261 
L 452.296875 -543.94517 
L 452.296875 -549.03608 
L 452.296875 -554.126989 
L 452.296875 -559.217898 
L 452.296875 -564.308807 
L 452.296875 -569.399716 
L 452.296875 -574.490625 
L 452.296875 -579.581534 
L 452.296875 -584.672443 
L 452.296875 -589.763352 
L 452.296875 -594.854261 
L 452.296875 -599.94517 
L 452.296875 -605.03608 
L 452.296875 -610.126989 
L 452.296875 -615.217898 
L 452.296875 -620.308807 
L 452.296875 -625.399716 
L 452.296875 -630.490625 
L 453.546264 -630.490625 
L 453.546264 -630.490625 
L 461.527665 -625.399716 
L 453.622038 -620.308807 
L 452.300571 -615.217898 
L 452.296875 -610.126989 
L 452.296875 -605.03608 
L 452.296875 -599.94517 
L 452.296875 -594.854261 
L 452.296875 -589.763352 
L 452.296875 -584.672443 
L 452.296875 -579.581534 
L 452.296875 -574.490625 
L 452.296875 -569.399716 
L 452.296875 -564.308807 
L 452.296875 -559.217898 
L 452.296875 -554.126989 
L 452.296875 -549.03608 
L 452.296875 -543.94517 
L 452.296875 -538.854261 
L 452.296875 -533.763352 
L 452.296875 -528.672443 
L 452.296875 -523.581534 
L 452.296875 -518.490625 
L 452.296875 -513.399716 
L 452.296875 -508.308807 
L 452.296875 -503.217898 
L 452.296875 -498.126989 
L 452.296875 -493.03608 
L 452.296875 -487.94517 
L 452.296897 -482.854261 
L 452.297082 -477.763352 
L 452.297381 -472.672443 
L 452.299875 -467.581534 
L 452.303264 -462.490625 
L 452.313883 -457.399716 
L 452.329462 -452.308807 
L 452.373121 -447.217898 
L 452.448819 -442.126989 
L 452.598967 -437.03608 
L 452.958482 -431.94517 
L 453.839378 -426.854261 
L 455.902656 -421.763352 
L 460.448642 -416.672443 
L 469.792049 -411.581534 
L 483.939933 -406.490625 
L 497.116784 -401.399716 
L 504.412142 -396.308807 
L 508.096794 -391.217898 
L 504.973746 -386.126989 
L 490.080373 -381.03608 
L 471.311527 -375.94517 
L 459.233815 -370.854261 
L 454.624916 -365.763352 
L 453.320532 -360.672443 
L 452.889129 -355.581534 
L 452.678185 -350.490625 
L 452.564085 -345.399716 
L 452.483362 -340.308807 
L 452.435705 -335.217898 
L 452.396394 -330.126989 
L 452.3714 -325.03608 
L 452.357242 -319.94517 
L 452.345834 -314.854261 
L 452.330686 -309.763352 
L 452.323689 -304.672443 
L 452.31605 -299.581534 
L 452.311737 -294.490625 
L 452.310663 -289.399716 
L 452.307784 -284.308807 
L 452.303877 -279.217898 
L 452.30185 -274.126989 
L 452.300939 -269.03608 
L 452.30101 -263.94517 
L 452.300929 -258.854261 
L 452.299911 -253.763352 
L 452.301317 -248.672443 
L 452.298933 -243.581534 
L 452.298557 -238.490625 
L 452.298122 -233.399716 
L 452.297803 -228.308807 
L 452.297893 -223.217898 
L 452.298047 -218.126989 
L 452.297726 -213.03608 
L 452.297224 -207.94517 
L 452.297189 -202.854261 
L 452.296889 -197.763352 
L 452.297021 -192.672443 
L 452.297214 -187.581534 
L 452.296911 -182.490625 
L 452.297179 -177.399716 
L 452.29729 -172.308807 
L 452.296915 -167.217898 
L 452.297061 -162.126989 
L 452.296931 -157.03608 
L 452.29688 -151.94517 
L 452.297028 -146.854261 
L 452.296967 -141.763352 
L 452.296905 -136.672443 
L 452.297075 -131.581534 
L 452.296902 -126.490625 
z
" style="stroke: #3f3f3f; stroke-width: 1.5"/>
    </defs>
    <g clip-path="url(#p682957e40c)">
     <use xlink:href="#m86ca067210" x="0" y="727.690625" style="fill: #e1812c; stroke: #3f3f3f; stroke-width: 1.5"/>
    </g>
   </g>
   <g id="PolyCollection_7">
    <defs>
     <path id="med6f25a949" d="M 591.796875 -386.392362 
L 591.796246 -386.392362 
L 591.795041 -387.226958 
L 591.79248 -388.061555 
L 591.788121 -388.896152 
L 591.781926 -389.730749 
L 591.772654 -390.565346 
L 591.748868 -391.399943 
L 591.656952 -392.23454 
L 591.314646 -393.069137 
L 590.251411 -393.903733 
L 587.577901 -394.73833 
L 582.201801 -395.572927 
L 573.662558 -396.407524 
L 563.137687 -397.242121 
L 553.390801 -398.076718 
L 547.160002 -398.911315 
L 545.499106 -399.745911 
L 547.878563 -400.580508 
L 553.439569 -401.415105 
L 561.397144 -402.249702 
L 570.443544 -403.084299 
L 578.725653 -403.918896 
L 584.808057 -404.753493 
L 588.409537 -405.58809 
L 590.157408 -406.422686 
L 590.879129 -407.257283 
L 591.156128 -408.09188 
L 591.274385 -408.926477 
L 591.341583 -409.761074 
L 591.390179 -410.595671 
L 591.427984 -411.430268 
L 591.456855 -412.264865 
L 591.478551 -413.099461 
L 591.495565 -413.934058 
L 591.510174 -414.768655 
L 591.523555 -415.603252 
L 591.535724 -416.437849 
L 591.546135 -417.272446 
L 591.554475 -418.107043 
L 591.561135 -418.941639 
L 591.567039 -419.776236 
L 591.572975 -420.610833 
L 591.579029 -421.44543 
L 591.584652 -422.280027 
L 591.589338 -423.114624 
L 591.593197 -423.949221 
L 591.59678 -424.783818 
L 591.60044 -425.618414 
L 591.60405 -426.453011 
L 591.607274 -427.287608 
L 591.609829 -428.122205 
L 591.611415 -428.956802 
L 591.611648 -429.791399 
L 591.610336 -430.625996 
L 591.607848 -431.460593 
L 591.605057 -432.295189 
L 591.602775 -433.129786 
L 591.601234 -433.964383 
L 591.600238 -434.79898 
L 591.599744 -435.633577 
L 591.600103 -436.468174 
L 591.601657 -437.302771 
L 591.6042 -438.137367 
L 591.606932 -438.971964 
L 591.608912 -439.806561 
L 591.609506 -440.641158 
L 591.608462 -441.475755 
L 591.605669 -442.310352 
L 591.600971 -443.144949 
L 591.594192 -443.979546 
L 591.585152 -444.814142 
L 591.573394 -445.648739 
L 591.557976 -446.483336 
L 591.537783 -447.317933 
L 591.512139 -448.15253 
L 591.480993 -448.987127 
L 591.444243 -449.821724 
L 591.399797 -450.656321 
L 591.336882 -451.490917 
L 591.209577 -452.325514 
L 590.854029 -453.160111 
L 589.811798 -453.994708 
L 587.135795 -454.829305 
L 581.521088 -455.663902 
L 572.16665 -456.498499 
L 560.032017 -457.333095 
L 548.068738 -458.167692 
L 539.542768 -459.002289 
L 535.996875 -459.836886 
L 537.188895 -460.671483 
L 542.54429 -461.50608 
L 551.576895 -462.340677 
L 562.900944 -463.175274 
L 573.994044 -464.00987 
L 582.550543 -464.844467 
L 587.786498 -465.679064 
L 590.350383 -466.513661 
L 591.363427 -467.348258 
L 591.688867 -468.182855 
L 591.774449 -469.017452 
L 591.796875 -469.017452 
L 591.796875 -469.017452 
L 591.796875 -468.182855 
L 591.796875 -467.348258 
L 591.796875 -466.513661 
L 591.796875 -465.679064 
L 591.796875 -464.844467 
L 591.796875 -464.00987 
L 591.796875 -463.175274 
L 591.796875 -462.340677 
L 591.796875 -461.50608 
L 591.796875 -460.671483 
L 591.796875 -459.836886 
L 591.796875 -459.002289 
L 591.796875 -458.167692 
L 591.796875 -457.333095 
L 591.796875 -456.498499 
L 591.796875 -455.663902 
L 591.796875 -454.829305 
L 591.796875 -453.994708 
L 591.796875 -453.160111 
L 591.796875 -452.325514 
L 591.796875 -451.490917 
L 591.796875 -450.656321 
L 591.796875 -449.821724 
L 591.796875 -448.987127 
L 591.796875 -448.15253 
L 591.796875 -447.317933 
L 591.796875 -446.483336 
L 591.796875 -445.648739 
L 591.796875 -444.814142 
L 591.796875 -443.979546 
L 591.796875 -443.144949 
L 591.796875 -442.310352 
L 591.796875 -441.475755 
L 591.796875 -440.641158 
L 591.796875 -439.806561 
L 591.796875 -438.971964 
L 591.796875 -438.137367 
L 591.796875 -437.302771 
L 591.796875 -436.468174 
L 591.796875 -435.633577 
L 591.796875 -434.79898 
L 591.796875 -433.964383 
L 591.796875 -433.129786 
L 591.796875 -432.295189 
L 591.796875 -431.460593 
L 591.796875 -430.625996 
L 591.796875 -429.791399 
L 591.796875 -428.956802 
L 591.796875 -428.122205 
L 591.796875 -427.287608 
L 591.796875 -426.453011 
L 591.796875 -425.618414 
L 591.796875 -424.783818 
L 591.796875 -423.949221 
L 591.796875 -423.114624 
L 591.796875 -422.280027 
L 591.796875 -421.44543 
L 591.796875 -420.610833 
L 591.796875 -419.776236 
L 591.796875 -418.941639 
L 591.796875 -418.107043 
L 591.796875 -417.272446 
L 591.796875 -416.437849 
L 591.796875 -415.603252 
L 591.796875 -414.768655 
L 591.796875 -413.934058 
L 591.796875 -413.099461 
L 591.796875 -412.264865 
L 591.796875 -411.430268 
L 591.796875 -410.595671 
L 591.796875 -409.761074 
L 591.796875 -408.926477 
L 591.796875 -408.09188 
L 591.796875 -407.257283 
L 591.796875 -406.422686 
L 591.796875 -405.58809 
L 591.796875 -404.753493 
L 591.796875 -403.918896 
L 591.796875 -403.084299 
L 591.796875 -402.249702 
L 591.796875 -401.415105 
L 591.796875 -400.580508 
L 591.796875 -399.745911 
L 591.796875 -398.911315 
L 591.796875 -398.076718 
L 591.796875 -397.242121 
L 591.796875 -396.407524 
L 591.796875 -395.572927 
L 591.796875 -394.73833 
L 591.796875 -393.903733 
L 591.796875 -393.069137 
L 591.796875 -392.23454 
L 591.796875 -391.399943 
L 591.796875 -390.565346 
L 591.796875 -389.730749 
L 591.796875 -388.896152 
L 591.796875 -388.061555 
L 591.796875 -387.226958 
L 591.796875 -386.392362 
z
" style="stroke: #3f3f3f; stroke-width: 1.5"/>
    </defs>
    <g clip-path="url(#p682957e40c)">
     <use xlink:href="#med6f25a949" x="0" y="727.690625" style="fill: #3274a1; stroke: #3f3f3f; stroke-width: 1.5"/>
    </g>
   </g>
   <g id="PolyCollection_8">
    <defs>
     <path id="mce2f03e84a" d="M 593.394003 -334.309138 
L 591.796875 -334.309138 
L 591.796875 -335.635144 
L 591.796875 -336.961151 
L 591.796875 -338.287157 
L 591.796875 -339.613163 
L 591.796875 -340.93917 
L 591.796875 -342.265176 
L 591.796875 -343.591182 
L 591.796875 -344.917189 
L 591.796875 -346.243195 
L 591.796875 -347.569202 
L 591.796875 -348.895208 
L 591.796875 -350.221214 
L 591.796875 -351.547221 
L 591.796875 -352.873227 
L 591.796875 -354.199234 
L 591.796875 -355.52524 
L 591.796875 -356.851246 
L 591.796875 -358.177253 
L 591.796875 -359.503259 
L 591.796875 -360.829265 
L 591.796875 -362.155272 
L 591.796875 -363.481278 
L 591.796875 -364.807285 
L 591.796875 -366.133291 
L 591.796875 -367.459297 
L 591.796875 -368.785304 
L 591.796875 -370.11131 
L 591.796875 -371.437316 
L 591.796875 -372.763323 
L 591.796875 -374.089329 
L 591.796875 -375.415336 
L 591.796875 -376.741342 
L 591.796875 -378.067348 
L 591.796875 -379.393355 
L 591.796875 -380.719361 
L 591.796875 -382.045367 
L 591.796875 -383.371374 
L 591.796875 -384.69738 
L 591.796875 -386.023387 
L 591.796875 -387.349393 
L 591.796875 -388.675399 
L 591.796875 -390.001406 
L 591.796875 -391.327412 
L 591.796875 -392.653418 
L 591.796875 -393.979425 
L 591.796875 -395.305431 
L 591.796875 -396.631438 
L 591.796875 -397.957444 
L 591.796875 -399.28345 
L 591.796875 -400.609457 
L 591.796875 -401.935463 
L 591.796875 -403.261469 
L 591.796875 -404.587476 
L 591.796875 -405.913482 
L 591.796875 -407.239489 
L 591.796875 -408.565495 
L 591.796875 -409.891501 
L 591.796875 -411.217508 
L 591.796875 -412.543514 
L 591.796875 -413.86952 
L 591.796875 -415.195527 
L 591.796875 -416.521533 
L 591.796875 -417.84754 
L 591.796875 -419.173546 
L 591.796875 -420.499552 
L 591.796875 -421.825559 
L 591.796875 -423.151565 
L 591.796875 -424.477571 
L 591.796875 -425.803578 
L 591.796875 -427.129584 
L 591.796875 -428.455591 
L 591.796875 -429.781597 
L 591.796875 -431.107603 
L 591.796875 -432.43361 
L 591.796875 -433.759616 
L 591.796875 -435.085622 
L 591.796875 -436.411629 
L 591.796875 -437.737635 
L 591.796875 -439.063642 
L 591.796875 -440.389648 
L 591.796875 -441.715654 
L 591.796875 -443.041661 
L 591.796875 -444.367667 
L 591.796875 -445.693673 
L 591.796875 -447.01968 
L 591.796875 -448.345686 
L 591.796875 -449.671693 
L 591.796875 -450.997699 
L 591.796875 -452.323705 
L 591.796875 -453.649712 
L 591.796875 -454.975718 
L 591.796875 -456.301725 
L 591.796875 -457.627731 
L 591.796875 -458.953737 
L 591.796875 -460.279744 
L 591.796875 -461.60575 
L 591.796875 -462.931756 
L 591.796875 -464.257763 
L 591.796875 -465.583769 
L 593.874112 -465.583769 
L 593.874112 -465.583769 
L 598.094924 -464.257763 
L 606.642888 -462.931756 
L 619.027921 -461.60575 
L 630.703996 -460.279744 
L 635.165627 -458.953737 
L 629.610948 -457.627731 
L 617.720287 -456.301725 
L 605.929881 -454.975718 
L 598.099903 -453.649712 
L 594.273836 -452.323705 
L 592.814695 -450.997699 
L 592.342548 -449.671693 
L 592.191099 -448.345686 
L 592.134371 -447.01968 
L 592.110397 -445.693673 
L 592.100197 -444.367667 
L 592.094848 -443.041661 
L 592.089854 -441.715654 
L 592.08384 -440.389648 
L 592.077302 -439.063642 
L 592.071738 -437.737635 
L 592.068797 -436.411629 
L 592.06895 -435.085622 
L 592.070754 -433.759616 
L 592.071948 -432.43361 
L 592.071488 -431.107603 
L 592.070489 -429.781597 
L 592.07126 -428.455591 
L 592.075315 -427.129584 
L 592.082078 -425.803578 
L 592.089312 -424.477571 
L 592.094647 -423.151565 
L 592.097002 -421.825559 
L 592.097274 -420.499552 
L 592.097907 -419.173546 
L 592.101581 -417.84754 
L 592.110441 -416.521533 
L 592.127228 -415.195527 
L 592.159138 -413.86952 
L 592.22768 -412.543514 
L 592.397752 -411.217508 
L 592.858266 -409.891501 
L 594.089081 -408.565495 
L 597.042605 -407.239489 
L 603.010765 -405.913482 
L 612.797573 -404.587476 
L 625.519565 -403.261469 
L 638.189481 -401.935463 
L 646.698457 -400.609457 
L 647.596794 -399.28345 
L 639.993181 -397.957444 
L 626.650934 -396.631438 
L 612.669204 -395.305431 
L 602.171416 -393.979425 
L 596.214445 -392.653418 
L 593.569087 -391.327412 
L 592.602904 -390.001406 
L 592.281255 -388.675399 
L 592.164453 -387.349393 
L 592.112022 -386.023387 
L 592.085304 -384.69738 
L 592.071697 -383.371374 
L 592.064729 -382.045367 
L 592.06046 -380.719361 
L 592.05699 -379.393355 
L 592.054015 -378.067348 
L 592.052048 -376.741342 
L 592.051666 -375.415336 
L 592.053021 -374.089329 
L 592.055521 -372.763323 
L 592.057944 -371.437316 
L 592.059332 -370.11131 
L 592.059884 -368.785304 
L 592.060614 -367.459297 
L 592.062286 -366.133291 
L 592.065174 -364.807285 
L 592.069446 -363.481278 
L 592.075018 -362.155272 
L 592.081272 -360.829265 
L 592.087676 -359.503259 
L 592.094818 -358.177253 
L 592.104765 -356.851246 
L 592.120894 -355.52524 
L 592.148766 -354.199234 
L 592.20089 -352.873227 
L 592.31319 -351.547221 
L 592.598049 -350.221214 
L 593.382823 -348.895208 
L 595.439439 -347.569202 
L 600.044542 -346.243195 
L 608.231977 -344.917189 
L 619.027505 -343.591182 
L 628.322482 -342.265176 
L 630.940517 -340.93917 
L 625.073625 -339.613163 
L 614.140114 -338.287157 
L 603.609929 -336.961151 
L 596.703007 -335.635144 
L 593.394003 -334.309138 
z
" style="stroke: #3f3f3f; stroke-width: 1.5"/>
    </defs>
    <g clip-path="url(#p682957e40c)">
     <use xlink:href="#mce2f03e84a" x="0" y="727.690625" style="fill: #e1812c; stroke: #3f3f3f; stroke-width: 1.5"/>
    </g>
   </g>
   <g id="matplotlib.axis_1">
    <g id="xtick_1">
     <g id="line2d_1">
      <defs>
       <path id="m62158d8673" d="M 0 0 
L 0 3.5 
" style="stroke: #000000; stroke-width: 0.8"/>
      </defs>
      <g>
       <use xlink:href="#m62158d8673" x="173.296875" y="626.4" style="stroke: #000000; stroke-width: 0.8"/>
      </g>
     </g>
     <g id="text_1">
      <!-- Amplitude -->
      <g transform="translate(151.064063 640.557813) scale(0.1 -0.1)">
       <defs>
        <path id="ArialMT-41" d="M -9 0 
L 1750 4581 
L 2403 4581 
L 4278 0 
L 3588 0 
L 3053 1388 
L 1138 1388 
L 634 0 
L -9 0 
z
M 1313 1881 
L 2866 1881 
L 2388 3150 
Q 2169 3728 2063 4100 
Q 1975 3659 1816 3225 
L 1313 1881 
z
" transform="scale(0.015625)"/>
        <path id="ArialMT-6d" d="M 422 0 
L 422 3319 
L 925 3319 
L 925 2853 
Q 1081 3097 1340 3245 
Q 1600 3394 1931 3394 
Q 2300 3394 2536 3241 
Q 2772 3088 2869 2813 
Q 3263 3394 3894 3394 
Q 4388 3394 4653 3120 
Q 4919 2847 4919 2278 
L 4919 0 
L 4359 0 
L 4359 2091 
Q 4359 2428 4304 2576 
Q 4250 2725 4106 2815 
Q 3963 2906 3769 2906 
Q 3419 2906 3187 2673 
Q 2956 2441 2956 1928 
L 2956 0 
L 2394 0 
L 2394 2156 
Q 2394 2531 2256 2718 
Q 2119 2906 1806 2906 
Q 1569 2906 1367 2781 
Q 1166 2656 1075 2415 
Q 984 2175 984 1722 
L 984 0 
L 422 0 
z
" transform="scale(0.015625)"/>
        <path id="ArialMT-70" d="M 422 -1272 
L 422 3319 
L 934 3319 
L 934 2888 
Q 1116 3141 1344 3267 
Q 1572 3394 1897 3394 
Q 2322 3394 2647 3175 
Q 2972 2956 3137 2557 
Q 3303 2159 3303 1684 
Q 3303 1175 3120 767 
Q 2938 359 2589 142 
Q 2241 -75 1856 -75 
Q 1575 -75 1351 44 
Q 1128 163 984 344 
L 984 -1272 
L 422 -1272 
z
M 931 1641 
Q 931 1000 1190 694 
Q 1450 388 1819 388 
Q 2194 388 2461 705 
Q 2728 1022 2728 1688 
Q 2728 2322 2467 2637 
Q 2206 2953 1844 2953 
Q 1484 2953 1207 2617 
Q 931 2281 931 1641 
z
" transform="scale(0.015625)"/>
        <path id="ArialMT-6c" d="M 409 0 
L 409 4581 
L 972 4581 
L 972 0 
L 409 0 
z
" transform="scale(0.015625)"/>
        <path id="ArialMT-69" d="M 425 3934 
L 425 4581 
L 988 4581 
L 988 3934 
L 425 3934 
z
M 425 0 
L 425 3319 
L 988 3319 
L 988 0 
L 425 0 
z
" transform="scale(0.015625)"/>
        <path id="ArialMT-74" d="M 1650 503 
L 1731 6 
Q 1494 -44 1306 -44 
Q 1000 -44 831 53 
Q 663 150 594 308 
Q 525 466 525 972 
L 525 2881 
L 113 2881 
L 113 3319 
L 525 3319 
L 525 4141 
L 1084 4478 
L 1084 3319 
L 1650 3319 
L 1650 2881 
L 1084 2881 
L 1084 941 
Q 1084 700 1114 631 
Q 1144 563 1211 522 
Q 1278 481 1403 481 
Q 1497 481 1650 503 
z
" transform="scale(0.015625)"/>
        <path id="ArialMT-75" d="M 2597 0 
L 2597 488 
Q 2209 -75 1544 -75 
Q 1250 -75 995 37 
Q 741 150 617 320 
Q 494 491 444 738 
Q 409 903 409 1263 
L 409 3319 
L 972 3319 
L 972 1478 
Q 972 1038 1006 884 
Q 1059 663 1231 536 
Q 1403 409 1656 409 
Q 1909 409 2131 539 
Q 2353 669 2445 892 
Q 2538 1116 2538 1541 
L 2538 3319 
L 3100 3319 
L 3100 0 
L 2597 0 
z
" transform="scale(0.015625)"/>
        <path id="ArialMT-64" d="M 2575 0 
L 2575 419 
Q 2259 -75 1647 -75 
Q 1250 -75 917 144 
Q 584 363 401 755 
Q 219 1147 219 1656 
Q 219 2153 384 2558 
Q 550 2963 881 3178 
Q 1213 3394 1622 3394 
Q 1922 3394 2156 3267 
Q 2391 3141 2538 2938 
L 2538 4581 
L 3097 4581 
L 3097 0 
L 2575 0 
z
M 797 1656 
Q 797 1019 1065 703 
Q 1334 388 1700 388 
Q 2069 388 2326 689 
Q 2584 991 2584 1609 
Q 2584 2291 2321 2609 
Q 2059 2928 1675 2928 
Q 1300 2928 1048 2622 
Q 797 2316 797 1656 
z
" transform="scale(0.015625)"/>
        <path id="ArialMT-65" d="M 2694 1069 
L 3275 997 
Q 3138 488 2766 206 
Q 2394 -75 1816 -75 
Q 1088 -75 661 373 
Q 234 822 234 1631 
Q 234 2469 665 2931 
Q 1097 3394 1784 3394 
Q 2450 3394 2872 2941 
Q 3294 2488 3294 1666 
Q 3294 1616 3291 1516 
L 816 1516 
Q 847 969 1125 678 
Q 1403 388 1819 388 
Q 2128 388 2347 550 
Q 2566 713 2694 1069 
z
M 847 1978 
L 2700 1978 
Q 2663 2397 2488 2606 
Q 2219 2931 1791 2931 
Q 1403 2931 1139 2672 
Q 875 2413 847 1978 
z
" transform="scale(0.015625)"/>
       </defs>
       <use xlink:href="#ArialMT-41"/>
       <use xlink:href="#ArialMT-6d" x="66.699219"/>
       <use xlink:href="#ArialMT-70" x="150"/>
       <use xlink:href="#ArialMT-6c" x="205.615234"/>
       <use xlink:href="#ArialMT-69" x="227.832031"/>
       <use xlink:href="#ArialMT-74" x="250.048828"/>
       <use xlink:href="#ArialMT-75" x="277.832031"/>
       <use xlink:href="#ArialMT-64" x="333.447266"/>
       <use xlink:href="#ArialMT-65" x="389.0625"/>
      </g>
     </g>
    </g>
    <g id="xtick_2">
     <g id="line2d_2">
      <g>
       <use xlink:href="#m62158d8673" x="312.796875" y="626.4" style="stroke: #000000; stroke-width: 0.8"/>
      </g>
     </g>
     <g id="text_2">
      <!-- Resonance -->
      <g transform="translate(287.503125 640.557813) scale(0.1 -0.1)">
       <defs>
        <path id="ArialMT-52" d="M 503 0 
L 503 4581 
L 2534 4581 
Q 3147 4581 3465 4457 
Q 3784 4334 3975 4021 
Q 4166 3709 4166 3331 
Q 4166 2844 3850 2509 
Q 3534 2175 2875 2084 
Q 3116 1969 3241 1856 
Q 3506 1613 3744 1247 
L 4541 0 
L 3778 0 
L 3172 953 
Q 2906 1366 2734 1584 
Q 2563 1803 2427 1890 
Q 2291 1978 2150 2013 
Q 2047 2034 1813 2034 
L 1109 2034 
L 1109 0 
L 503 0 
z
M 1109 2559 
L 2413 2559 
Q 2828 2559 3062 2645 
Q 3297 2731 3419 2920 
Q 3541 3109 3541 3331 
Q 3541 3656 3305 3865 
Q 3069 4075 2559 4075 
L 1109 4075 
L 1109 2559 
z
" transform="scale(0.015625)"/>
        <path id="ArialMT-73" d="M 197 991 
L 753 1078 
Q 800 744 1014 566 
Q 1228 388 1613 388 
Q 2000 388 2187 545 
Q 2375 703 2375 916 
Q 2375 1106 2209 1216 
Q 2094 1291 1634 1406 
Q 1016 1563 777 1677 
Q 538 1791 414 1992 
Q 291 2194 291 2438 
Q 291 2659 392 2848 
Q 494 3038 669 3163 
Q 800 3259 1026 3326 
Q 1253 3394 1513 3394 
Q 1903 3394 2198 3281 
Q 2494 3169 2634 2976 
Q 2775 2784 2828 2463 
L 2278 2388 
Q 2241 2644 2061 2787 
Q 1881 2931 1553 2931 
Q 1166 2931 1000 2803 
Q 834 2675 834 2503 
Q 834 2394 903 2306 
Q 972 2216 1119 2156 
Q 1203 2125 1616 2013 
Q 2213 1853 2448 1751 
Q 2684 1650 2818 1456 
Q 2953 1263 2953 975 
Q 2953 694 2789 445 
Q 2625 197 2315 61 
Q 2006 -75 1616 -75 
Q 969 -75 630 194 
Q 291 463 197 991 
z
" transform="scale(0.015625)"/>
        <path id="ArialMT-6f" d="M 213 1659 
Q 213 2581 725 3025 
Q 1153 3394 1769 3394 
Q 2453 3394 2887 2945 
Q 3322 2497 3322 1706 
Q 3322 1066 3130 698 
Q 2938 331 2570 128 
Q 2203 -75 1769 -75 
Q 1072 -75 642 372 
Q 213 819 213 1659 
z
M 791 1659 
Q 791 1022 1069 705 
Q 1347 388 1769 388 
Q 2188 388 2466 706 
Q 2744 1025 2744 1678 
Q 2744 2294 2464 2611 
Q 2184 2928 1769 2928 
Q 1347 2928 1069 2612 
Q 791 2297 791 1659 
z
" transform="scale(0.015625)"/>
        <path id="ArialMT-6e" d="M 422 0 
L 422 3319 
L 928 3319 
L 928 2847 
Q 1294 3394 1984 3394 
Q 2284 3394 2536 3286 
Q 2788 3178 2913 3003 
Q 3038 2828 3088 2588 
Q 3119 2431 3119 2041 
L 3119 0 
L 2556 0 
L 2556 2019 
Q 2556 2363 2490 2533 
Q 2425 2703 2258 2804 
Q 2091 2906 1866 2906 
Q 1506 2906 1245 2678 
Q 984 2450 984 1813 
L 984 0 
L 422 0 
z
" transform="scale(0.015625)"/>
        <path id="ArialMT-61" d="M 2588 409 
Q 2275 144 1986 34 
Q 1697 -75 1366 -75 
Q 819 -75 525 192 
Q 231 459 231 875 
Q 231 1119 342 1320 
Q 453 1522 633 1644 
Q 813 1766 1038 1828 
Q 1203 1872 1538 1913 
Q 2219 1994 2541 2106 
Q 2544 2222 2544 2253 
Q 2544 2597 2384 2738 
Q 2169 2928 1744 2928 
Q 1347 2928 1158 2789 
Q 969 2650 878 2297 
L 328 2372 
Q 403 2725 575 2942 
Q 747 3159 1072 3276 
Q 1397 3394 1825 3394 
Q 2250 3394 2515 3294 
Q 2781 3194 2906 3042 
Q 3031 2891 3081 2659 
Q 3109 2516 3109 2141 
L 3109 1391 
Q 3109 606 3145 398 
Q 3181 191 3288 0 
L 2700 0 
Q 2613 175 2588 409 
z
M 2541 1666 
Q 2234 1541 1622 1453 
Q 1275 1403 1131 1340 
Q 988 1278 909 1158 
Q 831 1038 831 891 
Q 831 666 1001 516 
Q 1172 366 1500 366 
Q 1825 366 2078 508 
Q 2331 650 2450 897 
Q 2541 1088 2541 1459 
L 2541 1666 
z
" transform="scale(0.015625)"/>
        <path id="ArialMT-63" d="M 2588 1216 
L 3141 1144 
Q 3050 572 2676 248 
Q 2303 -75 1759 -75 
Q 1078 -75 664 370 
Q 250 816 250 1647 
Q 250 2184 428 2587 
Q 606 2991 970 3192 
Q 1334 3394 1763 3394 
Q 2303 3394 2647 3120 
Q 2991 2847 3088 2344 
L 2541 2259 
Q 2463 2594 2264 2762 
Q 2066 2931 1784 2931 
Q 1359 2931 1093 2626 
Q 828 2322 828 1663 
Q 828 994 1084 691 
Q 1341 388 1753 388 
Q 2084 388 2306 591 
Q 2528 794 2588 1216 
z
" transform="scale(0.015625)"/>
       </defs>
       <use xlink:href="#ArialMT-52"/>
       <use xlink:href="#ArialMT-65" x="72.216797"/>
       <use xlink:href="#ArialMT-73" x="127.832031"/>
       <use xlink:href="#ArialMT-6f" x="177.832031"/>
       <use xlink:href="#ArialMT-6e" x="233.447266"/>
       <use xlink:href="#ArialMT-61" x="289.0625"/>
       <use xlink:href="#ArialMT-6e" x="344.677734"/>
       <use xlink:href="#ArialMT-63" x="400.292969"/>
       <use xlink:href="#ArialMT-65" x="450.292969"/>
      </g>
     </g>
    </g>
    <g id="xtick_3">
     <g id="line2d_3">
      <g>
       <use xlink:href="#m62158d8673" x="452.296875" y="626.4" style="stroke: #000000; stroke-width: 0.8"/>
      </g>
     </g>
     <g id="text_3">
      <!-- Q-Factor -->
      <g transform="translate(432.574219 640.557813) scale(0.1 -0.1)">
       <defs>
        <path id="ArialMT-51" d="M 3966 491 
Q 4388 200 4744 66 
L 4566 -356 
Q 4072 -178 3581 206 
Q 3072 -78 2456 -78 
Q 1834 -78 1328 222 
Q 822 522 548 1065 
Q 275 1609 275 2291 
Q 275 2969 550 3525 
Q 825 4081 1333 4372 
Q 1841 4663 2469 4663 
Q 3103 4663 3612 4361 
Q 4122 4059 4389 3517 
Q 4656 2975 4656 2294 
Q 4656 1728 4484 1276 
Q 4313 825 3966 491 
z
M 2631 1266 
Q 3156 1119 3497 828 
Q 4031 1316 4031 2294 
Q 4031 2850 3842 3265 
Q 3653 3681 3289 3911 
Q 2925 4141 2472 4141 
Q 1794 4141 1347 3677 
Q 900 3213 900 2291 
Q 900 1397 1342 919 
Q 1784 441 2472 441 
Q 2797 441 3084 563 
Q 2800 747 2484 825 
L 2631 1266 
z
" transform="scale(0.015625)"/>
        <path id="ArialMT-2d" d="M 203 1375 
L 203 1941 
L 1931 1941 
L 1931 1375 
L 203 1375 
z
" transform="scale(0.015625)"/>
        <path id="ArialMT-46" d="M 525 0 
L 525 4581 
L 3616 4581 
L 3616 4041 
L 1131 4041 
L 1131 2622 
L 3281 2622 
L 3281 2081 
L 1131 2081 
L 1131 0 
L 525 0 
z
" transform="scale(0.015625)"/>
        <path id="ArialMT-72" d="M 416 0 
L 416 3319 
L 922 3319 
L 922 2816 
Q 1116 3169 1280 3281 
Q 1444 3394 1641 3394 
Q 1925 3394 2219 3213 
L 2025 2691 
Q 1819 2813 1613 2813 
Q 1428 2813 1281 2702 
Q 1134 2591 1072 2394 
Q 978 2094 978 1738 
L 978 0 
L 416 0 
z
" transform="scale(0.015625)"/>
       </defs>
       <use xlink:href="#ArialMT-51"/>
       <use xlink:href="#ArialMT-2d" x="77.783203"/>
       <use xlink:href="#ArialMT-46" x="111.083984"/>
       <use xlink:href="#ArialMT-61" x="172.167969"/>
       <use xlink:href="#ArialMT-63" x="227.783203"/>
       <use xlink:href="#ArialMT-74" x="277.783203"/>
       <use xlink:href="#ArialMT-6f" x="305.566406"/>
       <use xlink:href="#ArialMT-72" x="361.181641"/>
      </g>
     </g>
    </g>
    <g id="xtick_4">
     <g id="line2d_4">
      <g>
       <use xlink:href="#m62158d8673" x="591.796875" y="626.4" style="stroke: #000000; stroke-width: 0.8"/>
      </g>
     </g>
     <g id="text_4">
      <!-- Phase -->
      <g transform="translate(577.620312 640.557813) scale(0.1 -0.1)">
       <defs>
        <path id="ArialMT-50" d="M 494 0 
L 494 4581 
L 2222 4581 
Q 2678 4581 2919 4538 
Q 3256 4481 3484 4323 
Q 3713 4166 3852 3881 
Q 3991 3597 3991 3256 
Q 3991 2672 3619 2267 
Q 3247 1863 2275 1863 
L 1100 1863 
L 1100 0 
L 494 0 
z
M 1100 2403 
L 2284 2403 
Q 2872 2403 3119 2622 
Q 3366 2841 3366 3238 
Q 3366 3525 3220 3729 
Q 3075 3934 2838 4000 
Q 2684 4041 2272 4041 
L 1100 4041 
L 1100 2403 
z
" transform="scale(0.015625)"/>
        <path id="ArialMT-68" d="M 422 0 
L 422 4581 
L 984 4581 
L 984 2938 
Q 1378 3394 1978 3394 
Q 2347 3394 2619 3248 
Q 2891 3103 3008 2847 
Q 3125 2591 3125 2103 
L 3125 0 
L 2563 0 
L 2563 2103 
Q 2563 2525 2380 2717 
Q 2197 2909 1863 2909 
Q 1613 2909 1392 2779 
Q 1172 2650 1078 2428 
Q 984 2206 984 1816 
L 984 0 
L 422 0 
z
" transform="scale(0.015625)"/>
       </defs>
       <use xlink:href="#ArialMT-50"/>
       <use xlink:href="#ArialMT-68" x="66.699219"/>
       <use xlink:href="#ArialMT-61" x="122.314453"/>
       <use xlink:href="#ArialMT-73" x="177.929688"/>
       <use xlink:href="#ArialMT-65" x="227.929688"/>
      </g>
     </g>
    </g>
    <g id="text_5">
     <!-- Params -->
     <g transform="translate(365.321094 653.703125) scale(0.1 -0.1)">
      <use xlink:href="#ArialMT-50"/>
      <use xlink:href="#ArialMT-61" x="66.699219"/>
      <use xlink:href="#ArialMT-72" x="122.314453"/>
      <use xlink:href="#ArialMT-61" x="155.615234"/>
      <use xlink:href="#ArialMT-6d" x="211.230469"/>
      <use xlink:href="#ArialMT-73" x="294.53125"/>
     </g>
    </g>
   </g>
   <g id="matplotlib.axis_2">
    <g id="ytick_1">
     <g id="line2d_5">
      <defs>
       <path id="mbaad67e905" d="M 0 0 
L -3.5 0 
" style="stroke: #000000; stroke-width: 0.8"/>
      </defs>
      <g>
       <use xlink:href="#mbaad67e905" x="103.546875" y="586.813287" style="stroke: #000000; stroke-width: 0.8"/>
      </g>
     </g>
     <g id="text_6">
      <!-- 6 -->
      <g transform="translate(85.145313 590.392193) scale(0.1 -0.1)">
       <defs>
        <path id="ArialMT-2212" d="M 3381 1997 
L 356 1997 
L 356 2522 
L 3381 2522 
L 3381 1997 
z
" transform="scale(0.015625)"/>
        <path id="ArialMT-36" d="M 3184 3459 
L 2625 3416 
Q 2550 3747 2413 3897 
Q 2184 4138 1850 4138 
Q 1581 4138 1378 3988 
Q 1113 3794 959 3422 
Q 806 3050 800 2363 
Q 1003 2672 1297 2822 
Q 1591 2972 1913 2972 
Q 2475 2972 2870 2558 
Q 3266 2144 3266 1488 
Q 3266 1056 3080 686 
Q 2894 316 2569 119 
Q 2244 -78 1831 -78 
Q 1128 -78 684 439 
Q 241 956 241 2144 
Q 241 3472 731 4075 
Q 1159 4600 1884 4600 
Q 2425 4600 2770 4297 
Q 3116 3994 3184 3459 
z
M 888 1484 
Q 888 1194 1011 928 
Q 1134 663 1356 523 
Q 1578 384 1822 384 
Q 2178 384 2434 671 
Q 2691 959 2691 1453 
Q 2691 1928 2437 2201 
Q 2184 2475 1800 2475 
Q 1419 2475 1153 2201 
Q 888 1928 888 1484 
z
" transform="scale(0.015625)"/>
       </defs>
       <use xlink:href="#ArialMT-2212"/>
       <use xlink:href="#ArialMT-36" x="58.398438"/>
      </g>
     </g>
    </g>
    <g id="ytick_2">
     <g id="line2d_6">
      <g>
       <use xlink:href="#mbaad67e905" x="103.546875" y="500.086333" style="stroke: #000000; stroke-width: 0.8"/>
      </g>
     </g>
     <g id="text_7">
      <!-- 4 -->
      <g transform="translate(85.145313 503.665239) scale(0.1 -0.1)">
       <defs>
        <path id="ArialMT-34" d="M 2069 0 
L 2069 1097 
L 81 1097 
L 81 1613 
L 2172 4581 
L 2631 4581 
L 2631 1613 
L 3250 1613 
L 3250 1097 
L 2631 1097 
L 2631 0 
L 2069 0 
z
M 2069 1613 
L 2069 3678 
L 634 1613 
L 2069 1613 
z
" transform="scale(0.015625)"/>
       </defs>
       <use xlink:href="#ArialMT-2212"/>
       <use xlink:href="#ArialMT-34" x="58.398438"/>
      </g>
     </g>
    </g>
    <g id="ytick_3">
     <g id="line2d_7">
      <g>
       <use xlink:href="#mbaad67e905" x="103.546875" y="413.359379" style="stroke: #000000; stroke-width: 0.8"/>
      </g>
     </g>
     <g id="text_8">
      <!-- 2 -->
      <g transform="translate(85.145313 416.938285) scale(0.1 -0.1)">
       <defs>
        <path id="ArialMT-32" d="M 3222 541 
L 3222 0 
L 194 0 
Q 188 203 259 391 
Q 375 700 629 1000 
Q 884 1300 1366 1694 
Q 2113 2306 2375 2664 
Q 2638 3022 2638 3341 
Q 2638 3675 2398 3904 
Q 2159 4134 1775 4134 
Q 1369 4134 1125 3890 
Q 881 3647 878 3216 
L 300 3275 
Q 359 3922 746 4261 
Q 1134 4600 1788 4600 
Q 2447 4600 2831 4234 
Q 3216 3869 3216 3328 
Q 3216 3053 3103 2787 
Q 2991 2522 2730 2228 
Q 2469 1934 1863 1422 
Q 1356 997 1212 845 
Q 1069 694 975 541 
L 3222 541 
z
" transform="scale(0.015625)"/>
       </defs>
       <use xlink:href="#ArialMT-2212"/>
       <use xlink:href="#ArialMT-32" x="58.398438"/>
      </g>
     </g>
    </g>
    <g id="ytick_4">
     <g id="line2d_8">
      <g>
       <use xlink:href="#mbaad67e905" x="103.546875" y="326.632425" style="stroke: #000000; stroke-width: 0.8"/>
      </g>
     </g>
     <g id="text_9">
      <!-- 0 -->
      <g transform="translate(90.985938 330.211331) scale(0.1 -0.1)">
       <defs>
        <path id="ArialMT-30" d="M 266 2259 
Q 266 3072 433 3567 
Q 600 4063 929 4331 
Q 1259 4600 1759 4600 
Q 2128 4600 2406 4451 
Q 2684 4303 2865 4023 
Q 3047 3744 3150 3342 
Q 3253 2941 3253 2259 
Q 3253 1453 3087 958 
Q 2922 463 2592 192 
Q 2263 -78 1759 -78 
Q 1097 -78 719 397 
Q 266 969 266 2259 
z
M 844 2259 
Q 844 1131 1108 757 
Q 1372 384 1759 384 
Q 2147 384 2411 759 
Q 2675 1134 2675 2259 
Q 2675 3391 2411 3762 
Q 2147 4134 1753 4134 
Q 1366 4134 1134 3806 
Q 844 3388 844 2259 
z
" transform="scale(0.015625)"/>
       </defs>
       <use xlink:href="#ArialMT-30"/>
      </g>
     </g>
    </g>
    <g id="ytick_5">
     <g id="line2d_9">
      <g>
       <use xlink:href="#mbaad67e905" x="103.546875" y="239.90547" style="stroke: #000000; stroke-width: 0.8"/>
      </g>
     </g>
     <g id="text_10">
      <!-- 2 -->
      <g transform="translate(90.985938 243.484377) scale(0.1 -0.1)">
       <use xlink:href="#ArialMT-32"/>
      </g>
     </g>
    </g>
    <g id="ytick_6">
     <g id="line2d_10">
      <g>
       <use xlink:href="#mbaad67e905" x="103.546875" y="153.178516" style="stroke: #000000; stroke-width: 0.8"/>
      </g>
     </g>
     <g id="text_11">
      <!-- 4 -->
      <g transform="translate(90.985938 156.757423) scale(0.1 -0.1)">
       <use xlink:href="#ArialMT-34"/>
      </g>
     </g>
    </g>
    <g id="text_12">
     <!-- Normalized Params -->
     <g transform="translate(79.157813 393.099219) rotate(-90) scale(0.1 -0.1)">
      <defs>
       <path id="ArialMT-4e" d="M 488 0 
L 488 4581 
L 1109 4581 
L 3516 984 
L 3516 4581 
L 4097 4581 
L 4097 0 
L 3475 0 
L 1069 3600 
L 1069 0 
L 488 0 
z
" transform="scale(0.015625)"/>
       <path id="ArialMT-7a" d="M 125 0 
L 125 456 
L 2238 2881 
Q 1878 2863 1603 2863 
L 250 2863 
L 250 3319 
L 2963 3319 
L 2963 2947 
L 1166 841 
L 819 456 
Q 1197 484 1528 484 
L 3063 484 
L 3063 0 
L 125 0 
z
" transform="scale(0.015625)"/>
       <path id="ArialMT-20" transform="scale(0.015625)"/>
      </defs>
      <use xlink:href="#ArialMT-4e"/>
      <use xlink:href="#ArialMT-6f" x="72.216797"/>
      <use xlink:href="#ArialMT-72" x="127.832031"/>
      <use xlink:href="#ArialMT-6d" x="161.132812"/>
      <use xlink:href="#ArialMT-61" x="244.433594"/>
      <use xlink:href="#ArialMT-6c" x="300.048828"/>
      <use xlink:href="#ArialMT-69" x="322.265625"/>
      <use xlink:href="#ArialMT-7a" x="344.482422"/>
      <use xlink:href="#ArialMT-65" x="394.482422"/>
      <use xlink:href="#ArialMT-64" x="450.097656"/>
      <use xlink:href="#ArialMT-20" x="505.712891"/>
      <use xlink:href="#ArialMT-50" x="533.496094"/>
      <use xlink:href="#ArialMT-61" x="600.195312"/>
      <use xlink:href="#ArialMT-72" x="655.810547"/>
      <use xlink:href="#ArialMT-61" x="689.111328"/>
      <use xlink:href="#ArialMT-6d" x="744.726562"/>
      <use xlink:href="#ArialMT-73" x="828.027344"/>
     </g>
    </g>
   </g>
   <g id="line2d_11">
    <path d="M 137.067776 359.26647 
L 173.296875 359.26647 
" clip-path="url(#p682957e40c)" style="fill: none; stroke-dasharray: 3.375,3.375; stroke-dashoffset: 0; stroke: #3f3f3f; stroke-width: 1.5"/>
   </g>
   <g id="line2d_12">
    <path d="M 122.55575 321.834206 
L 173.296875 321.834206 
" clip-path="url(#p682957e40c)" style="fill: none; stroke-dasharray: 6.75,6.75; stroke-dashoffset: 0; stroke: #3f3f3f; stroke-width: 1.5"/>
   </g>
   <g id="line2d_13">
    <path d="M 118.548566 292.104096 
L 173.296875 292.104096 
" clip-path="url(#p682957e40c)" style="fill: none; stroke-dasharray: 3.375,3.375; stroke-dashoffset: 0; stroke: #3f3f3f; stroke-width: 1.5"/>
   </g>
   <g id="line2d_14">
    <path d="M 173.296875 359.535275 
L 209.94669 359.535275 
" clip-path="url(#p682957e40c)" style="fill: none; stroke-dasharray: 3.375,3.375; stroke-dashoffset: 0; stroke: #3f3f3f; stroke-width: 1.5"/>
   </g>
   <g id="line2d_15">
    <path d="M 173.296875 322.615824 
L 224.2993 322.615824 
" clip-path="url(#p682957e40c)" style="fill: none; stroke-dasharray: 6.75,6.75; stroke-dashoffset: 0; stroke: #3f3f3f; stroke-width: 1.5"/>
   </g>
   <g id="line2d_16">
    <path d="M 173.296875 293.30702 
L 226.173723 293.30702 
" clip-path="url(#p682957e40c)" style="fill: none; stroke-dasharray: 3.375,3.375; stroke-dashoffset: 0; stroke: #3f3f3f; stroke-width: 1.5"/>
   </g>
   <g id="line2d_17">
    <path d="M 283.350041 342.594812 
L 312.796875 342.594812 
" clip-path="url(#p682957e40c)" style="fill: none; stroke-dasharray: 3.375,3.375; stroke-dashoffset: 0; stroke: #3f3f3f; stroke-width: 1.5"/>
   </g>
   <g id="line2d_18">
    <path d="M 267.220893 315.093441 
L 312.796875 315.093441 
" clip-path="url(#p682957e40c)" style="fill: none; stroke-dasharray: 6.75,6.75; stroke-dashoffset: 0; stroke: #3f3f3f; stroke-width: 1.5"/>
   </g>
   <g id="line2d_19">
    <path d="M 259.111688 296.797423 
L 312.796875 296.797423 
" clip-path="url(#p682957e40c)" style="fill: none; stroke-dasharray: 3.375,3.375; stroke-dashoffset: 0; stroke: #3f3f3f; stroke-width: 1.5"/>
   </g>
   <g id="line2d_20">
    <path d="M 312.796875 345.224724 
L 337.276101 345.224724 
" clip-path="url(#p682957e40c)" style="fill: none; stroke-dasharray: 3.375,3.375; stroke-dashoffset: 0; stroke: #3f3f3f; stroke-width: 1.5"/>
   </g>
   <g id="line2d_21">
    <path d="M 312.796875 315.028848 
L 354.174674 315.028848 
" clip-path="url(#p682957e40c)" style="fill: none; stroke-dasharray: 6.75,6.75; stroke-dashoffset: 0; stroke: #3f3f3f; stroke-width: 1.5"/>
   </g>
   <g id="line2d_22">
    <path d="M 312.796875 296.159391 
L 367.786201 296.159391 
" clip-path="url(#p682957e40c)" style="fill: none; stroke-dasharray: 3.375,3.375; stroke-dashoffset: 0; stroke: #3f3f3f; stroke-width: 1.5"/>
   </g>
   <g id="line2d_23">
    <path d="M 397.528902 333.484541 
L 452.296875 333.484541 
" clip-path="url(#p682957e40c)" style="fill: none; stroke-dasharray: 3.375,3.375; stroke-dashoffset: 0; stroke: #3f3f3f; stroke-width: 1.5"/>
   </g>
   <g id="line2d_24">
    <path d="M 407.267364 328.786745 
L 452.296875 328.786745 
" clip-path="url(#p682957e40c)" style="fill: none; stroke-dasharray: 6.75,6.75; stroke-dashoffset: 0; stroke: #3f3f3f; stroke-width: 1.5"/>
   </g>
   <g id="line2d_25">
    <path d="M 407.135673 323.058455 
L 452.296875 323.058455 
" clip-path="url(#p682957e40c)" style="fill: none; stroke-dasharray: 3.375,3.375; stroke-dashoffset: 0; stroke: #3f3f3f; stroke-width: 1.5"/>
   </g>
   <g id="line2d_26">
    <path d="M 452.296875 342.140032 
L 504.446977 342.140032 
" clip-path="url(#p682957e40c)" style="fill: none; stroke-dasharray: 3.375,3.375; stroke-dashoffset: 0; stroke: #3f3f3f; stroke-width: 1.5"/>
   </g>
   <g id="line2d_27">
    <path d="M 452.296875 334.207746 
L 507.538795 334.207746 
" clip-path="url(#p682957e40c)" style="fill: none; stroke-dasharray: 6.75,6.75; stroke-dashoffset: 0; stroke: #3f3f3f; stroke-width: 1.5"/>
   </g>
   <g id="line2d_28">
    <path d="M 452.296875 325.367787 
L 496.668585 325.367787 
" clip-path="url(#p682957e40c)" style="fill: none; stroke-dasharray: 3.375,3.375; stroke-dashoffset: 0; stroke: #3f3f3f; stroke-width: 1.5"/>
   </g>
   <g id="line2d_29">
    <path d="M 548.317746 327.472032 
L 591.796875 327.472032 
" clip-path="url(#p682957e40c)" style="fill: none; stroke-dasharray: 3.375,3.375; stroke-dashoffset: 0; stroke: #3f3f3f; stroke-width: 1.5"/>
   </g>
   <g id="line2d_30">
    <path d="M 548.506019 269.512209 
L 591.796875 269.512209 
" clip-path="url(#p682957e40c)" style="fill: none; stroke-dasharray: 6.75,6.75; stroke-dashoffset: 0; stroke: #3f3f3f; stroke-width: 1.5"/>
   </g>
   <g id="line2d_31">
    <path d="M 537.734975 267.348571 
L 591.796875 267.348571 
" clip-path="url(#p682957e40c)" style="fill: none; stroke-dasharray: 3.375,3.375; stroke-dashoffset: 0; stroke: #3f3f3f; stroke-width: 1.5"/>
   </g>
   <g id="line2d_32">
    <path d="M 591.796875 383.775416 
L 618.755198 383.775416 
" clip-path="url(#p682957e40c)" style="fill: none; stroke-dasharray: 3.375,3.375; stroke-dashoffset: 0; stroke: #3f3f3f; stroke-width: 1.5"/>
   </g>
   <g id="line2d_33">
    <path d="M 591.796875 327.949736 
L 647.038795 327.949736 
" clip-path="url(#p682957e40c)" style="fill: none; stroke-dasharray: 6.75,6.75; stroke-dashoffset: 0; stroke: #3f3f3f; stroke-width: 1.5"/>
   </g>
   <g id="line2d_34">
    <path d="M 591.796875 269.61907 
L 629.232808 269.61907 
" clip-path="url(#p682957e40c)" style="fill: none; stroke-dasharray: 3.375,3.375; stroke-dashoffset: 0; stroke: #3f3f3f; stroke-width: 1.5"/>
   </g>
   <g id="patch_5">
    <path d="M 103.546875 626.4 
L 103.546875 72 
" style="fill: none; stroke: #000000; stroke-width: 0.8; stroke-linejoin: miter; stroke-linecap: square"/>
   </g>
   <g id="patch_6">
    <path d="M 661.546875 626.4 
L 661.546875 72 
" style="fill: none; stroke: #000000; stroke-width: 0.8; stroke-linejoin: miter; stroke-linecap: square"/>
   </g>
   <g id="patch_7">
    <path d="M 103.546875 626.4 
L 661.546875 626.4 
" style="fill: none; stroke: #000000; stroke-width: 0.8; stroke-linejoin: miter; stroke-linecap: square"/>
   </g>
   <g id="patch_8">
    <path d="M 103.546875 72 
L 661.546875 72 
" style="fill: none; stroke: #000000; stroke-width: 0.8; stroke-linejoin: miter; stroke-linecap: square"/>
   </g>
   <g id="legend_1">
    <g id="patch_9">
     <path d="M 596.429688 122.553125 
L 654.546875 122.553125 
Q 656.546875 122.553125 656.546875 120.553125 
L 656.546875 79 
Q 656.546875 77 654.546875 77 
L 596.429688 77 
Q 594.429688 77 594.429688 79 
L 594.429688 120.553125 
Q 594.429688 122.553125 596.429688 122.553125 
z
" style="fill: #ffffff; opacity: 0.8; stroke: #cccccc; stroke-linejoin: miter"/>
    </g>
    <g id="text_13">
     <!-- Fit Type -->
     <g transform="translate(607.792969 88.157813) scale(0.1 -0.1)">
      <defs>
       <path id="ArialMT-54" d="M 1659 0 
L 1659 4041 
L 150 4041 
L 150 4581 
L 3781 4581 
L 3781 4041 
L 2266 4041 
L 2266 0 
L 1659 0 
z
" transform="scale(0.015625)"/>
       <path id="ArialMT-79" d="M 397 -1278 
L 334 -750 
Q 519 -800 656 -800 
Q 844 -800 956 -737 
Q 1069 -675 1141 -563 
Q 1194 -478 1313 -144 
Q 1328 -97 1363 -6 
L 103 3319 
L 709 3319 
L 1400 1397 
Q 1534 1031 1641 628 
Q 1738 1016 1872 1384 
L 2581 3319 
L 3144 3319 
L 1881 -56 
Q 1678 -603 1566 -809 
Q 1416 -1088 1222 -1217 
Q 1028 -1347 759 -1347 
Q 597 -1347 397 -1278 
z
" transform="scale(0.015625)"/>
      </defs>
      <use xlink:href="#ArialMT-46"/>
      <use xlink:href="#ArialMT-69" x="61.083984"/>
      <use xlink:href="#ArialMT-74" x="83.300781"/>
      <use xlink:href="#ArialMT-20" x="111.083984"/>
      <use xlink:href="#ArialMT-54" x="137.117188"/>
      <use xlink:href="#ArialMT-79" x="192.701172"/>
      <use xlink:href="#ArialMT-70" x="242.701172"/>
      <use xlink:href="#ArialMT-65" x="298.316406"/>
     </g>
    </g>
    <g id="patch_10">
     <path d="M 598.429688 102.420313 
L 618.429688 102.420313 
L 618.429688 95.420313 
L 598.429688 95.420313 
z
" style="fill: #3274a1; stroke: #3f3f3f; stroke-width: 0.75; stroke-linejoin: miter"/>
    </g>
    <g id="text_14">
     <!-- NN -->
     <g transform="translate(626.429688 102.420313) scale(0.1 -0.1)">
      <use xlink:href="#ArialMT-4e"/>
      <use xlink:href="#ArialMT-4e" x="72.216797"/>
     </g>
    </g>
    <g id="patch_11">
     <path d="M 598.429688 116.565625 
L 618.429688 116.565625 
L 618.429688 109.565625 
L 598.429688 109.565625 
z
" style="fill: #e1812c; stroke: #3f3f3f; stroke-width: 0.75; stroke-linejoin: miter"/>
    </g>
    <g id="text_15">
     <!-- LSQF -->
     <g transform="translate(626.429688 116.565625) scale(0.1 -0.1)">
      <defs>
       <path id="ArialMT-4c" d="M 469 0 
L 469 4581 
L 1075 4581 
L 1075 541 
L 3331 541 
L 3331 0 
L 469 0 
z
" transform="scale(0.015625)"/>
       <path id="ArialMT-53" d="M 288 1472 
L 859 1522 
Q 900 1178 1048 958 
Q 1197 738 1509 602 
Q 1822 466 2213 466 
Q 2559 466 2825 569 
Q 3091 672 3220 851 
Q 3350 1031 3350 1244 
Q 3350 1459 3225 1620 
Q 3100 1781 2813 1891 
Q 2628 1963 1997 2114 
Q 1366 2266 1113 2400 
Q 784 2572 623 2826 
Q 463 3081 463 3397 
Q 463 3744 659 4045 
Q 856 4347 1234 4503 
Q 1613 4659 2075 4659 
Q 2584 4659 2973 4495 
Q 3363 4331 3572 4012 
Q 3781 3694 3797 3291 
L 3216 3247 
Q 3169 3681 2898 3903 
Q 2628 4125 2100 4125 
Q 1550 4125 1298 3923 
Q 1047 3722 1047 3438 
Q 1047 3191 1225 3031 
Q 1400 2872 2139 2705 
Q 2878 2538 3153 2413 
Q 3553 2228 3743 1945 
Q 3934 1663 3934 1294 
Q 3934 928 3725 604 
Q 3516 281 3123 101 
Q 2731 -78 2241 -78 
Q 1619 -78 1198 103 
Q 778 284 539 648 
Q 300 1013 288 1472 
z
" transform="scale(0.015625)"/>
      </defs>
      <use xlink:href="#ArialMT-4c"/>
      <use xlink:href="#ArialMT-53" x="55.615234"/>
      <use xlink:href="#ArialMT-51" x="122.314453"/>
      <use xlink:href="#ArialMT-46" x="200.097656"/>
     </g>
    </g>
   </g>
  </g>
 </g>
 <defs>
  <clipPath id="p682957e40c">
   <rect x="103.546875" y="72" width="558" height="554.4"/>
  </clipPath>
 </defs>
</svg>
